<svg xmlns="http://www.w3.org/2000/svg" viewBox="0 0 1419.77 314.3" width="1419.77" height="314.3">
  <path d="M56.84 -4.1L143.16 -4.1Q148.63 -4.1 151.76 -8.5Q154.88 -12.89 154.88 -18.75Q154.88 -24.61 151.76 -29Q148.63 -33.4 143.16 -33.4L56.84 -33.4Q51.37 -33.4 48.24 -29Q45.12 -24.61 45.12 -18.75Q45.12 -12.89 48.24 -8.5Q51.37 -4.1 56.84 -4.1ZM31.84 -41.6L68.16 -41.6Q73.63 -41.6 76.76 -46Q79.88 -50.39 79.88 -56.25Q79.88 -62.11 76.76 -66.5Q73.63 -70.9 68.16 -70.9L31.84 -70.9Q26.37 -70.9 23.24 -66.5Q20.12 -62.11 20.12 -56.25Q20.12 -50.39 23.24 -46Q26.37 -41.6 31.84 -41.6ZM131.84 -41.6L168.16 -41.6Q173.63 -41.6 176.76 -46Q179.88 -50.39 179.88 -56.25Q179.88 -62.11 176.76 -66.5Q173.63 -70.9 168.16 -70.9L131.84 -70.9Q126.37 -70.9 123.24 -66.5Q120.12 -62.11 120.12 -56.25Q120.12 -50.39 123.24 -46Q126.37 -41.6 131.84 -41.6ZM31.84 -79.1L68.16 -79.1Q73.63 -79.1 76.76 -83.5Q79.88 -87.89 79.88 -93.75Q79.88 -99.61 76.76 -104Q73.63 -108.4 68.16 -108.4L31.84 -108.4Q26.37 -108.4 23.24 -104Q20.12 -99.61 20.12 -93.75Q20.12 -87.89 23.24 -83.5Q26.37 -79.1 31.84 -79.1ZM31.84 -116.6L68.16 -116.6Q73.63 -116.6 76.76 -121Q79.88 -125.39 79.88 -131.25Q79.88 -137.11 76.76 -141.5Q73.63 -145.9 68.16 -145.9L31.84 -145.9Q26.37 -145.9 23.24 -141.5Q20.12 -137.11 20.12 -131.25Q20.12 -125.39 23.24 -121Q26.37 -116.6 31.84 -116.6ZM31.84 -154.1L68.16 -154.1Q73.63 -154.1 76.76 -158.5Q79.88 -162.89 79.88 -168.75Q79.88 -174.61 76.76 -179Q73.63 -183.4 68.16 -183.4L31.84 -183.4Q26.37 -183.4 23.24 -179Q20.12 -174.61 20.12 -168.75Q20.12 -162.89 23.24 -158.5Q26.37 -154.1 31.84 -154.1ZM31.84 -191.6L68.16 -191.6Q73.63 -191.6 76.76 -196Q79.88 -200.39 79.88 -206.25Q79.88 -212.11 76.76 -216.5Q73.63 -220.9 68.16 -220.9L31.84 -220.9Q26.37 -220.9 23.24 -216.5Q20.12 -212.11 20.12 -206.25Q20.12 -200.39 23.24 -196Q26.37 -191.6 31.84 -191.6ZM131.84 -191.6L168.16 -191.6Q173.63 -191.6 176.76 -196Q179.88 -200.39 179.88 -206.25Q179.88 -212.11 176.76 -216.5Q173.63 -220.9 168.16 -220.9L131.84 -220.9Q126.37 -220.9 123.24 -216.5Q120.12 -212.11 120.12 -206.25Q120.12 -200.39 123.24 -196Q126.37 -191.6 131.84 -191.6ZM56.84 -229.1L143.16 -229.1Q148.63 -229.1 151.76 -233.5Q154.88 -237.89 154.88 -243.75Q154.88 -249.61 151.76 -254Q148.63 -258.4 143.16 -258.4L56.84 -258.4Q51.37 -258.4 48.24 -254Q45.12 -249.61 45.12 -243.75Q45.12 -237.89 48.24 -233.5Q51.37 -229.1 56.84 -229.1ZM256.84 -4.1L343.16 -4.1Q348.63 -4.1 351.76 -8.5Q354.88 -12.89 354.88 -18.75Q354.88 -24.61 351.76 -29Q348.63 -33.4 343.16 -33.4L256.84 -33.4Q251.37 -33.4 248.24 -29Q245.12 -24.61 245.12 -18.75Q245.12 -12.89 248.24 -8.5Q251.37 -4.1 256.84 -4.1ZM231.84 -41.6L268.16 -41.6Q273.63 -41.6 276.76 -46Q279.88 -50.39 279.88 -56.25Q279.88 -62.11 276.76 -66.5Q273.63 -70.9 268.16 -70.9L231.84 -70.9Q226.37 -70.9 223.24 -66.5Q220.12 -62.11 220.12 -56.25Q220.12 -50.39 223.24 -46Q226.37 -41.6 231.84 -41.6ZM331.84 -41.6L368.16 -41.6Q373.63 -41.6 376.76 -46Q379.88 -50.39 379.88 -56.25Q379.88 -62.11 376.76 -66.5Q373.63 -70.9 368.16 -70.9L331.84 -70.9Q326.37 -70.9 323.24 -66.5Q320.12 -62.11 320.12 -56.25Q320.12 -50.39 323.24 -46Q326.37 -41.6 331.84 -41.6ZM231.84 -79.1L268.16 -79.1Q273.63 -79.1 276.76 -83.5Q279.88 -87.89 279.88 -93.75Q279.88 -99.61 276.76 -104Q273.63 -108.4 268.16 -108.4L231.84 -108.4Q226.37 -108.4 223.24 -104Q220.12 -99.61 220.12 -93.75Q220.12 -87.89 223.24 -83.5Q226.37 -79.1 231.84 -79.1ZM331.84 -79.1L368.16 -79.1Q373.63 -79.1 376.76 -83.5Q379.88 -87.89 379.88 -93.75Q379.88 -99.61 376.76 -104Q373.63 -108.4 368.16 -108.4L331.84 -108.4Q326.37 -108.4 323.24 -104Q320.12 -99.61 320.12 -93.75Q320.12 -87.89 323.24 -83.5Q326.37 -79.1 331.84 -79.1ZM231.84 -116.6L268.16 -116.6Q273.63 -116.6 276.76 -121Q279.88 -125.39 279.88 -131.25Q279.88 -137.11 276.76 -141.5Q273.63 -145.9 268.16 -145.9L231.84 -145.9Q226.37 -145.9 223.24 -141.5Q220.12 -137.11 220.12 -131.25Q220.12 -125.39 223.24 -121Q226.37 -116.6 231.84 -116.6ZM331.84 -116.6L368.16 -116.6Q373.63 -116.6 376.76 -121Q379.88 -125.39 379.88 -131.25Q379.88 -137.11 376.76 -141.5Q373.63 -145.9 368.16 -145.9L331.84 -145.9Q326.37 -145.9 323.24 -141.5Q320.12 -137.11 320.12 -131.25Q320.12 -125.39 323.24 -121Q326.37 -116.6 331.84 -116.6ZM231.84 -154.1L268.16 -154.1Q273.63 -154.1 276.76 -158.5Q279.88 -162.89 279.88 -168.75Q279.88 -174.61 276.76 -179Q273.63 -183.4 268.16 -183.4L231.84 -183.4Q226.37 -183.4 223.24 -179Q220.12 -174.61 220.12 -168.75Q220.12 -162.89 223.24 -158.5Q226.37 -154.1 231.84 -154.1ZM331.84 -154.1L368.16 -154.1Q373.63 -154.1 376.76 -158.5Q379.88 -162.89 379.88 -168.75Q379.88 -174.61 376.76 -179Q373.63 -183.4 368.16 -183.4L331.84 -183.4Q326.37 -183.4 323.24 -179Q320.12 -174.61 320.12 -168.75Q320.12 -162.89 323.24 -158.5Q326.37 -154.1 331.84 -154.1ZM231.84 -191.6L268.16 -191.6Q273.63 -191.6 276.76 -196Q279.88 -200.39 279.88 -206.25Q279.88 -212.11 276.76 -216.5Q273.63 -220.9 268.16 -220.9L231.84 -220.9Q226.37 -220.9 223.24 -216.5Q220.12 -212.11 220.12 -206.25Q220.12 -200.39 223.24 -196Q226.37 -191.6 231.84 -191.6ZM331.84 -191.6L368.16 -191.6Q373.63 -191.6 376.76 -196Q379.88 -200.39 379.88 -206.25Q379.88 -212.11 376.76 -216.5Q373.63 -220.9 368.16 -220.9L331.84 -220.9Q326.37 -220.9 323.24 -216.5Q320.12 -212.11 320.12 -206.25Q320.12 -200.39 323.24 -196Q326.37 -191.6 331.84 -191.6ZM256.84 -229.1L343.16 -229.1Q348.63 -229.1 351.76 -233.5Q354.88 -237.89 354.88 -243.75Q354.88 -249.61 351.76 -254Q348.63 -258.4 343.16 -258.4L256.84 -258.4Q251.37 -258.4 248.24 -254Q245.12 -249.61 245.12 -243.75Q245.12 -237.89 248.24 -233.5Q251.37 -229.1 256.84 -229.1ZM431.84 -4.1L468.16 -4.1Q473.63 -4.1 476.76 -8.5Q479.88 -12.89 479.88 -18.75Q479.88 -24.61 476.76 -29Q473.63 -33.4 468.16 -33.4L431.84 -33.4Q426.37 -33.4 423.24 -29Q420.12 -24.61 420.12 -18.75Q420.12 -12.89 423.24 -8.5Q426.37 -4.1 431.84 -4.1ZM556.84 -4.1L593.16 -4.1Q598.63 -4.1 601.76 -8.5Q604.88 -12.89 604.88 -18.75Q604.88 -24.61 601.76 -29Q598.63 -33.4 593.16 -33.4L556.84 -33.4Q551.37 -33.4 548.24 -29Q545.12 -24.61 545.12 -18.75Q545.12 -12.89 548.24 -8.5Q551.37 -4.1 556.84 -4.1ZM431.84 -41.6L468.16 -41.6Q473.63 -41.6 476.76 -46Q479.88 -50.39 479.88 -56.25Q479.88 -62.11 476.76 -66.5Q473.63 -70.9 468.16 -70.9L431.84 -70.9Q426.37 -70.9 423.24 -66.5Q420.12 -62.11 420.12 -56.25Q420.12 -50.39 423.24 -46Q426.37 -41.6 431.84 -41.6ZM556.84 -41.6L593.16 -41.6Q598.63 -41.6 601.76 -46Q604.88 -50.39 604.88 -56.25Q604.88 -62.11 601.76 -66.5Q598.63 -70.9 593.16 -70.9L556.84 -70.9Q551.37 -70.9 548.24 -66.5Q545.12 -62.11 545.12 -56.25Q545.12 -50.39 548.24 -46Q551.37 -41.6 556.84 -41.6ZM431.84 -79.1L468.16 -79.1Q473.63 -79.1 476.76 -83.5Q479.88 -87.89 479.88 -93.75Q479.88 -99.61 476.76 -104Q473.63 -108.4 468.16 -108.4L431.84 -108.4Q426.37 -108.4 423.24 -104Q420.12 -99.61 420.12 -93.75Q420.12 -87.89 423.24 -83.5Q426.37 -79.1 431.84 -79.1ZM556.84 -79.1L593.16 -79.1Q598.63 -79.1 601.76 -83.5Q604.88 -87.89 604.88 -93.75Q604.88 -99.61 601.76 -104Q598.63 -108.4 593.16 -108.4L556.84 -108.4Q551.37 -108.4 548.24 -104Q545.12 -99.61 545.12 -93.75Q545.12 -87.89 548.24 -83.5Q551.37 -79.1 556.84 -79.1ZM431.84 -116.6L468.16 -116.6Q473.63 -116.6 476.76 -121Q479.88 -125.39 479.88 -131.25Q479.88 -137.11 476.76 -141.5Q473.63 -145.9 468.16 -145.9L431.84 -145.9Q426.37 -145.9 423.24 -141.5Q420.12 -137.11 420.12 -131.25Q420.12 -125.39 423.24 -121Q426.37 -116.6 431.84 -116.6ZM505.08 -116.6L519.92 -116.6Q524.22 -116.6 527.05 -121Q529.88 -125.39 529.88 -131.25Q529.88 -137.11 527.05 -141.5Q524.22 -145.9 519.92 -145.9L505.08 -145.9Q500.78 -145.9 497.95 -141.5Q495.12 -137.11 495.12 -131.25Q495.12 -125.39 497.95 -121Q500.78 -116.6 505.08 -116.6ZM556.84 -116.6L593.16 -116.6Q598.63 -116.6 601.76 -121Q604.88 -125.39 604.88 -131.25Q604.88 -137.11 601.76 -141.5Q598.63 -145.9 593.16 -145.9L556.84 -145.9Q551.37 -145.9 548.24 -141.5Q545.12 -137.11 545.12 -131.25Q545.12 -125.39 548.24 -121Q551.37 -116.6 556.84 -116.6ZM431.84 -154.1L593.16 -154.1Q598.63 -154.1 601.76 -158.5Q604.88 -162.89 604.88 -168.75Q604.88 -174.61 601.76 -179Q598.63 -183.4 593.16 -183.4L431.84 -183.4Q426.37 -183.4 423.24 -179Q420.12 -174.61 420.12 -168.75Q420.12 -162.89 423.24 -158.5Q426.37 -154.1 431.84 -154.1ZM431.84 -191.6L493.16 -191.6Q498.63 -191.6 501.76 -196Q504.88 -200.39 504.88 -206.25Q504.88 -212.11 501.76 -216.5Q498.63 -220.9 493.16 -220.9L431.84 -220.9Q426.37 -220.9 423.24 -216.5Q420.12 -212.11 420.12 -206.25Q420.12 -200.39 423.24 -196Q426.37 -191.6 431.84 -191.6ZM531.84 -191.6L593.16 -191.6Q598.63 -191.6 601.76 -196Q604.88 -200.39 604.88 -206.25Q604.88 -212.11 601.76 -216.5Q598.63 -220.9 593.16 -220.9L531.84 -220.9Q526.37 -220.9 523.24 -216.5Q520.12 -212.11 520.12 -206.25Q520.12 -200.39 523.24 -196Q526.37 -191.6 531.84 -191.6ZM431.84 -229.1L468.16 -229.1Q473.63 -229.1 476.76 -233.5Q479.88 -237.89 479.88 -243.75Q479.88 -249.61 476.76 -254Q473.63 -258.4 468.16 -258.4L431.84 -258.4Q426.37 -258.4 423.24 -254Q420.12 -249.61 420.12 -243.75Q420.12 -237.89 423.24 -233.5Q426.37 -229.1 431.84 -229.1ZM556.84 -229.1L593.16 -229.1Q598.63 -229.1 601.76 -233.5Q604.88 -237.89 604.88 -243.75Q604.88 -249.61 601.76 -254Q598.63 -258.4 593.16 -258.4L556.84 -258.4Q551.37 -258.4 548.24 -254Q545.12 -249.61 545.12 -243.75Q545.12 -237.89 548.24 -233.5Q551.37 -229.1 556.84 -229.1ZM631.84 -4.1L668.16 -4.1Q673.63 -4.1 676.76 -8.5Q679.88 -12.89 679.88 -18.75Q679.88 -24.61 676.76 -29Q673.63 -33.4 668.16 -33.4L631.84 -33.4Q626.37 -33.4 623.24 -29Q620.12 -24.61 620.12 -18.75Q620.12 -12.89 623.24 -8.5Q626.37 -4.1 631.84 -4.1ZM731.84 -4.1L768.16 -4.1Q773.63 -4.1 776.76 -8.5Q779.88 -12.89 779.88 -18.75Q779.88 -24.61 776.76 -29Q773.63 -33.4 768.16 -33.4L731.84 -33.4Q726.37 -33.4 723.24 -29Q720.12 -24.61 720.12 -18.75Q720.12 -12.89 723.24 -8.5Q726.37 -4.1 731.84 -4.1ZM631.84 -41.6L668.16 -41.6Q673.63 -41.6 676.76 -46Q679.88 -50.39 679.88 -56.25Q679.88 -62.11 676.76 -66.5Q673.63 -70.9 668.16 -70.9L631.84 -70.9Q626.37 -70.9 623.24 -66.5Q620.12 -62.11 620.12 -56.25Q620.12 -50.39 623.24 -46Q626.37 -41.6 631.84 -41.6ZM706.84 -41.6L743.16 -41.6Q748.63 -41.6 751.76 -46Q754.88 -50.39 754.88 -56.25Q754.88 -62.11 751.76 -66.5Q748.63 -70.9 743.16 -70.9L706.84 -70.9Q701.37 -70.9 698.24 -66.5Q695.12 -62.11 695.12 -56.25Q695.12 -50.39 698.24 -46Q701.37 -41.6 706.84 -41.6ZM631.84 -79.1L718.16 -79.1Q723.63 -79.1 726.76 -83.5Q729.88 -87.89 729.88 -93.75Q729.88 -99.61 726.76 -104Q723.63 -108.4 718.16 -108.4L631.84 -108.4Q626.37 -108.4 623.24 -104Q620.12 -99.61 620.12 -93.75Q620.12 -87.89 623.24 -83.5Q626.37 -79.1 631.84 -79.1ZM631.84 -116.6L743.16 -116.6Q748.63 -116.6 751.76 -121Q754.88 -125.39 754.88 -131.25Q754.88 -137.11 751.76 -141.5Q748.63 -145.9 743.16 -145.9L631.84 -145.9Q626.37 -145.9 623.24 -141.5Q620.12 -137.11 620.12 -131.25Q620.12 -125.39 623.24 -121Q626.37 -116.6 631.84 -116.6ZM631.84 -154.1L668.16 -154.1Q673.63 -154.1 676.76 -158.5Q679.88 -162.89 679.88 -168.75Q679.88 -174.61 676.76 -179Q673.63 -183.4 668.16 -183.4L631.84 -183.4Q626.37 -183.4 623.24 -179Q620.12 -174.61 620.12 -168.75Q620.12 -162.89 623.24 -158.5Q626.37 -154.1 631.84 -154.1ZM731.84 -154.1L768.16 -154.1Q773.63 -154.1 776.76 -158.5Q779.88 -162.89 779.88 -168.75Q779.88 -174.61 776.76 -179Q773.63 -183.4 768.16 -183.4L731.84 -183.4Q726.37 -183.4 723.24 -179Q720.12 -174.61 720.12 -168.75Q720.12 -162.89 723.24 -158.5Q726.37 -154.1 731.84 -154.1ZM631.84 -191.6L668.16 -191.6Q673.63 -191.6 676.76 -196Q679.88 -200.39 679.88 -206.25Q679.88 -212.11 676.76 -216.5Q673.63 -220.9 668.16 -220.9L631.84 -220.9Q626.37 -220.9 623.24 -216.5Q620.12 -212.11 620.12 -206.25Q620.12 -200.39 623.24 -196Q626.37 -191.6 631.84 -191.6ZM731.84 -191.6L768.16 -191.6Q773.63 -191.6 776.76 -196Q779.88 -200.39 779.88 -206.25Q779.88 -212.11 776.76 -216.5Q773.63 -220.9 768.16 -220.9L731.84 -220.9Q726.37 -220.9 723.24 -216.5Q720.12 -212.11 720.12 -206.25Q720.12 -200.39 723.24 -196Q726.37 -191.6 731.84 -191.6ZM631.84 -229.1L743.16 -229.1Q748.63 -229.1 751.76 -233.5Q754.88 -237.89 754.88 -243.75Q754.88 -249.61 751.76 -254Q748.63 -258.4 743.16 -258.4L631.84 -258.4Q626.37 -258.4 623.24 -254Q620.12 -249.61 620.12 -243.75Q620.12 -237.89 623.24 -233.5Q626.37 -229.1 631.84 -229.1ZM831.84 -4.1L868.16 -4.1Q873.63 -4.1 876.76 -8.5Q879.88 -12.89 879.88 -18.75Q879.88 -24.61 876.76 -29Q873.63 -33.4 868.16 -33.4L831.84 -33.4Q826.37 -33.4 823.24 -29Q820.12 -24.61 820.12 -18.75Q820.12 -12.89 823.24 -8.5Q826.37 -4.1 831.84 -4.1ZM931.84 -4.1L968.16 -4.1Q973.63 -4.1 976.76 -8.5Q979.88 -12.89 979.88 -18.75Q979.88 -24.61 976.76 -29Q973.63 -33.4 968.16 -33.4L931.84 -33.4Q926.37 -33.4 923.24 -29Q920.12 -24.61 920.12 -18.75Q920.12 -12.89 923.24 -8.5Q926.37 -4.1 931.84 -4.1ZM831.84 -41.6L868.16 -41.6Q873.63 -41.6 876.76 -46Q879.88 -50.39 879.88 -56.25Q879.88 -62.11 876.76 -66.5Q873.63 -70.9 868.16 -70.9L831.84 -70.9Q826.37 -70.9 823.24 -66.5Q820.12 -62.11 820.12 -56.25Q820.12 -50.39 823.24 -46Q826.37 -41.6 831.84 -41.6ZM931.84 -41.6L968.16 -41.6Q973.63 -41.6 976.76 -46Q979.88 -50.39 979.88 -56.25Q979.88 -62.11 976.76 -66.5Q973.63 -70.9 968.16 -70.9L931.84 -70.9Q926.37 -70.9 923.24 -66.5Q920.12 -62.11 920.12 -56.25Q920.12 -50.39 923.24 -46Q926.37 -41.6 931.84 -41.6ZM831.84 -79.1L868.16 -79.1Q873.63 -79.1 876.76 -83.5Q879.88 -87.89 879.88 -93.75Q879.88 -99.61 876.76 -104Q873.63 -108.4 868.16 -108.4L831.84 -108.4Q826.37 -108.4 823.24 -104Q820.12 -99.61 820.12 -93.75Q820.12 -87.89 823.24 -83.5Q826.37 -79.1 831.84 -79.1ZM931.84 -79.1L968.16 -79.1Q973.63 -79.1 976.76 -83.5Q979.88 -87.89 979.88 -93.75Q979.88 -99.61 976.76 -104Q973.63 -108.4 968.16 -108.4L931.84 -108.4Q926.37 -108.4 923.24 -104Q920.12 -99.61 920.12 -93.75Q920.12 -87.89 923.24 -83.5Q926.37 -79.1 931.84 -79.1ZM831.84 -116.6L968.16 -116.6Q973.63 -116.6 976.76 -121Q979.88 -125.39 979.88 -131.25Q979.88 -137.11 976.76 -141.5Q973.63 -145.9 968.16 -145.9L831.84 -145.9Q826.37 -145.9 823.24 -141.5Q820.12 -137.11 820.12 -131.25Q820.12 -125.39 823.24 -121Q826.37 -116.6 831.84 -116.6ZM831.84 -154.1L868.16 -154.1Q873.63 -154.1 876.76 -158.5Q879.88 -162.89 879.88 -168.75Q879.88 -174.61 876.76 -179Q873.63 -183.4 868.16 -183.4L831.84 -183.4Q826.37 -183.4 823.24 -179Q820.12 -174.61 820.12 -168.75Q820.12 -162.89 823.24 -158.5Q826.37 -154.1 831.84 -154.1ZM931.84 -154.1L968.16 -154.1Q973.63 -154.1 976.76 -158.5Q979.88 -162.89 979.88 -168.75Q979.88 -174.61 976.76 -179Q973.63 -183.4 968.16 -183.4L931.84 -183.4Q926.37 -183.4 923.24 -179Q920.12 -174.61 920.12 -168.75Q920.12 -162.89 923.24 -158.5Q926.37 -154.1 931.84 -154.1ZM856.84 -191.6L943.16 -191.6Q948.63 -191.6 951.76 -196Q954.88 -200.39 954.88 -206.25Q954.88 -212.11 951.76 -216.5Q948.63 -220.9 943.16 -220.9L856.84 -220.9Q851.37 -220.9 848.24 -216.5Q845.12 -212.11 845.12 -206.25Q845.12 -200.39 848.24 -196Q851.37 -191.6 856.84 -191.6ZM881.84 -229.1L918.16 -229.1Q923.63 -229.1 926.76 -233.5Q929.88 -237.89 929.88 -243.75Q929.88 -249.61 926.76 -254Q923.63 -258.4 918.16 -258.4L881.84 -258.4Q876.37 -258.4 873.24 -254Q870.12 -249.61 870.12 -243.75Q870.12 -237.89 873.24 -233.5Q876.37 -229.1 881.84 -229.1ZM1031.84 -4.1L1118.16 -4.1Q1123.63 -4.1 1126.76 -8.5Q1129.88 -12.89 1129.88 -18.75Q1129.88 -24.61 1126.76 -29Q1123.63 -33.4 1118.16 -33.4L1031.84 -33.4Q1026.37 -33.4 1023.24 -29Q1020.12 -24.61 1020.12 -18.75Q1020.12 -12.89 1023.24 -8.5Q1026.37 -4.1 1031.84 -4.1ZM1031.84 -41.6L1068.16 -41.6Q1073.63 -41.6 1076.76 -46Q1079.88 -50.39 1079.88 -56.25Q1079.88 -62.11 1076.76 -66.5Q1073.63 -70.9 1068.16 -70.9L1031.84 -70.9Q1026.37 -70.9 1023.24 -66.5Q1020.12 -62.11 1020.12 -56.25Q1020.12 -50.39 1023.24 -46Q1026.37 -41.6 1031.84 -41.6ZM1106.84 -41.6L1143.16 -41.6Q1148.63 -41.6 1151.76 -46Q1154.88 -50.39 1154.88 -56.25Q1154.88 -62.11 1151.76 -66.5Q1148.63 -70.9 1143.16 -70.9L1106.84 -70.9Q1101.37 -70.9 1098.24 -66.5Q1095.12 -62.11 1095.12 -56.25Q1095.12 -50.39 1098.24 -46Q1101.37 -41.6 1106.84 -41.6ZM1031.84 -79.1L1068.16 -79.1Q1073.63 -79.1 1076.76 -83.5Q1079.88 -87.89 1079.88 -93.75Q1079.88 -99.61 1076.76 -104Q1073.63 -108.4 1068.16 -108.4L1031.84 -108.4Q1026.37 -108.4 1023.24 -104Q1020.12 -99.61 1020.12 -93.75Q1020.12 -87.89 1023.24 -83.5Q1026.37 -79.1 1031.84 -79.1ZM1131.84 -79.1L1168.16 -79.1Q1173.63 -79.1 1176.76 -83.5Q1179.88 -87.89 1179.88 -93.75Q1179.88 -99.61 1176.76 -104Q1173.63 -108.4 1168.16 -108.4L1131.84 -108.4Q1126.37 -108.4 1123.24 -104Q1120.12 -99.61 1120.12 -93.75Q1120.12 -87.89 1123.24 -83.5Q1126.37 -79.1 1131.84 -79.1ZM1031.84 -116.6L1068.16 -116.6Q1073.63 -116.6 1076.76 -121Q1079.88 -125.39 1079.88 -131.25Q1079.88 -137.11 1076.76 -141.5Q1073.63 -145.9 1068.16 -145.9L1031.84 -145.9Q1026.37 -145.9 1023.24 -141.5Q1020.12 -137.11 1020.12 -131.25Q1020.12 -125.39 1023.24 -121Q1026.37 -116.6 1031.84 -116.6ZM1131.84 -116.6L1168.16 -116.6Q1173.63 -116.6 1176.76 -121Q1179.88 -125.39 1179.88 -131.25Q1179.88 -137.11 1176.76 -141.5Q1173.63 -145.9 1168.16 -145.9L1131.84 -145.9Q1126.37 -145.9 1123.24 -141.5Q1120.12 -137.11 1120.12 -131.25Q1120.12 -125.39 1123.24 -121Q1126.37 -116.6 1131.84 -116.6ZM1031.84 -154.1L1068.16 -154.1Q1073.63 -154.1 1076.76 -158.5Q1079.88 -162.89 1079.88 -168.75Q1079.88 -174.61 1076.76 -179Q1073.63 -183.4 1068.16 -183.4L1031.84 -183.4Q1026.37 -183.4 1023.24 -179Q1020.12 -174.61 1020.12 -168.75Q1020.12 -162.89 1023.24 -158.5Q1026.37 -154.1 1031.84 -154.1ZM1131.84 -154.1L1168.16 -154.1Q1173.63 -154.1 1176.76 -158.5Q1179.88 -162.89 1179.88 -168.75Q1179.88 -174.61 1176.76 -179Q1173.63 -183.4 1168.16 -183.4L1131.84 -183.4Q1126.37 -183.4 1123.24 -179Q1120.12 -174.61 1120.12 -168.75Q1120.12 -162.89 1123.24 -158.5Q1126.37 -154.1 1131.84 -154.1ZM1031.84 -191.6L1068.16 -191.6Q1073.63 -191.6 1076.76 -196Q1079.88 -200.39 1079.88 -206.25Q1079.88 -212.11 1076.76 -216.5Q1073.63 -220.9 1068.16 -220.9L1031.84 -220.9Q1026.37 -220.9 1023.24 -216.5Q1020.12 -212.11 1020.12 -206.25Q1020.12 -200.39 1023.24 -196Q1026.37 -191.6 1031.84 -191.6ZM1106.84 -191.6L1143.16 -191.6Q1148.63 -191.6 1151.76 -196Q1154.88 -200.39 1154.88 -206.25Q1154.88 -212.11 1151.76 -216.5Q1148.63 -220.9 1143.16 -220.9L1106.84 -220.9Q1101.37 -220.9 1098.24 -216.5Q1095.12 -212.11 1095.12 -206.25Q1095.12 -200.39 1098.24 -196Q1101.37 -191.6 1106.84 -191.6ZM1031.84 -229.1L1118.16 -229.1Q1123.63 -229.1 1126.76 -233.5Q1129.88 -237.89 1129.88 -243.75Q1129.88 -249.61 1126.76 -254Q1123.63 -258.4 1118.16 -258.4L1031.84 -258.4Q1026.37 -258.4 1023.24 -254Q1020.12 -249.61 1020.12 -243.75Q1020.12 -237.89 1023.24 -233.5Q1026.37 -229.1 1031.84 -229.1ZM1231.84 -4.1L1368.16 -4.1Q1373.63 -4.1 1376.76 -8.5Q1379.88 -12.89 1379.88 -18.75Q1379.88 -24.61 1376.76 -29Q1373.63 -33.4 1368.16 -33.4L1231.84 -33.4Q1226.37 -33.4 1223.24 -29Q1220.12 -24.61 1220.12 -18.75Q1220.12 -12.89 1223.24 -8.5Q1226.37 -4.1 1231.84 -4.1ZM1231.84 -41.6L1268.16 -41.6Q1273.63 -41.6 1276.76 -46Q1279.88 -50.39 1279.88 -56.25Q1279.88 -62.11 1276.76 -66.5Q1273.63 -70.9 1268.16 -70.9L1231.84 -70.9Q1226.37 -70.9 1223.24 -66.5Q1220.12 -62.11 1220.12 -56.25Q1220.12 -50.39 1223.24 -46Q1226.37 -41.6 1231.84 -41.6ZM1231.84 -79.1L1268.16 -79.1Q1273.63 -79.1 1276.76 -83.5Q1279.88 -87.89 1279.88 -93.75Q1279.88 -99.61 1276.76 -104Q1273.63 -108.4 1268.16 -108.4L1231.84 -108.4Q1226.37 -108.4 1223.24 -104Q1220.12 -99.61 1220.12 -93.75Q1220.12 -87.89 1223.24 -83.5Q1226.37 -79.1 1231.84 -79.1ZM1231.84 -116.6L1318.16 -116.6Q1323.63 -116.6 1326.76 -121Q1329.88 -125.39 1329.88 -131.25Q1329.88 -137.11 1326.76 -141.5Q1323.63 -145.9 1318.16 -145.9L1231.84 -145.9Q1226.37 -145.9 1223.24 -141.5Q1220.12 -137.11 1220.12 -131.25Q1220.12 -125.39 1223.24 -121Q1226.37 -116.6 1231.84 -116.6ZM1231.84 -154.1L1268.16 -154.1Q1273.63 -154.1 1276.76 -158.5Q1279.88 -162.89 1279.88 -168.75Q1279.88 -174.61 1276.76 -179Q1273.63 -183.4 1268.16 -183.4L1231.84 -183.4Q1226.37 -183.4 1223.24 -179Q1220.12 -174.61 1220.12 -168.75Q1220.12 -162.89 1223.24 -158.5Q1226.37 -154.1 1231.84 -154.1ZM1231.84 -191.6L1268.16 -191.6Q1273.63 -191.6 1276.76 -196Q1279.88 -200.39 1279.88 -206.25Q1279.88 -212.11 1276.76 -216.5Q1273.63 -220.9 1268.16 -220.9L1231.84 -220.9Q1226.37 -220.9 1223.24 -216.5Q1220.12 -212.11 1220.12 -206.25Q1220.12 -200.39 1223.24 -196Q1226.37 -191.6 1231.84 -191.6ZM1231.84 -229.1L1368.16 -229.1Q1373.63 -229.1 1376.76 -233.5Q1379.88 -237.89 1379.88 -243.75Q1379.88 -249.61 1376.76 -254Q1373.63 -258.4 1368.16 -258.4L1231.84 -258.4Q1226.37 -258.4 1223.24 -254Q1220.12 -249.61 1220.12 -243.75Q1220.12 -237.89 1223.24 -233.5Q1226.37 -229.1 1231.84 -229.1Z" fill="#333333" transform="translate(9.88,288.4)"/>
</svg>
