<svg version="1.2" xmlns="http://www.w3.org/2000/svg" viewBox="0 0 904 270" width="904" height="270">
	<style>
		.s0 { fill: #333333 } 
	</style>
	<path class="s0" d="m46.97 208.33l-0.2 0.31h-0.2q-3 0-5.5-1.1-2.5-1.1-4.59-3.45-2.1-2.35-3.6-5.64-1.5-3.3-2.2-7.23-0.7-3.92-0.7-8.62v-0.31l0.2-0.32h16.79zm-0.8 0v-26.36h16.79l0.2 0.32v0.31q0 4.7-0.7 8.62-0.7 3.93-2.2 7.22-1.5 3.29-3.6 5.65-2.1 2.35-4.59 3.45-2.5 1.1-5.5 1.1h-0.2zm0-51.47l0.2-0.31h0.2q3 0 5.5 1.1 2.49 1.1 4.59 3.45 2.1 2.36 3.6 5.65 1.5 3.29 2.2 7.21 0.7 3.93 0.7 8.64v0.31l-0.2 0.31h-16.79zm0.8 0v26.37h-16.79l-0.2-0.32v-0.31q0-4.71 0.7-8.64 0.7-3.91 2.2-7.21 1.5-3.29 3.6-5.65 2.09-2.35 4.59-3.45 2.5-1.09 5.5-1.09h0.2zm2.8 20.08l-0.2 0.31h-0.2q-3 0-5.5-1.1-2.5-1.1-4.6-3.45-2.09-2.35-3.59-5.64-1.5-3.3-2.2-7.23-0.7-3.91-0.7-8.62v-0.31l0.2-0.32h16.79zm-0.8 0v-26.36h16.79l0.2 0.32v0.31q0 4.7-0.7 8.62-0.7 3.93-2.2 7.23-1.5 3.28-3.6 5.64-2.1 2.35-4.6 3.45-2.49 1.1-5.49 1.1h-0.2zm0-51.47l0.2-0.31h0.2q3 0 5.49 1.1 2.5 1.1 4.6 3.45 2.1 2.36 3.6 5.65 1.5 3.29 2.2 7.21 0.7 3.93 0.7 8.64v0.31l-0.2 0.32h-16.79zm0.8 0v26.36h-16.79l-0.2-0.32v-0.31q0-4.71 0.7-8.64 0.7-3.91 2.2-7.21 1.5-3.29 3.59-5.65 2.1-2.35 4.6-3.44 2.5-1.1 5.5-1.1h0.2zm2.8 20.08l-0.2 0.31h-0.2q-3 0-5.5-1.1-2.5-1.1-4.6-3.44-2.1-2.36-3.6-5.65-1.49-3.3-2.19-7.23-0.7-3.91-0.7-8.62v-0.31l0.2-0.32h16.79zm-0.8 0v-26.36h16.78l0.2 0.32v0.31q0 4.7-0.7 8.62-0.69 3.93-2.19 7.23-1.5 3.28-3.6 5.64-2.1 2.35-4.6 3.45-2.5 1.1-5.49 1.1h-0.2zm0-51.47l0.2-0.31h0.2q2.99 0 5.49 1.1 2.5 1.1 4.6 3.45 2.1 2.36 3.6 5.65 1.5 3.3 2.19 7.21 0.7 3.93 0.7 8.64v0.31l-0.2 0.32h-16.78zm0.79 0v26.36h-16.78l-0.2-0.32v-0.31q0-4.71 0.7-8.63 0.7-3.92 2.19-7.22 1.5-3.29 3.6-5.65 2.1-2.34 4.6-3.44 2.5-1.1 5.5-1.1h0.2zm2.79 20.08l-0.2 0.31h-0.2q-2.99 0-5.49-1.1-2.5-1.1-4.6-3.44-2.1-2.36-3.6-5.65-1.5-3.3-2.2-7.23-0.7-3.91-0.7-8.62v-0.31l0.2-0.32h16.79zm-0.8 0v-26.36h16.79l0.2 0.32v0.31q0 4.7-0.7 8.62-0.7 3.93-2.2 7.23-1.49 3.29-3.59 5.64-2.1 2.35-4.6 3.45-2.5 1.1-5.5 1.1h-0.2zm0-51.47l0.2-0.31h0.2q3 0 5.5 1.1 2.5 1.1 4.6 3.45 2.1 2.36 3.59 5.65 1.5 3.3 2.2 7.21 0.7 3.93 0.7 8.64v0.31l-0.2 0.32h-16.79zm0.8 0v26.36h-16.79l-0.2-0.32v-0.31q0-4.71 0.7-8.63 0.7-3.92 2.2-7.22 1.5-3.29 3.6-5.65 2.1-2.34 4.6-3.44 2.5-1.1 5.49-1.1h0.2zm8.8 176.98l-0.2 0.31h-0.2q-3 0-5.5-1.1-2.5-1.1-4.6-3.45-2.09-2.36-3.59-5.64-1.5-3.3-2.2-7.23-0.7-3.92-0.7-8.62v-0.31l0.2-0.32h16.79zm-0.8 0v-26.36h16.79l0.2 0.31v0.31q0 4.71-0.7 8.63-0.7 3.93-2.2 7.22-1.5 3.29-3.6 5.65-2.1 2.35-4.6 3.45-2.49 1.1-5.49 1.1h-0.2zm0-51.47l0.2-0.31h0.2q3 0 5.49 1.1 2.5 1.1 4.6 3.45 2.1 2.36 3.6 5.64 1.5 3.3 2.2 7.22 0.7 3.93 0.7 8.63v0.31l-0.2 0.32h-16.79zm0.8 0v26.37h-16.79l-0.2-0.32v-0.31q0-4.71 0.7-8.64 0.7-3.91 2.2-7.21 1.5-3.29 3.59-5.65 2.1-2.35 4.6-3.45 2.5-1.1 5.5-1.1h0.2zm13.99-105.43l-0.2 0.31h-0.2q-3 0-5.5-1.1-2.5-1.09-4.59-3.44-2.1-2.36-3.6-5.65-1.5-3.3-2.2-7.22-0.7-3.92-0.7-8.63v-0.31l0.2-0.32h16.79zm-0.8 0v-26.36h16.79l0.2 0.32v0.31q0 4.71-0.7 8.62-0.7 3.93-2.2 7.23-1.5 3.29-3.6 5.64-2.1 2.35-4.6 3.45-2.49 1.1-5.49 1.1h-0.2zm0-51.46l0.2-0.31h0.2q3 0 5.49 1.1 2.5 1.09 4.6 3.44 2.1 2.36 3.6 5.65 1.5 3.3 2.2 7.21 0.7 3.93 0.7 8.64v0.31l-0.2 0.32h-16.79zm0.8 0v26.36h-16.79l-0.2-0.32v-0.31q0-4.71 0.7-8.63 0.7-3.92 2.2-7.22 1.5-3.29 3.59-5.64 2.1-2.35 4.6-3.45 2.5-1.1 5.5-1.1h0.2zm5.99 208.36l-0.2 0.31h-0.2q-2.99 0-5.49-1.1-2.5-1.1-4.6-3.45-2.1-2.36-3.6-5.64-1.5-3.3-2.2-7.23-0.69-3.92-0.69-8.62v-0.31l0.2-0.32h16.78zm-0.8 0v-26.36h16.79l0.2 0.31v0.31q0 4.71-0.7 8.63-0.7 3.93-2.19 7.22-1.5 3.29-3.6 5.65-2.1 2.35-4.6 3.45-2.5 1.1-5.5 1.1h-0.2zm0-51.47l0.2-0.31h0.2q3 0 5.5 1.1 2.5 1.1 4.6 3.45 2.1 2.36 3.6 5.64 1.49 3.3 2.19 7.22 0.7 3.93 0.7 8.63v0.31l-0.2 0.32h-16.79zm0.8 0v26.37h-16.78l-0.2-0.32v-0.31q0-4.71 0.69-8.64 0.7-3.91 2.2-7.21 1.5-3.29 3.6-5.65 2.1-2.35 4.6-3.45 2.5-1.1 5.49-1.1h0.2zm13.99-105.43l-0.19 0.31h-0.2q-3 0-5.5-1.1-2.5-1.09-4.6-3.44-2.1-2.36-3.6-5.65-1.49-3.3-2.19-7.22-0.7-3.92-0.7-8.63v-0.31l0.2-0.32h16.78zm-0.79 0v-26.36h16.78l0.2 0.32v0.31q0 4.71-0.7 8.62-0.69 3.93-2.19 7.23-1.5 3.29-3.6 5.64-2.1 2.35-4.6 3.45-2.5 1.1-5.49 1.1h-0.2zm0-51.46l0.2-0.31h0.2q2.99 0 5.49 1.1 2.5 1.09 4.6 3.44 2.1 2.36 3.6 5.65 1.49 3.3 2.19 7.21 0.7 3.93 0.7 8.64v0.31l-0.2 0.32h-16.78zm0.79 0v26.36h-16.78l-0.2-0.32v-0.31q0-4.71 0.7-8.63 0.7-3.92 2.19-7.22 1.5-3.29 3.6-5.64 2.1-2.35 4.6-3.45 2.5-1.1 5.5-1.1h0.19zm6 208.36l-0.2 0.31h-0.2q-3 0-5.5-1.1-2.49-1.1-4.59-3.45-2.1-2.36-3.6-5.64-1.5-3.3-2.2-7.23-0.7-3.92-0.7-8.62v-0.31l0.2-0.32h16.79zm-0.8 0v-26.36h16.79l0.2 0.31v0.31q0 4.71-0.7 8.63-0.7 3.93-2.2 7.22-1.5 3.29-3.6 5.65-2.09 2.35-4.59 3.45-2.5 1.1-5.5 1.1h-0.2zm0-51.47l0.2-0.31h0.2q3 0 5.5 1.1 2.5 1.1 4.59 3.45 2.1 2.36 3.6 5.64 1.5 3.3 2.2 7.22 0.7 3.93 0.7 8.63v0.31l-0.2 0.32h-16.79zm0.8 0v26.37h-16.79l-0.2-0.32v-0.31q0-4.71 0.7-8.64 0.7-3.91 2.2-7.21 1.5-3.29 3.6-5.65 2.1-2.35 4.59-3.45 2.5-1.1 5.5-1.1h0.2zm13.99-105.43l-0.2 0.31h-0.2q-3 0-5.49-1.1-2.5-1.09-4.6-3.44-2.1-2.36-3.6-5.65-1.5-3.3-2.2-7.22-0.7-3.92-0.7-8.63v-0.31l0.2-0.32h16.79zm-0.8 0v-26.36h16.79l0.2 0.32v0.31q0 4.71-0.7 8.62-0.7 3.93-2.2 7.23-1.5 3.29-3.59 5.64-2.1 2.35-4.6 3.45-2.5 1.1-5.5 1.1h-0.2zm0-51.46l0.2-0.31h0.2q3 0 5.5 1.1 2.5 1.09 4.6 3.44 2.09 2.36 3.59 5.65 1.5 3.3 2.2 7.21 0.7 3.93 0.7 8.64v0.31l-0.2 0.32h-16.79zm0.8 0v26.36h-16.79l-0.2-0.32v-0.31q0-4.71 0.7-8.63 0.7-3.92 2.2-7.22 1.5-3.29 3.6-5.64 2.1-2.35 4.6-3.45 2.49-1.1 5.49-1.1h0.2zm8.8 176.98l-0.2 0.31h-0.2q-3 0-5.5-1.1-2.5-1.1-4.6-3.45-2.1-2.35-3.59-5.64-1.5-3.3-2.2-7.23-0.7-3.92-0.7-8.62v-0.31l0.2-0.32h16.79zm-0.8 0v-26.36h16.79l0.2 0.32v0.31q0 4.7-0.7 8.62-0.7 3.93-2.2 7.22-1.5 3.29-3.6 5.65-2.1 2.35-4.6 3.45-2.5 1.1-5.49 1.1h-0.2zm0-51.47l0.2-0.31h0.2q2.99 0 5.49 1.1 2.5 1.1 4.6 3.45 2.1 2.36 3.6 5.65 1.5 3.29 2.2 7.21 0.69 3.93 0.69 8.64v0.31l-0.19 0.31h-16.79zm0.8 0v26.37h-16.79l-0.2-0.32v-0.31q0-4.71 0.7-8.64 0.7-3.91 2.2-7.21 1.49-3.29 3.59-5.65 2.1-2.35 4.6-3.45 2.5-1.09 5.5-1.09h0.2zm8.39-42.68l-0.2 0.31h-0.2q-3 0-5.5-1.1-2.49-1.1-4.59-3.44-2.1-2.36-3.6-5.65-1.5-3.3-2.2-7.23-0.7-3.91-0.7-8.62v-0.31l0.2-0.32h16.79zm-0.8 0v-26.36h16.79l0.2 0.32v0.31q0 4.7-0.7 8.62-0.7 3.93-2.2 7.23-1.5 3.29-3.6 5.64-2.09 2.35-4.59 3.45-2.5 1.1-5.5 1.1h-0.2zm0-51.47l0.2-0.31h0.2q3 0 5.5 1.1 2.5 1.1 4.59 3.45 2.1 2.36 3.6 5.65 1.5 3.3 2.2 7.21 0.7 3.93 0.7 8.64v0.31l-0.2 0.32h-16.79zm0.8 0v26.36h-16.79l-0.2-0.32v-0.31q0-4.71 0.7-8.63 0.7-3.92 2.2-7.22 1.5-3.29 3.6-5.65 2.1-2.34 4.59-3.44 2.5-1.1 5.5-1.1h0.2zm31.58 145.6l-0.2 0.31h-0.2q-3 0-5.5-1.1-2.5-1.1-4.59-3.45-2.1-2.35-3.6-5.64-1.5-3.3-2.2-7.23-0.7-3.92-0.7-8.62v-0.31l0.2-0.32h16.79zm-0.8 0v-26.36h16.79l0.2 0.32v0.31q0 4.7-0.7 8.62-0.7 3.93-2.2 7.22-1.5 3.29-3.6 5.65-2.1 2.35-4.59 3.45-2.5 1.1-5.5 1.1h-0.2zm0-51.47l0.2-0.31h0.2q3 0 5.5 1.1 2.49 1.1 4.59 3.45 2.1 2.36 3.6 5.65 1.5 3.29 2.2 7.21 0.7 3.93 0.7 8.64v0.31l-0.2 0.31h-16.79zm0.8 0v26.37h-16.79l-0.2-0.32v-0.31q0-4.71 0.7-8.64 0.7-3.91 2.2-7.21 1.5-3.29 3.6-5.65 2.09-2.35 4.59-3.45 2.5-1.09 5.5-1.09h0.2zm2.8 20.08l-0.2 0.31h-0.2q-3 0-5.5-1.1-2.5-1.1-4.6-3.45-2.09-2.35-3.59-5.64-1.5-3.3-2.2-7.23-0.7-3.91-0.7-8.62v-0.31l0.2-0.32h16.79zm-0.8 0v-26.36h16.79l0.2 0.32v0.31q0 4.7-0.7 8.62-0.7 3.93-2.2 7.23-1.5 3.28-3.6 5.64-2.1 2.35-4.6 3.45-2.49 1.1-5.49 1.1h-0.2zm0-51.47l0.2-0.31h0.2q3 0 5.49 1.1 2.5 1.1 4.6 3.45 2.1 2.36 3.6 5.65 1.5 3.29 2.2 7.21 0.7 3.93 0.7 8.64v0.31l-0.2 0.32h-16.79zm0.8 0v26.36h-16.79l-0.2-0.32v-0.31q0-4.71 0.7-8.64 0.7-3.91 2.2-7.21 1.5-3.29 3.59-5.65 2.1-2.35 4.6-3.44 2.5-1.1 5.5-1.1h0.2zm2.8 20.08l-0.2 0.31h-0.2q-3 0-5.5-1.1-2.5-1.1-4.6-3.44-2.1-2.36-3.6-5.65-1.49-3.3-2.19-7.23-0.7-3.91-0.7-8.62v-0.31l0.2-0.32h16.79zm-0.8 0v-26.36h16.78l0.2 0.32v0.31q0 4.7-0.69 8.62-0.7 3.93-2.2 7.23-1.5 3.28-3.6 5.64-2.1 2.35-4.6 3.45-2.5 1.1-5.49 1.1h-0.2zm0-51.47l0.2-0.31h0.2q2.99 0 5.49 1.1 2.5 1.1 4.6 3.45 2.1 2.36 3.6 5.65 1.5 3.3 2.2 7.21 0.69 3.93 0.69 8.64v0.31l-0.2 0.32h-16.78zm0.8 0v26.36h-16.79l-0.2-0.32v-0.31q0-4.71 0.7-8.63 0.7-3.92 2.19-7.22 1.5-3.29 3.6-5.65 2.1-2.34 4.6-3.44 2.5-1.1 5.5-1.1h0.2zm2.79 20.08l-0.2 0.31h-0.2q-2.99 0-5.49-1.1-2.5-1.1-4.6-3.44-2.1-2.36-3.6-5.65-1.5-3.3-2.2-7.23-0.7-3.91-0.7-8.62v-0.31l0.2-0.32h16.79zm-0.8 0v-26.36h16.79l0.2 0.32v0.31q0 4.7-0.7 8.62-0.7 3.93-2.2 7.23-1.49 3.29-3.59 5.64-2.1 2.35-4.6 3.45-2.5 1.1-5.5 1.1h-0.2zm0-51.47l0.2-0.31h0.2q3 0 5.5 1.1 2.5 1.1 4.6 3.45 2.1 2.36 3.59 5.65 1.5 3.3 2.2 7.21 0.7 3.93 0.7 8.64v0.31l-0.2 0.32h-16.79zm0.8 0v26.36h-16.79l-0.2-0.32v-0.31q0-4.71 0.7-8.63 0.7-3.92 2.2-7.22 1.5-3.29 3.6-5.65 2.1-2.34 4.6-3.44 2.5-1.1 5.49-1.1h0.2zm8.8 176.98l-0.2 0.31h-0.2q-3 0-5.5-1.1-2.5-1.1-4.6-3.45-2.09-2.36-3.59-5.64-1.5-3.3-2.2-7.23-0.7-3.92-0.7-8.62v-0.31l0.2-0.32h16.79zm-0.8 0v-26.36h16.79l0.2 0.31v0.31q0 4.71-0.7 8.63-0.7 3.93-2.2 7.22-1.5 3.29-3.6 5.65-2.1 2.35-4.6 3.45-2.49 1.1-5.49 1.1h-0.2zm0-51.47l0.2-0.31h0.2q3 0 5.49 1.1 2.5 1.1 4.6 3.45 2.1 2.36 3.6 5.64 1.5 3.3 2.2 7.22 0.7 3.93 0.7 8.63v0.31l-0.2 0.32h-16.79zm0.8 0v26.37h-16.79l-0.2-0.32v-0.31q0-4.71 0.7-8.64 0.7-3.91 2.2-7.21 1.5-3.29 3.59-5.65 2.1-2.35 4.6-3.45 2.5-1.1 5.5-1.1h0.2zm13.99-105.43l-0.2 0.31h-0.2q-3 0-5.5-1.1-2.5-1.09-4.59-3.44-2.1-2.36-3.6-5.65-1.5-3.3-2.2-7.22-0.7-3.92-0.7-8.63v-0.31l0.2-0.32h16.79zm-0.8 0v-26.36h16.79l0.2 0.32v0.31q0 4.71-0.7 8.62-0.7 3.93-2.2 7.23-1.5 3.29-3.6 5.64-2.1 2.35-4.59 3.45-2.5 1.1-5.5 1.1h-0.2zm0-51.46l0.2-0.31h0.2q3 0 5.5 1.1 2.49 1.09 4.59 3.44 2.1 2.36 3.6 5.65 1.5 3.3 2.2 7.21 0.7 3.93 0.7 8.64v0.31l-0.2 0.32h-16.79zm0.8 0v26.36h-16.79l-0.2-0.32v-0.31q0-4.71 0.7-8.63 0.7-3.92 2.2-7.22 1.5-3.29 3.6-5.64 2.09-2.35 4.59-3.45 2.5-1.1 5.5-1.1h0.2zm5.99 208.36l-0.2 0.31h-0.2q-2.99 0-5.49-1.1-2.5-1.1-4.6-3.45-2.1-2.36-3.6-5.64-1.5-3.3-2.19-7.23-0.7-3.92-0.7-8.62v-0.31l0.2-0.32h16.78zm-0.79 0v-26.36h16.78l0.2 0.31v0.31q0 4.71-0.7 8.63-0.7 3.93-2.19 7.22-1.5 3.29-3.6 5.65-2.1 2.35-4.6 3.45-2.5 1.1-5.5 1.1h-0.19zm0-51.47l0.19-0.31h0.2q3 0 5.5 1.1 2.5 1.1 4.6 3.45 2.1 2.36 3.6 5.64 1.49 3.3 2.19 7.22 0.7 3.93 0.7 8.63v0.31l-0.2 0.32h-16.78zm0.79 0v26.37h-16.78l-0.2-0.32v-0.31q0-4.71 0.7-8.64 0.69-3.91 2.19-7.21 1.5-3.29 3.6-5.65 2.1-2.35 4.6-3.45 2.5-1.1 5.49-1.1h0.2zm14-105.43l-0.2 0.31h-0.2q-3 0-5.5-1.1-2.5-1.09-4.6-3.44-2.1-2.36-3.6-5.65-1.49-3.3-2.19-7.22-0.7-3.92-0.7-8.63v-0.31l0.2-0.32h16.79zm-0.8 0v-26.36h16.78l0.2 0.32v0.31q0 4.71-0.69 8.62-0.7 3.93-2.2 7.23-1.5 3.29-3.6 5.64-2.1 2.35-4.6 3.45-2.5 1.1-5.49 1.1h-0.2zm0-51.46l0.2-0.31h0.2q2.99 0 5.49 1.1 2.5 1.09 4.6 3.44 2.1 2.36 3.6 5.65 1.5 3.3 2.19 7.21 0.7 3.93 0.7 8.64v0.31l-0.2 0.32h-16.78zm0.8 0v26.36h-16.79l-0.2-0.32v-0.31q0-4.71 0.7-8.63 0.7-3.92 2.19-7.22 1.5-3.29 3.6-5.64 2.1-2.35 4.6-3.45 2.5-1.1 5.5-1.1h0.2zm5.99 208.36l-0.2 0.31h-0.2q-3 0-5.49-1.1-2.5-1.1-4.6-3.45-2.1-2.36-3.6-5.64-1.5-3.3-2.2-7.23-0.7-3.92-0.7-8.62v-0.31l0.2-0.32h16.79zm-0.8 0v-26.36h16.79l0.2 0.31v0.31q0 4.71-0.7 8.63-0.7 3.93-2.2 7.22-1.5 3.29-3.6 5.65-2.09 2.35-4.59 3.45-2.5 1.1-5.5 1.1h-0.2zm0-51.47l0.2-0.31h0.2q3 0 5.5 1.1 2.5 1.1 4.59 3.45 2.1 2.36 3.6 5.64 1.5 3.3 2.2 7.22 0.7 3.93 0.7 8.63v0.31l-0.2 0.32h-16.79zm0.8 0v26.37h-16.79l-0.2-0.32v-0.31q0-4.71 0.7-8.64 0.7-3.91 2.2-7.21 1.5-3.29 3.6-5.65 2.1-2.35 4.6-3.45 2.49-1.1 5.49-1.1h0.2zm13.99-105.43l-0.2 0.31h-0.2q-3 0-5.49-1.1-2.5-1.09-4.6-3.44-2.1-2.36-3.6-5.65-1.5-3.3-2.2-7.22-0.7-3.92-0.7-8.63v-0.31l0.2-0.32h16.79zm-0.8 0v-26.36h16.79l0.2 0.32v0.31q0 4.71-0.7 8.62-0.7 3.93-2.2 7.23-1.5 3.29-3.59 5.64-2.1 2.35-4.6 3.45-2.5 1.1-5.5 1.1h-0.2zm0-51.46l0.2-0.31h0.2q3 0 5.5 1.1 2.5 1.09 4.6 3.44 2.09 2.36 3.59 5.65 1.5 3.3 2.2 7.21 0.7 3.93 0.7 8.64v0.31l-0.2 0.32h-16.79zm0.8 0v26.36h-16.79l-0.2-0.32v-0.31q0-4.71 0.7-8.63 0.7-3.92 2.2-7.22 1.5-3.29 3.6-5.64 2.1-2.35 4.6-3.45 2.49-1.1 5.49-1.1h0.2zm8.8 176.98l-0.2 0.31h-0.2q-3 0-5.5-1.1-2.5-1.1-4.6-3.45-2.1-2.35-3.59-5.64-1.5-3.3-2.2-7.23-0.7-3.92-0.7-8.62v-0.31l0.2-0.32h16.79zm-0.8 0v-26.36h16.79l0.2 0.32v0.31q0 4.7-0.7 8.62-0.7 3.93-2.2 7.22-1.5 3.29-3.6 5.65-2.1 2.35-4.6 3.45-2.5 1.1-5.49 1.1h-0.2zm0-51.47l0.2-0.31h0.2q2.99 0 5.49 1.1 2.5 1.1 4.6 3.45 2.1 2.36 3.6 5.65 1.5 3.29 2.2 7.21 0.7 3.93 0.7 8.64v0.31l-0.2 0.31h-16.79zm0.8 0v26.37h-16.79l-0.2-0.32v-0.31q0-4.71 0.7-8.64 0.7-3.91 2.2-7.21 1.49-3.29 3.59-5.65 2.1-2.35 4.6-3.45 2.5-1.09 5.5-1.09h0.2zm2.79 20.08l-0.2 0.31h-0.2q-2.99 0-5.49-1.1-2.5-1.1-4.6-3.45-2.1-2.35-3.6-5.64-1.5-3.3-2.19-7.23-0.7-3.91-0.7-8.62v-0.31l0.2-0.32h16.78zm-0.8 0v-26.36h16.79l0.2 0.32v0.31q0 4.7-0.7 8.62-0.7 3.93-2.19 7.23-1.5 3.28-3.6 5.64-2.1 2.35-4.6 3.45-2.5 1.1-5.5 1.1h-0.2zm0-51.47l0.2-0.31h0.2q3 0 5.5 1.1 2.5 1.1 4.6 3.45 2.1 2.36 3.6 5.65 1.49 3.29 2.19 7.21 0.7 3.93 0.7 8.64v0.31l-0.2 0.32h-16.79zm0.8 0v26.36h-16.78l-0.2-0.32v-0.31q0-4.71 0.7-8.64 0.69-3.91 2.19-7.21 1.5-3.29 3.6-5.65 2.1-2.35 4.6-3.44 2.5-1.1 5.49-1.1h0.2zm2.8 20.08l-0.2 0.31h-0.2q-3 0-5.49-1.1-2.5-1.1-4.6-3.44-2.1-2.36-3.6-5.65-1.5-3.3-2.2-7.23-0.7-3.91-0.7-8.62v-0.31l0.2-0.32h16.79zm-0.8 0v-26.36h16.79l0.2 0.32v0.31q0 4.7-0.7 8.62-0.7 3.93-2.2 7.23-1.5 3.28-3.59 5.64-2.1 2.35-4.6 3.45-2.5 1.1-5.5 1.1h-0.2zm0-51.47l0.2-0.31h0.2q3 0 5.5 1.1 2.5 1.1 4.6 3.45 2.09 2.36 3.59 5.65 1.5 3.3 2.2 7.21 0.7 3.93 0.7 8.64v0.31l-0.2 0.32h-16.79zm0.8 0v26.36h-16.79l-0.2-0.32v-0.31q0-4.71 0.7-8.63 0.7-3.92 2.2-7.22 1.5-3.29 3.6-5.65 2.1-2.34 4.6-3.44 2.49-1.1 5.49-1.1h0.2zm2.8 20.08l-0.2 0.31h-0.2q-3 0-5.5-1.1-2.49-1.1-4.59-3.44-2.1-2.36-3.6-5.65-1.5-3.3-2.2-7.23-0.7-3.91-0.7-8.62v-0.31l0.2-0.32h16.79zm-0.8 0v-26.36h16.79l0.2 0.32v0.31q0 4.7-0.7 8.62-0.7 3.93-2.2 7.23-1.5 3.29-3.6 5.64-2.09 2.35-4.59 3.45-2.5 1.1-5.5 1.1h-0.2zm0-51.47l0.2-0.31h0.2q3 0 5.5 1.1 2.5 1.1 4.59 3.45 2.1 2.36 3.6 5.65 1.5 3.3 2.2 7.21 0.7 3.93 0.7 8.64v0.31l-0.2 0.32h-16.79zm0.8 0v26.36h-16.79l-0.2-0.32v-0.31q0-4.71 0.7-8.63 0.7-3.92 2.2-7.22 1.5-3.29 3.6-5.65 2.1-2.34 4.59-3.44 2.5-1.1 5.5-1.1h0.2zm28.78 176.98l-0.2 0.31h-0.2q-3 0-5.49-1.1-2.5-1.1-4.6-3.45-2.1-2.36-3.6-5.64-1.5-3.3-2.2-7.23-0.7-3.92-0.7-8.62v-0.31l0.2-0.32h16.79zm-0.8 0v-26.36h16.79l0.2 0.31v0.31q0 4.71-0.7 8.63-0.7 3.93-2.2 7.22-1.5 3.29-3.59 5.65-2.1 2.35-4.6 3.45-2.5 1.1-5.5 1.1h-0.2zm0-51.47l0.2-0.31h0.2q3 0 5.5 1.1 2.5 1.1 4.6 3.45 2.09 2.36 3.59 5.64 1.5 3.3 2.2 7.22 0.7 3.93 0.7 8.63v0.31l-0.2 0.32h-16.79zm0.8 0v26.37h-16.79l-0.2-0.32v-0.31q0-4.71 0.7-8.64 0.7-3.91 2.2-7.21 1.5-3.29 3.6-5.65 2.1-2.35 4.6-3.45 2.49-1.1 5.49-1.1h0.2zm2.8 20.09l-0.2 0.31h-0.2q-3 0-5.5-1.1-2.49-1.1-4.59-3.45-2.1-2.35-3.6-5.64-1.5-3.3-2.2-7.23-0.7-3.92-0.7-8.62v-0.31l0.2-0.32h16.79zm-0.8 0v-26.36h16.79l0.2 0.32v0.31q0 4.7-0.7 8.62-0.7 3.93-2.2 7.22-1.5 3.29-3.6 5.65-2.1 2.35-4.59 3.45-2.5 1.1-5.5 1.1h-0.2zm0-51.47l0.2-0.31h0.2q3 0 5.5 1.1 2.49 1.1 4.59 3.45 2.1 2.36 3.6 5.65 1.5 3.29 2.2 7.21 0.7 3.93 0.7 8.64v0.31l-0.2 0.31h-16.79zm0.8 0v26.37h-16.79l-0.2-0.32v-0.31q0-4.71 0.7-8.64 0.7-3.91 2.2-7.21 1.5-3.29 3.6-5.65 2.1-2.35 4.59-3.45 2.5-1.09 5.5-1.09h0.2zm2.8 20.08l-0.2 0.31h-0.2q-3 0-5.5-1.1-2.5-1.1-4.6-3.45-2.09-2.35-3.59-5.64-1.5-3.3-2.2-7.23-0.7-3.91-0.7-8.62v-0.31l0.2-0.32h16.79zm-0.8 0v-26.36h16.79l0.2 0.32v0.31q0 4.7-0.7 8.62-0.7 3.93-2.2 7.23-1.5 3.28-3.6 5.64-2.1 2.35-4.6 3.45-2.49 1.1-5.49 1.1h-0.2zm0-51.47l0.2-0.31h0.2q3 0 5.49 1.1 2.5 1.1 4.6 3.45 2.1 2.36 3.6 5.65 1.5 3.29 2.2 7.21 0.7 3.93 0.7 8.64v0.31l-0.2 0.32h-16.79zm0.8 0v26.36h-16.79l-0.2-0.32v-0.31q0-4.71 0.7-8.64 0.7-3.91 2.2-7.21 1.5-3.29 3.59-5.65 2.1-2.35 4.6-3.44 2.5-1.1 5.5-1.1h0.2zm2.8 20.08l-0.2 0.31h-0.2q-3 0-5.5-1.1-2.5-1.1-4.6-3.44-2.1-2.36-3.59-5.65-1.5-3.3-2.2-7.23-0.7-3.91-0.7-8.62v-0.31l0.2-0.32h16.79zm-0.8 0v-26.36h16.79l0.2 0.32v0.31q0 4.7-0.7 8.62-0.7 3.93-2.2 7.23-1.5 3.28-3.6 5.64-2.1 2.35-4.6 3.45-2.5 1.1-5.49 1.1h-0.2zm0-51.47l0.2-0.31h0.2q2.99 0 5.49 1.1 2.5 1.1 4.6 3.45 2.1 2.36 3.6 5.65 1.5 3.3 2.2 7.21 0.7 3.93 0.7 8.64v0.31l-0.2 0.32h-16.79zm0.8 0v26.36h-16.79l-0.2-0.32v-0.31q0-4.71 0.7-8.63 0.7-3.92 2.2-7.22 1.49-3.29 3.59-5.65 2.1-2.34 4.6-3.44 2.5-1.1 5.5-1.1h0.2zm2.79 20.08l-0.2 0.31h-0.2q-2.99 0-5.49-1.1-2.5-1.1-4.6-3.44-2.1-2.36-3.6-5.65-1.5-3.3-2.2-7.23-0.69-3.91-0.69-8.62v-0.31l0.2-0.32h16.78zm-0.8 0v-26.36h16.79l0.2 0.32v0.31q0 4.7-0.7 8.62-0.7 3.93-2.19 7.23-1.5 3.29-3.6 5.64-2.1 2.35-4.6 3.45-2.5 1.1-5.5 1.1h-0.2zm0-51.47l0.2-0.31h0.2q3 0 5.5 1.1 2.5 1.1 4.6 3.45 2.1 2.36 3.6 5.65 1.49 3.3 2.19 7.21 0.7 3.93 0.7 8.64v0.31l-0.2 0.32h-16.79zm0.8 0v26.36h-16.78l-0.2-0.32v-0.31q0-4.71 0.69-8.63 0.7-3.92 2.2-7.22 1.5-3.29 3.6-5.65 2.1-2.34 4.6-3.44 2.5-1.1 5.49-1.1h0.2zm2.8 20.08l-0.2 0.31h-0.2q-3 0-5.49-1.1-2.5-1.09-4.6-3.44-2.1-2.36-3.6-5.65-1.5-3.3-2.2-7.22-0.7-3.92-0.7-8.63v-0.31l0.2-0.32h16.79zm-0.8 0v-26.36h16.79l0.2 0.32v0.31q0 4.71-0.7 8.62-0.7 3.93-2.2 7.23-1.5 3.29-3.59 5.64-2.1 2.35-4.6 3.45-2.5 1.1-5.5 1.1h-0.2zm0-51.46l0.2-0.31h0.2q3 0 5.5 1.1 2.5 1.09 4.6 3.44 2.09 2.36 3.59 5.65 1.5 3.3 2.2 7.21 0.7 3.93 0.7 8.64v0.31l-0.2 0.32h-16.79zm0.8 0v26.36h-16.79l-0.2-0.32v-0.31q0-4.71 0.7-8.63 0.7-3.92 2.2-7.22 1.5-3.29 3.6-5.64 2.1-2.35 4.6-3.45 2.49-1.1 5.49-1.1h0.2zm17.19 82.84l-0.2 0.31h-0.2q-3 0-5.5-1.1-2.49-1.1-4.59-3.44-2.1-2.36-3.6-5.65-1.5-3.3-2.2-7.23-0.7-3.91-0.7-8.62v-0.31l0.2-0.32h16.79zm-0.8 0v-26.36h16.79l0.2 0.32v0.31q0 4.7-0.7 8.62-0.7 3.93-2.2 7.23-1.5 3.29-3.6 5.64-2.09 2.35-4.59 3.45-2.5 1.1-5.5 1.1h-0.2zm0-51.47l0.2-0.31h0.2q3 0 5.5 1.1 2.5 1.1 4.59 3.45 2.1 2.36 3.6 5.65 1.5 3.3 2.2 7.21 0.7 3.93 0.7 8.64v0.31l-0.2 0.32h-16.79zm0.8 0v26.36h-16.79l-0.2-0.32v-0.31q0-4.71 0.7-8.63 0.7-3.92 2.2-7.22 1.5-3.29 3.6-5.65 2.1-2.34 4.59-3.44 2.5-1.1 5.5-1.1h0.2zm14.39 114.22l-0.2 0.31h-0.2q-3 0-5.49-1.1-2.5-1.1-4.6-3.45-2.1-2.35-3.6-5.64-1.5-3.3-2.2-7.23-0.7-3.91-0.7-8.62v-0.31l0.2-0.32h16.79zm-0.8 0v-26.36h16.79l0.2 0.32v0.31q0 4.7-0.7 8.62-0.7 3.93-2.2 7.23-1.5 3.28-3.6 5.64-2.09 2.35-4.59 3.45-2.5 1.1-5.5 1.1h-0.2zm0-51.47l0.2-0.31h0.2q3 0 5.5 1.1 2.5 1.1 4.59 3.45 2.1 2.36 3.6 5.65 1.5 3.29 2.2 7.21 0.7 3.93 0.7 8.64v0.31l-0.2 0.32h-16.79zm0.8 0v26.36h-16.79l-0.2-0.32v-0.31q0-4.71 0.7-8.64 0.7-3.91 2.2-7.21 1.5-3.29 3.6-5.65 2.1-2.35 4.6-3.44 2.49-1.1 5.49-1.1h0.2zm2.8 20.08l-0.2 0.31h-0.2q-3 0-5.5-1.1-2.49-1.1-4.59-3.44-2.1-2.36-3.6-5.65-1.5-3.3-2.2-7.23-0.7-3.91-0.7-8.62v-0.31l0.2-0.32h16.79zm-0.8 0v-26.36h16.79l0.2 0.32v0.31q0 4.7-0.7 8.62-0.7 3.93-2.2 7.23-1.5 3.28-3.6 5.64-2.1 2.35-4.59 3.45-2.5 1.1-5.5 1.1h-0.2zm0-51.47l0.2-0.31h0.2q3 0 5.5 1.1 2.49 1.1 4.59 3.45 2.1 2.36 3.6 5.65 1.5 3.3 2.2 7.21 0.7 3.93 0.7 8.64v0.31l-0.2 0.32h-16.79zm0.8 0v26.36h-16.79l-0.2-0.32v-0.31q0-4.71 0.7-8.63 0.7-3.92 2.2-7.22 1.5-3.29 3.6-5.65 2.09-2.34 4.59-3.44 2.5-1.1 5.5-1.1h0.2zm22.78 20.08l-0.2 0.31h-0.2q-2.99 0-5.49-1.1-2.5-1.1-4.6-3.44-2.1-2.36-3.6-5.65-1.5-3.3-2.19-7.23-0.7-3.91-0.7-8.62v-0.31l0.2-0.32h16.78zm-0.8 0v-26.36h16.79l0.2 0.32v0.31q0 4.7-0.7 8.62-0.7 3.93-2.19 7.23-1.5 3.29-3.6 5.64-2.1 2.35-4.6 3.45-2.5 1.1-5.5 1.1h-0.2zm0-51.47l0.2-0.31h0.2q3 0 5.5 1.1 2.5 1.1 4.6 3.45 2.1 2.36 3.6 5.65 1.49 3.3 2.19 7.21 0.7 3.93 0.7 8.64v0.31l-0.2 0.32h-16.79zm0.8 0v26.36h-16.78l-0.2-0.32v-0.31q0-4.71 0.7-8.63 0.69-3.92 2.19-7.22 1.5-3.29 3.6-5.65 2.1-2.34 4.6-3.44 2.5-1.1 5.49-1.1h0.2zm8.8 176.98l-0.2 0.31h-0.2q-3 0-5.5-1.1-2.5-1.1-4.59-3.45-2.1-2.36-3.6-5.64-1.5-3.3-2.2-7.23-0.7-3.92-0.7-8.62v-0.31l0.2-0.32h16.79zm-0.8 0v-26.36h16.79l0.2 0.31v0.31q0 4.71-0.7 8.63-0.7 3.93-2.2 7.22-1.5 3.29-3.6 5.65-2.1 2.35-4.59 3.45-2.5 1.1-5.5 1.1h-0.2zm0-51.47l0.2-0.31h0.2q3 0 5.5 1.1 2.49 1.1 4.59 3.45 2.1 2.36 3.6 5.64 1.5 3.3 2.2 7.22 0.7 3.93 0.7 8.63v0.31l-0.2 0.32h-16.79zm0.8 0v26.37h-16.79l-0.2-0.32v-0.31q0-4.71 0.7-8.64 0.7-3.91 2.2-7.21 1.5-3.29 3.6-5.65 2.09-2.35 4.59-3.45 2.5-1.1 5.5-1.1h0.2zm2.8 20.09l-0.2 0.31h-0.2q-3 0-5.5-1.1-2.5-1.1-4.6-3.45-2.09-2.35-3.59-5.64-1.5-3.3-2.2-7.23-0.7-3.92-0.7-8.62v-0.31l0.2-0.32h16.79zm-0.8 0v-26.36h16.79l0.2 0.32v0.31q0 4.7-0.7 8.62-0.7 3.93-2.2 7.22-1.5 3.29-3.6 5.65-2.1 2.35-4.6 3.45-2.5 1.1-5.49 1.1h-0.2zm0-51.47l0.2-0.31h0.2q2.99 0 5.49 1.1 2.5 1.1 4.6 3.45 2.1 2.36 3.6 5.65 1.5 3.29 2.2 7.21 0.7 3.93 0.7 8.64v0.31l-0.2 0.31h-16.79zm0.8 0v26.37h-16.79l-0.2-0.32v-0.31q0-4.71 0.7-8.64 0.7-3.91 2.2-7.21 1.49-3.29 3.59-5.65 2.1-2.35 4.6-3.45 2.5-1.09 5.5-1.09h0.2zm2.79 20.08l-0.2 0.31h-0.19q-3 0-5.5-1.1-2.5-1.1-4.6-3.45-2.1-2.35-3.6-5.64-1.49-3.3-2.19-7.23-0.7-3.91-0.7-8.62v-0.31l0.2-0.32h16.78zm-0.79 0v-26.36h16.78l0.2 0.32v0.31q0 4.7-0.7 8.62-0.69 3.93-2.19 7.23-1.5 3.28-3.6 5.64-2.1 2.35-4.6 3.45-2.5 1.1-5.49 1.1h-0.2zm0-51.47l0.2-0.31h0.19q3 0 5.5 1.1 2.5 1.1 4.6 3.45 2.1 2.36 3.6 5.65 1.49 3.29 2.19 7.21 0.7 3.93 0.7 8.64v0.31l-0.2 0.32h-16.78zm0.79 0v26.36h-16.78l-0.2-0.32v-0.31q0-4.71 0.7-8.64 0.7-3.91 2.19-7.21 1.5-3.29 3.6-5.65 2.1-2.35 4.6-3.44 2.5-1.1 5.49-1.1h0.2zm2.8 20.08l-0.2 0.31h-0.2q-2.99 0-5.49-1.1-2.5-1.1-4.6-3.44-2.1-2.36-3.6-5.65-1.5-3.3-2.2-7.23-0.7-3.91-0.7-8.62v-0.31l0.2-0.32h16.79zm-0.8 0v-26.36h16.79l0.2 0.32v0.31q0 4.7-0.7 8.62-0.7 3.93-2.2 7.23-1.49 3.28-3.59 5.64-2.1 2.35-4.6 3.45-2.5 1.1-5.5 1.1h-0.2zm0-51.47l0.2-0.31h0.2q3 0 5.5 1.1 2.5 1.1 4.6 3.45 2.1 2.36 3.59 5.65 1.5 3.3 2.2 7.21 0.7 3.93 0.7 8.64v0.31l-0.2 0.32h-16.79zm0.8 0v26.36h-16.79l-0.2-0.32v-0.31q0-4.71 0.7-8.63 0.7-3.92 2.2-7.22 1.5-3.29 3.6-5.65 2.1-2.34 4.6-3.44 2.5-1.1 5.49-1.1h0.2zm2.8 20.08l-0.2 0.31h-0.2q-3 0-5.49-1.1-2.5-1.1-4.6-3.44-2.1-2.36-3.6-5.65-1.5-3.3-2.2-7.23-0.7-3.91-0.7-8.62v-0.31l0.2-0.32h16.79zm-0.8 0v-26.36h16.79l0.2 0.32v0.31q0 4.7-0.7 8.62-0.7 3.93-2.2 7.23-1.5 3.29-3.6 5.64-2.09 2.35-4.59 3.45-2.5 1.1-5.5 1.1h-0.2zm0-51.47l0.2-0.31h0.2q3 0 5.5 1.1 2.5 1.1 4.59 3.45 2.1 2.36 3.6 5.65 1.5 3.3 2.2 7.21 0.7 3.93 0.7 8.64v0.31l-0.2 0.32h-16.79zm0.8 0v26.36h-16.79l-0.2-0.32v-0.31q0-4.71 0.7-8.63 0.7-3.92 2.2-7.22 1.5-3.29 3.6-5.65 2.1-2.34 4.59-3.44 2.5-1.1 5.5-1.1h0.2zm2.8 20.08l-0.2 0.31h-0.2q-3 0-5.5-1.1-2.5-1.09-4.59-3.44-2.1-2.36-3.6-5.65-1.5-3.3-2.2-7.22-0.7-3.92-0.7-8.63v-0.31l0.2-0.32h16.79zm-0.8 0v-26.36h16.79l0.2 0.32v0.31q0 4.71-0.7 8.62-0.7 3.93-2.2 7.23-1.5 3.29-3.6 5.64-2.1 2.35-4.59 3.45-2.5 1.1-5.5 1.1h-0.2zm0-51.46l0.2-0.31h0.2q3 0 5.5 1.1 2.49 1.09 4.59 3.44 2.1 2.36 3.6 5.65 1.5 3.3 2.2 7.21 0.7 3.93 0.7 8.64v0.31l-0.2 0.32h-16.79zm0.8 0v26.36h-16.79l-0.2-0.32v-0.31q0-4.71 0.7-8.63 0.7-3.92 2.2-7.22 1.5-3.29 3.6-5.64 2.09-2.35 4.59-3.45 2.5-1.1 5.5-1.1h0.2zm25.98 208.36l-0.2 0.31h-0.2q-3 0-5.49-1.1-2.5-1.1-4.6-3.45-2.1-2.36-3.6-5.64-1.5-3.3-2.2-7.23-0.7-3.92-0.7-8.62v-0.31l0.2-0.32h16.79zm-0.8 0v-26.36h16.79l0.2 0.31v0.31q0 4.71-0.7 8.63-0.7 3.93-2.2 7.22-1.5 3.29-3.59 5.65-2.1 2.35-4.6 3.45-2.5 1.1-5.5 1.1h-0.2zm0-51.47l0.2-0.31h0.2q3 0 5.5 1.1 2.5 1.1 4.6 3.45 2.09 2.36 3.59 5.64 1.5 3.3 2.2 7.22 0.7 3.93 0.7 8.63v0.31l-0.2 0.32h-16.79zm0.8 0v26.37h-16.79l-0.2-0.32v-0.31q0-4.71 0.7-8.64 0.7-3.91 2.2-7.21 1.5-3.29 3.6-5.65 2.1-2.35 4.6-3.45 2.49-1.1 5.49-1.1h0.2zm2.8 20.09l-0.2 0.31h-0.2q-3 0-5.5-1.1-2.49-1.1-4.59-3.45-2.1-2.35-3.6-5.64-1.5-3.3-2.2-7.23-0.7-3.92-0.7-8.62v-0.31l0.2-0.32h16.79zm-0.8 0v-26.36h16.79l0.2 0.32v0.31q0 4.7-0.7 8.62-0.7 3.93-2.2 7.22-1.5 3.29-3.6 5.65-2.09 2.35-4.59 3.45-2.5 1.1-5.5 1.1h-0.2zm0-51.47l0.2-0.31h0.2q3 0 5.5 1.1 2.49 1.1 4.59 3.45 2.1 2.36 3.6 5.65 1.5 3.29 2.2 7.21 0.7 3.93 0.7 8.64v0.31l-0.2 0.31h-16.79zm0.8 0v26.37h-16.79l-0.2-0.32v-0.31q0-4.71 0.7-8.64 0.7-3.91 2.2-7.21 1.5-3.29 3.6-5.65 2.1-2.35 4.59-3.45 2.5-1.09 5.5-1.09h0.2zm2.8 20.08l-0.2 0.31h-0.2q-3 0-5.5-1.1-2.5-1.1-4.59-3.45-2.1-2.35-3.6-5.64-1.5-3.3-2.2-7.23-0.7-3.91-0.7-8.62v-0.31l0.2-0.32h16.79zm-0.8 0v-26.36h16.79l0.2 0.32v0.31q0 4.7-0.7 8.62-0.7 3.93-2.2 7.23-1.5 3.28-3.6 5.64-2.1 2.35-4.6 3.45-2.49 1.1-5.49 1.1h-0.2zm0-51.47l0.2-0.31h0.2q3 0 5.49 1.1 2.5 1.1 4.6 3.45 2.1 2.36 3.6 5.65 1.5 3.29 2.2 7.21 0.7 3.93 0.7 8.64v0.31l-0.2 0.32h-16.79zm0.8 0v26.36h-16.79l-0.2-0.32v-0.31q0-4.71 0.7-8.64 0.7-3.91 2.2-7.21 1.5-3.29 3.6-5.65 2.09-2.35 4.59-3.44 2.5-1.1 5.5-1.1h0.2zm2.8 20.08l-0.2 0.31h-0.2q-3 0-5.5-1.1-2.5-1.1-4.6-3.44-2.1-2.36-3.59-5.65-1.5-3.3-2.2-7.23-0.7-3.91-0.7-8.62v-0.31l0.2-0.32h16.79zm-0.8 0v-26.36h16.79l0.2 0.32v0.31q0 4.7-0.7 8.62-0.7 3.93-2.2 7.23-1.5 3.28-3.6 5.64-2.1 2.35-4.6 3.45-2.5 1.1-5.49 1.1h-0.2zm0-51.47l0.2-0.31h0.2q2.99 0 5.49 1.1 2.5 1.1 4.6 3.45 2.1 2.36 3.6 5.65 1.5 3.3 2.2 7.21 0.7 3.93 0.7 8.64v0.31l-0.2 0.32h-16.79zm0.8 0v26.36h-16.79l-0.2-0.32v-0.31q0-4.71 0.7-8.63 0.7-3.92 2.2-7.22 1.49-3.29 3.59-5.65 2.1-2.34 4.6-3.44 2.5-1.1 5.5-1.1h0.2zm2.79 20.08l-0.2 0.31h-0.2q-2.99 0-5.49-1.1-2.5-1.1-4.6-3.44-2.1-2.36-3.6-5.65-1.5-3.3-2.19-7.23-0.7-3.91-0.7-8.62v-0.31l0.2-0.32h16.78zm-0.79 0v-26.36h16.78l0.2 0.32v0.31q0 4.7-0.7 8.62-0.7 3.93-2.19 7.23-1.5 3.29-3.6 5.64-2.1 2.35-4.6 3.45-2.5 1.1-5.5 1.1h-0.2zm0-51.47l0.2-0.31h0.2q3 0 5.5 1.1 2.5 1.1 4.6 3.45 2.1 2.36 3.6 5.65 1.49 3.3 2.19 7.21 0.7 3.93 0.7 8.64v0.31l-0.2 0.32h-16.79zm0.8 0v26.36h-16.78l-0.2-0.32v-0.31q0-4.71 0.7-8.63 0.69-3.92 2.19-7.22 1.5-3.29 3.6-5.65 2.1-2.34 4.6-3.44 2.5-1.1 5.49-1.1h0.2zm2.8 20.08l-0.2 0.31h-0.2q-3 0-5.49-1.1-2.5-1.09-4.6-3.44-2.1-2.36-3.6-5.65-1.5-3.3-2.2-7.22-0.7-3.92-0.7-8.63v-0.31l0.2-0.32h16.79zm-0.8 0v-26.36h16.79l0.2 0.32v0.31q0 4.71-0.7 8.62-0.7 3.93-2.2 7.23-1.5 3.29-3.59 5.64-2.1 2.35-4.6 3.45-2.5 1.1-5.5 1.1h-0.2zm0-51.46l0.2-0.31h0.2q3 0 5.5 1.1 2.5 1.09 4.6 3.44 2.09 2.36 3.59 5.65 1.5 3.3 2.2 7.21 0.7 3.93 0.7 8.64v0.31l-0.2 0.32h-16.79zm0.8 0v26.36h-16.79l-0.2-0.32v-0.31q0-4.71 0.7-8.63 0.7-3.92 2.2-7.22 1.5-3.29 3.6-5.64 2.1-2.35 4.6-3.45 2.49-1.1 5.49-1.1h0.2zm11.6 145.6l-0.2 0.31h-0.2q-3 0-5.5-1.1-2.5-1.1-4.6-3.45-2.1-2.35-3.6-5.64-1.49-3.3-2.19-7.23-0.7-3.91-0.7-8.62v-0.31l0.2-0.32h16.79zm-0.8 0v-26.36h16.78l0.2 0.32v0.31q0 4.7-0.7 8.62-0.69 3.93-2.19 7.23-1.5 3.28-3.6 5.64-2.1 2.35-4.6 3.45-2.5 1.1-5.49 1.1h-0.2zm0-51.47l0.2-0.31h0.2q2.99 0 5.49 1.1 2.5 1.1 4.6 3.45 2.1 2.36 3.6 5.65 1.5 3.29 2.19 7.21 0.7 3.93 0.7 8.64v0.31l-0.2 0.32h-16.78zm0.79 0v26.36h-16.78l-0.2-0.32v-0.31q0-4.71 0.7-8.64 0.7-3.91 2.19-7.21 1.5-3.29 3.6-5.65 2.1-2.35 4.6-3.44 2.5-1.1 5.5-1.1h0.2zm8.39-42.68l-0.2 0.31h-0.2q-3 0-5.5-1.1-2.49-1.09-4.59-3.44-2.1-2.36-3.6-5.65-1.5-3.3-2.2-7.22-0.7-3.92-0.7-8.63v-0.31l0.2-0.32h16.79zm-0.8 0v-26.36h16.79l0.2 0.32v0.31q0 4.71-0.7 8.62-0.7 3.93-2.2 7.23-1.5 3.29-3.6 5.64-2.1 2.35-4.59 3.45-2.5 1.1-5.5 1.1h-0.2zm0-51.46l0.2-0.31h0.2q3 0 5.5 1.1 2.49 1.09 4.59 3.44 2.1 2.36 3.6 5.65 1.5 3.3 2.2 7.21 0.7 3.93 0.7 8.64v0.31l-0.2 0.32h-16.79zm0.8 0v26.36h-16.79l-0.2-0.32v-0.31q0-4.71 0.7-8.63 0.7-3.92 2.2-7.22 1.5-3.29 3.6-5.64 2.09-2.35 4.59-3.45 2.5-1.1 5.5-1.1h0.2zm11.59 145.6l-0.2 0.31h-0.2q-3 0-5.49-1.1-2.5-1.1-4.6-3.45-2.1-2.35-3.6-5.64-1.5-3.3-2.2-7.23-0.7-3.91-0.7-8.62v-0.31l0.2-0.32h16.79zm-0.8 0v-26.36h16.79l0.2 0.32v0.31q0 4.7-0.7 8.62-0.7 3.93-2.2 7.23-1.5 3.28-3.59 5.64-2.1 2.35-4.6 3.45-2.5 1.1-5.5 1.1h-0.2zm0-51.47l0.2-0.31h0.2q3 0 5.5 1.1 2.5 1.1 4.6 3.45 2.09 2.36 3.59 5.65 1.5 3.29 2.2 7.21 0.7 3.93 0.7 8.64v0.31l-0.2 0.32h-16.79zm0.8 0v26.36h-16.79l-0.2-0.32v-0.31q0-4.71 0.7-8.64 0.7-3.91 2.2-7.21 1.5-3.29 3.6-5.65 2.1-2.35 4.6-3.44 2.49-1.1 5.49-1.1h0.2zm8.4-42.68l-0.2 0.31h-0.2q-3 0-5.5-1.1-2.5-1.09-4.6-3.44-2.1-2.36-3.59-5.65-1.5-3.3-2.2-7.22-0.7-3.92-0.7-8.63v-0.31l0.2-0.32h16.79zm-0.8 0v-26.36h16.79l0.2 0.32v0.31q0 4.71-0.7 8.62-0.7 3.93-2.2 7.23-1.5 3.29-3.6 5.64-2.1 2.35-4.6 3.45-2.5 1.1-5.49 1.1h-0.2zm0-51.46l0.2-0.31h0.2q2.99 0 5.49 1.1 2.5 1.09 4.6 3.44 2.1 2.36 3.6 5.65 1.5 3.3 2.2 7.21 0.7 3.93 0.7 8.64v0.31l-0.2 0.32h-16.79zm0.8 0v26.36h-16.79l-0.2-0.32v-0.31q0-4.71 0.7-8.63 0.7-3.92 2.2-7.22 1.49-3.29 3.59-5.64 2.1-2.35 4.6-3.45 2.5-1.1 5.5-1.1h0.2zm11.59 145.6l-0.2 0.31h-0.2q-3 0-5.5-1.1-2.5-1.1-4.59-3.45-2.1-2.35-3.6-5.64-1.5-3.3-2.2-7.23-0.7-3.91-0.7-8.62v-0.31l0.2-0.32h16.79zm-0.8 0v-26.36h16.79l0.2 0.32v0.31q0 4.7-0.7 8.62-0.7 3.93-2.2 7.23-1.5 3.28-3.6 5.64-2.1 2.35-4.59 3.45-2.5 1.1-5.5 1.1h-0.2zm0-51.47l0.2-0.31h0.2q3 0 5.5 1.1 2.49 1.1 4.59 3.45 2.1 2.36 3.6 5.65 1.5 3.29 2.2 7.21 0.7 3.93 0.7 8.64v0.31l-0.2 0.32h-16.79zm0.8 0v26.36h-16.79l-0.2-0.32v-0.31q0-4.71 0.7-8.64 0.7-3.91 2.2-7.21 1.5-3.29 3.6-5.65 2.09-2.35 4.59-3.44 2.5-1.1 5.5-1.1h0.2zm8.39-42.68l-0.2 0.31h-0.2q-2.99 0-5.49-1.1-2.5-1.09-4.6-3.44-2.1-2.36-3.6-5.65-1.5-3.3-2.2-7.22-0.7-3.92-0.7-8.63v-0.31l0.2-0.32h16.79zm-0.8 0v-26.36h16.79l0.2 0.32v0.31q0 4.71-0.7 8.62-0.7 3.93-2.2 7.23-1.49 3.29-3.59 5.64-2.1 2.35-4.6 3.45-2.5 1.1-5.5 1.1h-0.2zm0-51.46l0.2-0.31h0.2q3 0 5.5 1.1 2.5 1.09 4.6 3.44 2.1 2.36 3.59 5.65 1.5 3.3 2.2 7.21 0.7 3.93 0.7 8.64v0.31l-0.2 0.32h-16.79zm0.8 0v26.36h-16.79l-0.2-0.32v-0.31q0-4.71 0.7-8.63 0.7-3.92 2.2-7.22 1.5-3.29 3.6-5.64 2.1-2.35 4.6-3.45 2.5-1.1 5.49-1.1h0.2zm6 208.36l-0.2 0.31h-0.2q-3 0-5.5-1.1-2.5-1.1-4.59-3.45-2.1-2.36-3.6-5.64-1.5-3.3-2.2-7.23-0.7-3.92-0.7-8.62v-0.31l0.2-0.32h16.79zm-0.8 0v-26.36h16.79l0.2 0.31v0.31q0 4.71-0.7 8.63-0.7 3.93-2.2 7.22-1.5 3.29-3.6 5.65-2.1 2.35-4.59 3.45-2.5 1.1-5.5 1.1h-0.2zm0-51.47l0.2-0.31h0.2q3 0 5.5 1.1 2.49 1.1 4.59 3.45 2.1 2.36 3.6 5.64 1.5 3.3 2.2 7.22 0.7 3.93 0.7 8.63v0.31l-0.2 0.32h-16.79zm0.8 0v26.37h-16.79l-0.2-0.32v-0.31q0-4.71 0.7-8.64 0.7-3.91 2.2-7.21 1.5-3.29 3.6-5.65 2.09-2.35 4.59-3.45 2.5-1.1 5.5-1.1h0.2zm2.8 20.09l-0.2 0.31h-0.2q-3 0-5.5-1.1-2.5-1.1-4.6-3.45-2.09-2.35-3.59-5.64-1.5-3.3-2.2-7.23-0.7-3.92-0.7-8.62v-0.31l0.2-0.32h16.79zm-0.8 0v-26.36h16.79l0.2 0.32v0.31q0 4.7-0.7 8.62-0.7 3.93-2.2 7.22-1.5 3.29-3.6 5.65-2.1 2.35-4.6 3.45-2.49 1.1-5.49 1.1h-0.2zm0-51.47l0.2-0.31h0.2q3 0 5.49 1.1 2.5 1.1 4.6 3.45 2.1 2.36 3.6 5.65 1.5 3.29 2.2 7.21 0.7 3.93 0.7 8.64v0.31l-0.2 0.31h-16.79zm0.8 0v26.37h-16.79l-0.2-0.32v-0.31q0-4.71 0.7-8.64 0.7-3.91 2.2-7.21 1.5-3.29 3.59-5.65 2.1-2.35 4.6-3.45 2.5-1.09 5.5-1.09h0.2zm5.59-11.3l-0.2 0.31h-0.2q-2.99 0-5.49-1.1-2.5-1.1-4.6-3.44-2.1-2.36-3.6-5.65-1.5-3.3-2.2-7.23-0.7-3.91-0.7-8.62v-0.31l0.2-0.32h16.79zm-0.8 0v-26.36h16.79l0.2 0.32v0.31q0 4.7-0.7 8.62-0.7 3.93-2.2 7.23-1.49 3.28-3.59 5.64-2.1 2.35-4.6 3.45-2.5 1.1-5.5 1.1h-0.2zm0-51.47l0.2-0.31h0.2q3 0 5.5 1.1 2.5 1.1 4.6 3.45 2.1 2.36 3.59 5.65 1.5 3.3 2.2 7.21 0.7 3.93 0.7 8.64v0.31l-0.2 0.32h-16.79zm0.8 0v26.36h-16.79l-0.2-0.32v-0.31q0-4.71 0.7-8.63 0.7-3.92 2.2-7.22 1.5-3.29 3.6-5.65 2.1-2.34 4.6-3.44 2.5-1.1 5.49-1.1h0.2zm2.8 20.08l-0.2 0.31h-0.2q-3 0-5.49-1.1-2.5-1.1-4.6-3.44-2.1-2.36-3.6-5.65-1.5-3.3-2.2-7.23-0.7-3.91-0.7-8.62v-0.31l0.2-0.32h16.79zm-0.8 0v-26.36h16.79l0.2 0.32v0.31q0 4.7-0.7 8.62-0.7 3.93-2.2 7.23-1.5 3.29-3.59 5.64-2.1 2.35-4.6 3.45-2.5 1.1-5.5 1.1h-0.2zm0-51.47l0.2-0.31h0.2q3 0 5.5 1.1 2.5 1.1 4.59 3.45 2.1 2.36 3.6 5.65 1.5 3.3 2.2 7.21 0.7 3.93 0.7 8.64v0.31l-0.2 0.32h-16.79zm0.8 0v26.36h-16.79l-0.2-0.32v-0.31q0-4.71 0.7-8.63 0.7-3.92 2.2-7.22 1.5-3.29 3.6-5.65 2.1-2.34 4.6-3.44 2.49-1.1 5.49-1.1h0.2zm28.78 176.98l-0.2 0.31h-0.2q-3 0-5.49-1.1-2.5-1.1-4.6-3.45-2.1-2.36-3.6-5.64-1.5-3.3-2.2-7.23-0.7-3.92-0.7-8.62v-0.31l0.2-0.32h16.79zm-0.8 0v-26.36h16.79l0.2 0.31v0.31q0 4.71-0.7 8.63-0.7 3.93-2.2 7.22-1.5 3.29-3.59 5.65-2.1 2.35-4.6 3.45-2.5 1.1-5.5 1.1h-0.2zm0-51.47l0.2-0.31h0.2q3 0 5.5 1.1 2.5 1.1 4.6 3.45 2.09 2.36 3.59 5.64 1.5 3.3 2.2 7.22 0.7 3.93 0.7 8.63v0.31l-0.2 0.32h-16.79zm0.8 0v26.37h-16.79l-0.2-0.32v-0.31q0-4.71 0.7-8.64 0.7-3.91 2.2-7.21 1.5-3.29 3.6-5.65 2.1-2.35 4.6-3.45 2.49-1.1 5.49-1.1h0.2zm2.8 20.09l-0.2 0.31h-0.2q-3 0-5.5-1.1-2.49-1.1-4.59-3.45-2.1-2.35-3.6-5.64-1.5-3.3-2.2-7.23-0.7-3.92-0.7-8.62v-0.31l0.2-0.32h16.79zm-0.8 0v-26.36h16.79l0.2 0.32v0.31q0 4.7-0.7 8.62-0.7 3.93-2.2 7.22-1.5 3.29-3.6 5.65-2.09 2.35-4.59 3.45-2.5 1.1-5.5 1.1h-0.2zm0-51.47l0.2-0.31h0.2q3 0 5.5 1.1 2.5 1.1 4.59 3.45 2.1 2.36 3.6 5.65 1.5 3.29 2.2 7.21 0.7 3.93 0.7 8.64v0.31l-0.2 0.31h-16.79zm0.8 0v26.37h-16.79l-0.2-0.32v-0.31q0-4.71 0.7-8.64 0.7-3.91 2.2-7.21 1.5-3.29 3.6-5.65 2.1-2.35 4.59-3.45 2.5-1.09 5.5-1.09h0.2zm2.8 20.08l-0.2 0.31h-0.2q-3 0-5.5-1.1-2.5-1.1-4.59-3.45-2.1-2.35-3.6-5.64-1.5-3.3-2.2-7.23-0.7-3.91-0.7-8.62v-0.31l0.2-0.32h16.79zm-0.8 0v-26.36h16.79l0.2 0.32v0.31q0 4.7-0.7 8.62-0.7 3.93-2.2 7.23-1.5 3.28-3.6 5.64-2.1 2.35-4.59 3.45-2.5 1.1-5.5 1.1h-0.2zm0-51.47l0.2-0.31h0.2q3 0 5.5 1.1 2.49 1.1 4.59 3.45 2.1 2.36 3.6 5.65 1.5 3.29 2.2 7.21 0.7 3.93 0.7 8.64v0.31l-0.2 0.32h-16.79zm0.8 0v26.36h-16.79l-0.2-0.32v-0.31q0-4.71 0.7-8.64 0.7-3.91 2.2-7.21 1.5-3.29 3.6-5.65 2.09-2.35 4.59-3.44 2.5-1.1 5.5-1.1h0.2zm2.8 20.08l-0.2 0.31h-0.2q-3 0-5.5-1.1-2.5-1.1-4.6-3.44-2.09-2.36-3.59-5.65-1.5-3.3-2.2-7.23-0.7-3.91-0.7-8.62v-0.31l0.2-0.32h16.79zm-0.8 0v-26.36h16.79l0.2 0.32v0.31q0 4.7-0.7 8.62-0.7 3.93-2.2 7.23-1.5 3.28-3.6 5.64-2.1 2.35-4.6 3.45-2.49 1.1-5.49 1.1h-0.2zm0-51.47l0.2-0.31h0.2q3 0 5.49 1.1 2.5 1.1 4.6 3.45 2.1 2.36 3.6 5.65 1.5 3.3 2.2 7.21 0.7 3.93 0.7 8.64v0.31l-0.2 0.32h-16.79zm0.8 0v26.36h-16.79l-0.2-0.32v-0.31q0-4.71 0.7-8.63 0.7-3.92 2.2-7.22 1.5-3.29 3.59-5.65 2.1-2.34 4.6-3.44 2.5-1.1 5.5-1.1h0.2zm2.8 20.08l-0.2 0.31h-0.2q-3 0-5.5-1.1-2.5-1.1-4.6-3.44-2.1-2.36-3.6-5.65-1.49-3.3-2.19-7.23-0.7-3.91-0.7-8.62v-0.31l0.2-0.32h16.79zm-0.8 0v-26.36h16.78l0.2 0.32v0.31q0 4.7-0.7 8.62-0.69 3.93-2.19 7.23-1.5 3.29-3.6 5.64-2.1 2.35-4.6 3.45-2.5 1.1-5.49 1.1h-0.2zm0-51.47l0.2-0.31h0.2q2.99 0 5.49 1.1 2.5 1.1 4.6 3.45 2.1 2.36 3.6 5.65 1.5 3.3 2.19 7.21 0.7 3.93 0.7 8.64v0.31l-0.2 0.32h-16.78zm0.79 0v26.36h-16.78l-0.2-0.32v-0.31q0-4.71 0.7-8.63 0.7-3.92 2.19-7.22 1.5-3.29 3.6-5.65 2.1-2.34 4.6-3.44 2.5-1.1 5.5-1.1h0.2zm14.39 114.22l-0.2 0.31h-0.2q-3 0-5.5-1.1-2.5-1.1-4.6-3.45-2.1-2.35-3.6-5.64-1.49-3.3-2.19-7.23-0.7-3.91-0.7-8.62v-0.31l0.2-0.32h16.79zm-0.8 0v-26.36h16.78l0.2 0.32v0.31q0 4.7-0.69 8.62-0.7 3.93-2.2 7.23-1.5 3.28-3.6 5.64-2.1 2.35-4.6 3.45-2.5 1.1-5.49 1.1h-0.2zm0-51.47l0.2-0.31h0.2q2.99 0 5.49 1.1 2.5 1.1 4.6 3.45 2.1 2.36 3.6 5.65 1.5 3.29 2.2 7.21 0.69 3.93 0.69 8.64v0.31l-0.2 0.32h-16.78zm0.8 0v26.36h-16.79l-0.2-0.32v-0.31q0-4.71 0.7-8.64 0.7-3.91 2.19-7.21 1.5-3.29 3.6-5.65 2.1-2.35 4.6-3.44 2.5-1.1 5.5-1.1h0.2zm8.39-42.68l-0.2 0.31h-0.2q-3 0-5.5-1.1-2.49-1.09-4.59-3.44-2.1-2.36-3.6-5.65-1.5-3.3-2.2-7.22-0.7-3.92-0.7-8.63v-0.31l0.2-0.32h16.79zm-0.8 0v-26.36h16.79l0.2 0.32v0.31q0 4.71-0.7 8.62-0.7 3.93-2.2 7.23-1.5 3.29-3.6 5.64-2.1 2.35-4.59 3.45-2.5 1.1-5.5 1.1h-0.2zm0-51.46l0.2-0.31h0.2q3 0 5.5 1.1 2.49 1.09 4.59 3.44 2.1 2.36 3.6 5.65 1.5 3.3 2.2 7.21 0.7 3.93 0.7 8.64v0.31l-0.2 0.32h-16.79zm0.8 0v26.36h-16.79l-0.2-0.32v-0.31q0-4.71 0.7-8.63 0.7-3.92 2.2-7.22 1.5-3.29 3.6-5.64 2.1-2.35 4.59-3.45 2.5-1.1 5.5-1.1h0.2zm11.59 145.6l-0.2 0.31h-0.2q-3 0-5.49-1.1-2.5-1.1-4.6-3.45-2.1-2.35-3.6-5.64-1.5-3.3-2.2-7.23-0.7-3.91-0.7-8.62v-0.31l0.2-0.32h16.79zm-0.8 0v-26.36h16.79l0.2 0.32v0.31q0 4.7-0.7 8.62-0.7 3.93-2.2 7.23-1.5 3.28-3.59 5.64-2.1 2.35-4.6 3.45-2.5 1.1-5.5 1.1h-0.2zm0-51.47l0.2-0.31h0.2q3 0 5.5 1.1 2.5 1.1 4.6 3.45 2.09 2.36 3.59 5.65 1.5 3.29 2.2 7.21 0.7 3.93 0.7 8.64v0.31l-0.2 0.32h-16.79zm0.8 0v26.36h-16.79l-0.2-0.32v-0.31q0-4.71 0.7-8.64 0.7-3.91 2.2-7.21 1.5-3.29 3.6-5.65 2.1-2.35 4.6-3.44 2.49-1.1 5.49-1.1h0.2zm8.4-42.68l-0.2 0.31h-0.2q-3 0-5.5-1.1-2.5-1.09-4.6-3.44-2.09-2.36-3.59-5.65-1.5-3.3-2.2-7.22-0.7-3.92-0.7-8.63v-0.31l0.2-0.32h16.79zm-0.8 0v-26.36h16.79l0.2 0.32v0.31q0 4.71-0.7 8.62-0.7 3.93-2.2 7.23-1.5 3.29-3.6 5.64-2.1 2.35-4.6 3.45-2.5 1.1-5.49 1.1h-0.2zm0-51.46l0.2-0.31h0.2q2.99 0 5.49 1.1 2.5 1.09 4.6 3.44 2.1 2.36 3.6 5.65 1.5 3.3 2.2 7.21 0.7 3.93 0.7 8.64v0.31l-0.2 0.32h-16.79zm0.8 0v26.36h-16.79l-0.2-0.32v-0.31q0-4.71 0.7-8.63 0.7-3.92 2.2-7.22 1.49-3.29 3.59-5.64 2.1-2.35 4.6-3.45 2.5-1.1 5.5-1.1h0.2zm11.59 145.6l-0.2 0.31h-0.2q-3 0-5.5-1.1-2.5-1.1-4.59-3.45-2.1-2.35-3.6-5.64-1.5-3.3-2.2-7.23-0.7-3.91-0.7-8.62v-0.31l0.2-0.32h16.79zm-0.8 0v-26.36h16.79l0.2 0.32v0.31q0 4.7-0.7 8.62-0.7 3.93-2.2 7.23-1.5 3.28-3.6 5.64-2.1 2.35-4.59 3.45-2.5 1.1-5.5 1.1h-0.2zm0-51.47l0.2-0.31h0.2q3 0 5.5 1.1 2.49 1.1 4.59 3.45 2.1 2.36 3.6 5.65 1.5 3.29 2.2 7.21 0.7 3.93 0.7 8.64v0.31l-0.2 0.32h-16.79zm0.8 0v26.36h-16.79l-0.2-0.32v-0.31q0-4.71 0.7-8.64 0.7-3.91 2.2-7.21 1.5-3.29 3.6-5.65 2.09-2.35 4.59-3.44 2.5-1.1 5.5-1.1h0.2zm8.39-42.68l-0.2 0.31h-0.2q-2.99 0-5.49-1.1-2.5-1.09-4.6-3.44-2.1-2.36-3.6-5.65-1.5-3.3-2.2-7.22-0.7-3.92-0.7-8.63v-0.31l0.2-0.32h16.79zm-0.8 0v-26.36h16.79l0.2 0.32v0.31q0 4.71-0.7 8.62-0.7 3.93-2.2 7.23-1.49 3.29-3.59 5.64-2.1 2.35-4.6 3.45-2.5 1.1-5.5 1.1h-0.2zm0-51.46l0.2-0.31h0.2q3 0 5.5 1.1 2.5 1.09 4.6 3.44 2.1 2.36 3.59 5.65 1.5 3.3 2.2 7.21 0.7 3.93 0.7 8.64v0.31l-0.2 0.32h-16.79zm0.8 0v26.36h-16.79l-0.2-0.32v-0.31q0-4.71 0.7-8.63 0.7-3.92 2.2-7.22 1.5-3.29 3.6-5.64 2.1-2.35 4.6-3.45 2.5-1.1 5.49-1.1h0.2zm6 208.36l-0.2 0.31h-0.2q-3 0-5.5-1.1-2.5-1.1-4.59-3.45-2.1-2.36-3.6-5.64-1.5-3.3-2.2-7.23-0.7-3.92-0.7-8.62v-0.31l0.2-0.32h16.79zm-0.8 0v-26.36h16.79l0.2 0.31v0.31q0 4.71-0.7 8.63-0.7 3.93-2.2 7.22-1.5 3.29-3.6 5.65-2.1 2.35-4.59 3.45-2.5 1.1-5.5 1.1h-0.2zm0-51.47l0.2-0.31h0.2q3 0 5.5 1.1 2.49 1.1 4.59 3.45 2.1 2.36 3.6 5.64 1.5 3.3 2.2 7.22 0.7 3.93 0.7 8.63v0.31l-0.2 0.32h-16.79zm0.8 0v26.37h-16.79l-0.2-0.32v-0.31q0-4.71 0.7-8.64 0.7-3.91 2.2-7.21 1.5-3.29 3.6-5.65 2.09-2.35 4.59-3.45 2.5-1.1 5.5-1.1h0.2zm2.8 20.09l-0.2 0.31h-0.2q-3 0-5.5-1.1-2.5-1.1-4.6-3.45-2.09-2.35-3.59-5.64-1.5-3.3-2.2-7.23-0.7-3.92-0.7-8.62v-0.31l0.2-0.32h16.79zm-0.8 0v-26.36h16.79l0.2 0.32v0.31q0 4.7-0.7 8.62-0.7 3.93-2.2 7.22-1.5 3.29-3.6 5.65-2.1 2.35-4.6 3.45-2.49 1.1-5.49 1.1h-0.2zm0-51.47l0.2-0.31h0.2q3 0 5.49 1.1 2.5 1.1 4.6 3.45 2.1 2.36 3.6 5.65 1.5 3.29 2.2 7.21 0.7 3.93 0.7 8.64v0.31l-0.2 0.31h-16.79zm0.8 0v26.37h-16.79l-0.2-0.32v-0.31q0-4.71 0.7-8.64 0.7-3.91 2.2-7.21 1.5-3.29 3.59-5.65 2.1-2.35 4.6-3.45 2.5-1.09 5.5-1.09h0.2zm2.8 20.08l-0.2 0.31h-0.2q-3 0-5.5-1.1-2.5-1.1-4.6-3.45-2.1-2.35-3.59-5.64-1.5-3.3-2.2-7.23-0.7-3.91-0.7-8.62v-0.31l0.2-0.32h16.79zm-0.8 0v-26.36h16.79l0.19 0.32v0.31q0 4.7-0.69 8.62-0.7 3.93-2.2 7.23-1.5 3.28-3.6 5.64-2.1 2.35-4.6 3.45-2.5 1.1-5.49 1.1h-0.2zm0-51.47l0.2-0.31h0.2q2.99 0 5.49 1.1 2.5 1.1 4.6 3.45 2.1 2.36 3.6 5.65 1.5 3.29 2.2 7.21 0.69 3.93 0.69 8.64v0.31l-0.2 0.32h-16.78zm0.8 0v26.36h-16.79l-0.2-0.32v-0.31q0-4.71 0.7-8.64 0.7-3.91 2.19-7.21 1.5-3.29 3.6-5.65 2.1-2.35 4.6-3.44 2.5-1.1 5.5-1.1h0.2zm2.79 20.08l-0.2 0.31h-0.2q-2.99 0-5.49-1.1-2.5-1.1-4.6-3.44-2.1-2.36-3.6-5.65-1.5-3.3-2.2-7.23-0.69-3.91-0.69-8.62v-0.31l0.19-0.32h16.79zm-0.8 0v-26.36h16.79l0.2 0.32v0.31q0 4.7-0.7 8.62-0.7 3.93-2.19 7.23-1.5 3.28-3.6 5.64-2.1 2.35-4.6 3.45-2.5 1.1-5.5 1.1h-0.2zm0-51.47l0.2-0.31h0.2q3 0 5.5 1.1 2.5 1.1 4.6 3.45 2.1 2.36 3.59 5.65 1.5 3.3 2.2 7.21 0.7 3.93 0.7 8.64v0.31l-0.2 0.32h-16.79zm0.8 0v26.36h-16.79l-0.2-0.32v-0.31q0-4.71 0.7-8.63 0.7-3.92 2.2-7.22 1.5-3.29 3.6-5.65 2.1-2.34 4.6-3.44 2.5-1.1 5.49-1.1h0.2zm2.8 20.08l-0.2 0.31h-0.2q-3 0-5.49-1.1-2.5-1.1-4.6-3.44-2.1-2.36-3.6-5.65-1.5-3.3-2.2-7.23-0.7-3.91-0.7-8.62v-0.31l0.2-0.32h16.79zm-0.8 0v-26.36h16.79l0.2 0.32v0.31q0 4.7-0.7 8.62-0.7 3.93-2.2 7.23-1.5 3.29-3.59 5.64-2.1 2.35-4.6 3.45-2.5 1.1-5.5 1.1h-0.2zm0-51.47l0.2-0.31h0.2q3 0 5.5 1.1 2.5 1.1 4.6 3.45 2.09 2.36 3.59 5.65 1.5 3.3 2.2 7.21 0.7 3.93 0.7 8.64v0.31l-0.2 0.32h-16.79zm0.8 0v26.36h-16.79l-0.2-0.32v-0.31q0-4.71 0.7-8.63 0.7-3.92 2.2-7.22 1.5-3.29 3.6-5.65 2.1-2.34 4.6-3.44 2.49-1.1 5.49-1.1h0.2zm28.78 176.98l-0.2 0.31h-0.2q-2.99 0-5.49-1.1-2.5-1.1-4.6-3.45-2.1-2.36-3.6-5.64-1.5-3.3-2.2-7.23-0.7-3.92-0.7-8.62v-0.31l0.2-0.32h16.79zm-0.8 0v-26.36h16.79l0.2 0.31v0.31q0 4.71-0.7 8.63-0.7 3.93-2.2 7.22-1.49 3.29-3.59 5.65-2.1 2.35-4.6 3.45-2.5 1.1-5.5 1.1h-0.2zm0-51.47l0.2-0.31h0.2q3 0 5.5 1.1 2.5 1.1 4.6 3.45 2.09 2.36 3.59 5.64 1.5 3.3 2.2 7.22 0.7 3.93 0.7 8.63v0.31l-0.2 0.32h-16.79zm0.8 0v26.37h-16.79l-0.2-0.32v-0.31q0-4.71 0.7-8.64 0.7-3.91 2.2-7.21 1.5-3.29 3.6-5.65 2.1-2.35 4.6-3.45 2.5-1.1 5.49-1.1h0.2zm2.8 20.09l-0.2 0.31h-0.2q-3 0-5.5-1.1-2.49-1.1-4.59-3.45-2.1-2.35-3.6-5.64-1.5-3.3-2.2-7.23-0.7-3.92-0.7-8.62v-0.31l0.2-0.32h16.79zm-0.8 0v-26.36h16.79l0.2 0.32v0.31q0 4.7-0.7 8.62-0.7 3.93-2.2 7.22-1.5 3.29-3.6 5.65-2.09 2.35-4.59 3.45-2.5 1.1-5.5 1.1h-0.2zm0-51.47l0.2-0.31h0.2q3 0 5.5 1.1 2.5 1.1 4.59 3.45 2.1 2.36 3.6 5.65 1.5 3.29 2.2 7.21 0.7 3.93 0.7 8.64v0.31l-0.2 0.31h-16.79zm0.8 0v26.37h-16.79l-0.2-0.32v-0.31q0-4.71 0.7-8.64 0.7-3.91 2.2-7.21 1.5-3.29 3.6-5.65 2.1-2.35 4.59-3.45 2.5-1.09 5.5-1.09h0.2zm2.8 20.08l-0.2 0.31h-0.2q-3 0-5.5-1.1-2.5-1.1-4.59-3.45-2.1-2.35-3.6-5.64-1.5-3.3-2.2-7.23-0.7-3.91-0.7-8.62v-0.31l0.2-0.32h16.79zm-0.8 0v-26.36h16.79l0.2 0.32v0.31q0 4.7-0.7 8.62-0.7 3.93-2.2 7.23-1.5 3.28-3.6 5.64-2.1 2.35-4.59 3.45-2.5 1.1-5.5 1.1h-0.2zm0-51.47l0.2-0.31h0.2q3 0 5.5 1.1 2.49 1.1 4.59 3.45 2.1 2.36 3.6 5.65 1.5 3.29 2.2 7.21 0.7 3.93 0.7 8.64v0.31l-0.2 0.32h-16.79zm0.8 0v26.36h-16.79l-0.2-0.32v-0.31q0-4.71 0.7-8.64 0.7-3.91 2.2-7.21 1.5-3.29 3.6-5.65 2.09-2.35 4.59-3.44 2.5-1.1 5.5-1.1h0.2zm2.8 20.08l-0.2 0.31h-0.2q-3 0-5.5-1.1-2.5-1.1-4.6-3.44-2.09-2.36-3.59-5.65-1.5-3.3-2.2-7.23-0.7-3.91-0.7-8.62v-0.31l0.2-0.32h16.79zm-0.8 0v-26.36h16.79l0.2 0.32v0.31q0 4.7-0.7 8.62-0.7 3.93-2.2 7.23-1.5 3.28-3.6 5.64-2.1 2.35-4.6 3.45-2.49 1.1-5.49 1.1h-0.2zm0-51.47l0.2-0.31h0.2q3 0 5.49 1.1 2.5 1.1 4.6 3.45 2.1 2.36 3.6 5.65 1.5 3.3 2.2 7.21 0.7 3.93 0.7 8.64v0.31l-0.2 0.32h-16.79zm0.8 0v26.36h-16.79l-0.2-0.32v-0.31q0-4.71 0.7-8.63 0.7-3.92 2.2-7.22 1.5-3.29 3.59-5.65 2.1-2.34 4.6-3.44 2.5-1.1 5.5-1.1h0.2zm2.8 20.08l-0.2 0.31h-0.2q-3 0-5.5-1.1-2.5-1.1-4.6-3.44-2.1-2.36-3.6-5.65-1.49-3.3-2.19-7.23-0.7-3.91-0.7-8.62v-0.31l0.2-0.32h16.79zm-0.8 0v-26.36h16.78l0.2 0.32v0.31q0 4.7-0.69 8.62-0.7 3.93-2.2 7.23-1.5 3.29-3.6 5.64-2.1 2.35-4.6 3.45-2.5 1.1-5.49 1.1h-0.2zm0-51.47l0.2-0.31h0.2q2.99 0 5.49 1.1 2.5 1.1 4.6 3.45 2.1 2.36 3.6 5.65 1.5 3.3 2.2 7.21 0.69 3.93 0.69 8.64v0.31l-0.2 0.32h-16.78zm0.8 0v26.36h-16.79l-0.2-0.32v-0.31q0-4.71 0.7-8.63 0.7-3.92 2.19-7.22 1.5-3.29 3.6-5.65 2.1-2.34 4.6-3.44 2.5-1.1 5.5-1.1h0.2zm2.79 20.08l-0.2 0.31h-0.2q-2.99 0-5.49-1.1-2.5-1.09-4.6-3.44-2.1-2.36-3.6-5.65-1.5-3.3-2.2-7.22-0.7-3.92-0.7-8.63v-0.31l0.2-0.32h16.79zm-0.8 0v-26.36h16.79l0.2 0.32v0.31q0 4.71-0.7 8.62-0.7 3.93-2.2 7.23-1.49 3.29-3.59 5.64-2.1 2.35-4.6 3.45-2.5 1.1-5.5 1.1h-0.2zm0-51.46l0.2-0.31h0.2q3 0 5.5 1.1 2.5 1.09 4.6 3.44 2.1 2.36 3.59 5.65 1.5 3.3 2.2 7.21 0.7 3.93 0.7 8.64v0.31l-0.2 0.32h-16.79zm0.8 0v26.36h-16.79l-0.2-0.32v-0.31q0-4.71 0.7-8.63 0.7-3.92 2.2-7.22 1.5-3.29 3.6-5.64 2.1-2.35 4.6-3.45 2.5-1.1 5.49-1.1h0.2zm6 208.36l-0.2 0.31h-0.2q-3 0-5.5-1.1-2.49-1.1-4.59-3.45-2.1-2.36-3.6-5.64-1.5-3.3-2.2-7.23-0.7-3.92-0.7-8.62v-0.31l0.2-0.32h16.79zm-0.8 0v-26.36h16.79l0.2 0.31v0.31q0 4.71-0.7 8.63-0.7 3.93-2.2 7.22-1.5 3.29-3.6 5.65-2.1 2.35-4.59 3.45-2.5 1.1-5.5 1.1h-0.2zm0-51.47l0.2-0.31h0.2q3 0 5.5 1.1 2.49 1.1 4.59 3.45 2.1 2.36 3.6 5.64 1.5 3.3 2.2 7.22 0.7 3.93 0.7 8.63v0.31l-0.2 0.32h-16.79zm0.8 0v26.37h-16.79l-0.2-0.32v-0.31q0-4.71 0.7-8.64 0.7-3.91 2.2-7.21 1.5-3.29 3.6-5.65 2.1-2.35 4.59-3.45 2.5-1.1 5.5-1.1h0.2zm13.99-105.43l-0.2 0.31h-0.2q-3 0-5.5-1.1-2.49-1.09-4.59-3.44-2.1-2.36-3.6-5.65-1.5-3.3-2.2-7.22-0.7-3.92-0.7-8.63v-0.31l0.2-0.32h16.79zm-0.8 0v-26.36h16.79l0.2 0.32v0.31q0 4.71-0.7 8.62-0.7 3.93-2.2 7.23-1.5 3.29-3.6 5.64-2.09 2.35-4.59 3.45-2.5 1.1-5.5 1.1h-0.2zm0-51.46l0.2-0.31h0.2q3 0 5.5 1.1 2.5 1.09 4.59 3.44 2.1 2.36 3.6 5.65 1.5 3.3 2.2 7.21 0.7 3.93 0.7 8.64v0.31l-0.2 0.32h-16.79zm0.8 0v26.36h-16.79l-0.2-0.32v-0.31q0-4.71 0.7-8.63 0.7-3.92 2.2-7.22 1.5-3.29 3.6-5.64 2.1-2.35 4.59-3.45 2.5-1.1 5.5-1.1h0.2zm6 208.36l-0.2 0.31h-0.2q-3 0-5.5-1.1-2.5-1.1-4.6-3.45-2.1-2.36-3.59-5.64-1.5-3.3-2.2-7.23-0.7-3.92-0.7-8.62v-0.31l0.2-0.32h16.79zm-0.8 0v-26.36h16.79l0.2 0.31v0.31q0 4.71-0.7 8.63-0.7 3.93-2.2 7.22-1.5 3.29-3.6 5.65-2.1 2.35-4.6 3.45-2.5 1.1-5.49 1.1h-0.2zm0-51.47l0.2-0.31h0.2q2.99 0 5.49 1.1 2.5 1.1 4.6 3.45 2.1 2.36 3.6 5.64 1.5 3.3 2.2 7.22 0.7 3.93 0.7 8.63v0.31l-0.2 0.32h-16.79zm0.8 0v26.37h-16.79l-0.2-0.32v-0.31q0-4.71 0.7-8.64 0.7-3.91 2.2-7.21 1.49-3.29 3.59-5.65 2.1-2.35 4.6-3.45 2.5-1.1 5.5-1.1h0.2zm13.99-105.43l-0.2 0.31h-0.2q-3 0-5.5-1.1-2.5-1.09-4.6-3.44-2.09-2.36-3.59-5.65-1.5-3.3-2.2-7.22-0.7-3.92-0.7-8.63v-0.31l0.2-0.32h16.79zm-0.8 0v-26.36h16.79l0.2 0.32v0.31q0 4.71-0.7 8.62-0.7 3.93-2.2 7.23-1.5 3.29-3.6 5.64-2.1 2.35-4.6 3.45-2.49 1.1-5.49 1.1h-0.2zm0-51.46l0.2-0.31h0.2q3 0 5.49 1.1 2.5 1.09 4.6 3.44 2.1 2.36 3.6 5.65 1.5 3.3 2.2 7.21 0.7 3.93 0.7 8.64v0.31l-0.2 0.32h-16.79zm0.8 0v26.36h-16.79l-0.2-0.32v-0.31q0-4.71 0.7-8.63 0.7-3.92 2.2-7.22 1.5-3.29 3.59-5.64 2.1-2.35 4.6-3.45 2.5-1.1 5.5-1.1h0.2zm5.99 208.36l-0.2 0.31h-0.2q-2.99 0-5.49-1.1-2.5-1.1-4.6-3.45-2.1-2.36-3.6-5.64-1.5-3.3-2.2-7.23-0.7-3.92-0.7-8.62v-0.31l0.2-0.32h16.79zm-0.8 0v-26.36h16.79l0.2 0.31v0.31q0 4.71-0.7 8.63-0.7 3.93-2.2 7.22-1.49 3.29-3.59 5.65-2.1 2.35-4.6 3.45-2.5 1.1-5.5 1.1h-0.2zm0-51.47l0.2-0.31h0.2q3 0 5.5 1.1 2.5 1.1 4.6 3.45 2.1 2.36 3.59 5.64 1.5 3.3 2.2 7.22 0.7 3.93 0.7 8.63v0.31l-0.2 0.32h-16.79zm0.8 0v26.37h-16.79l-0.2-0.32v-0.31q0-4.71 0.7-8.64 0.7-3.91 2.2-7.21 1.5-3.29 3.6-5.65 2.1-2.35 4.6-3.45 2.5-1.1 5.49-1.1h0.2zm13.99-105.43l-0.2 0.31h-0.2q-2.99 0-5.49-1.1-2.5-1.09-4.6-3.44-2.1-2.36-3.6-5.65-1.5-3.3-2.2-7.22-0.69-3.92-0.69-8.63v-0.31l0.19-0.32h16.79zm-0.8 0v-26.36h16.79l0.2 0.32v0.31q0 4.71-0.7 8.62-0.7 3.93-2.19 7.23-1.5 3.29-3.6 5.64-2.1 2.35-4.6 3.45-2.5 1.1-5.5 1.1h-0.2zm0-51.46l0.2-0.31h0.2q3 0 5.5 1.1 2.5 1.09 4.6 3.44 2.1 2.36 3.59 5.65 1.5 3.3 2.2 7.21 0.7 3.93 0.7 8.64v0.31l-0.2 0.32h-16.79zm0.8 0v26.36h-16.79l-0.2-0.32v-0.31q0-4.71 0.7-8.63 0.7-3.92 2.2-7.22 1.5-3.29 3.6-5.64 2.1-2.35 4.6-3.45 2.5-1.1 5.49-1.1h0.2zm8.8 176.98l-0.2 0.31h-0.2q-3 0-5.5-1.1-2.5-1.1-4.6-3.45-2.09-2.35-3.59-5.64-1.5-3.3-2.2-7.23-0.7-3.92-0.7-8.62v-0.31l0.2-0.32h16.79zm-0.8 0v-26.36h16.79l0.2 0.32v0.31q0 4.7-0.7 8.62-0.7 3.93-2.2 7.22-1.5 3.29-3.6 5.65-2.1 2.35-4.6 3.45-2.49 1.1-5.49 1.1h-0.2zm0-51.47l0.2-0.31h0.2q3 0 5.49 1.1 2.5 1.1 4.6 3.45 2.1 2.36 3.6 5.65 1.5 3.29 2.2 7.21 0.7 3.93 0.7 8.64v0.31l-0.2 0.31h-16.79zm0.8 0v26.37h-16.79l-0.2-0.32v-0.31q0-4.71 0.7-8.64 0.7-3.91 2.2-7.21 1.5-3.29 3.59-5.65 2.1-2.35 4.6-3.45 2.5-1.09 5.5-1.09h0.2zm2.8 20.08l-0.2 0.31h-0.2q-3 0-5.5-1.1-2.5-1.1-4.6-3.45-2.1-2.35-3.59-5.64-1.5-3.3-2.2-7.23-0.7-3.91-0.7-8.62v-0.31l0.2-0.32h16.79zm-0.8 0v-26.36h16.79l0.2 0.32v0.31q0 4.7-0.7 8.62-0.7 3.93-2.2 7.23-1.5 3.28-3.6 5.64-2.1 2.35-4.6 3.45-2.5 1.1-5.49 1.1h-0.2zm0-51.47l0.2-0.31h0.2q2.99 0 5.49 1.1 2.5 1.1 4.6 3.45 2.1 2.36 3.6 5.65 1.5 3.29 2.2 7.21 0.7 3.93 0.7 8.64v0.31l-0.2 0.32h-16.79zm0.8 0v26.36h-16.79l-0.2-0.32v-0.31q0-4.71 0.7-8.64 0.7-3.91 2.2-7.21 1.49-3.29 3.59-5.65 2.1-2.35 4.6-3.44 2.5-1.1 5.5-1.1h0.2zm2.79 20.08l-0.2 0.31h-0.2q-2.99 0-5.49-1.1-2.5-1.1-4.6-3.44-2.1-2.36-3.6-5.65-1.5-3.3-2.19-7.23-0.7-3.91-0.7-8.62v-0.31l0.2-0.32h16.78zm-0.8 0v-26.36h16.79l0.2 0.32v0.31q0 4.7-0.7 8.62-0.7 3.93-2.19 7.23-1.5 3.28-3.6 5.64-2.1 2.35-4.6 3.45-2.5 1.1-5.5 1.1h-0.2zm0-51.47l0.2-0.31h0.2q3 0 5.5 1.1 2.5 1.1 4.6 3.45 2.1 2.36 3.6 5.65 1.49 3.3 2.19 7.21 0.7 3.93 0.7 8.64v0.31l-0.2 0.32h-16.79zm0.8 0v26.36h-16.78l-0.2-0.32v-0.31q0-4.71 0.69-8.63 0.7-3.92 2.2-7.22 1.5-3.29 3.6-5.65 2.1-2.34 4.6-3.44 2.5-1.1 5.49-1.1h0.2zm2.8 20.08l-0.2 0.31h-0.2q-3 0-5.49-1.1-2.5-1.1-4.6-3.44-2.1-2.36-3.6-5.65-1.5-3.3-2.2-7.23-0.7-3.91-0.7-8.62v-0.31l0.2-0.32h16.79zm-0.8 0v-26.36h16.79l0.2 0.32v0.31q0 4.7-0.7 8.62-0.7 3.93-2.2 7.23-1.5 3.29-3.59 5.64-2.1 2.35-4.6 3.45-2.5 1.1-5.5 1.1h-0.2zm0-51.47l0.2-0.31h0.2q3 0 5.5 1.1 2.5 1.1 4.6 3.45 2.09 2.36 3.59 5.65 1.5 3.3 2.2 7.21 0.7 3.93 0.7 8.64v0.31l-0.2 0.32h-16.79zm0.8 0v26.36h-16.79l-0.2-0.32v-0.31q0-4.71 0.7-8.63 0.7-3.92 2.2-7.22 1.5-3.29 3.6-5.65 2.1-2.34 4.6-3.44 2.49-1.1 5.49-1.1h0.2zm28.78 176.98l-0.2 0.31h-0.2q-2.99 0-5.49-1.1-2.5-1.1-4.6-3.45-2.1-2.36-3.6-5.64-1.5-3.3-2.2-7.23-0.7-3.92-0.7-8.62v-0.31l0.2-0.32h16.79zm-0.8 0v-26.36h16.79l0.2 0.31v0.31q0 4.71-0.7 8.63-0.7 3.93-2.2 7.22-1.49 3.29-3.59 5.65-2.1 2.35-4.6 3.45-2.5 1.1-5.5 1.1h-0.2zm0-51.47l0.2-0.31h0.2q3 0 5.5 1.1 2.5 1.1 4.6 3.45 2.1 2.36 3.59 5.64 1.5 3.3 2.2 7.22 0.7 3.93 0.7 8.63v0.31l-0.2 0.32h-16.79zm0.8 0v26.37h-16.79l-0.2-0.32v-0.31q0-4.71 0.7-8.64 0.7-3.91 2.2-7.21 1.5-3.29 3.6-5.65 2.1-2.35 4.6-3.45 2.5-1.1 5.49-1.1h0.2zm2.8 20.09l-0.2 0.31h-0.2q-3 0-5.49-1.1-2.5-1.1-4.6-3.45-2.1-2.35-3.6-5.64-1.5-3.3-2.2-7.23-0.7-3.92-0.7-8.62v-0.31l0.2-0.32h16.79zm-0.8 0v-26.36h16.79l0.2 0.32v0.31q0 4.7-0.7 8.62-0.7 3.93-2.2 7.22-1.5 3.29-3.59 5.65-2.1 2.35-4.6 3.45-2.5 1.1-5.5 1.1h-0.2zm0-51.47l0.2-0.31h0.2q3 0 5.5 1.1 2.5 1.1 4.59 3.45 2.1 2.36 3.6 5.65 1.5 3.29 2.2 7.21 0.7 3.93 0.7 8.64v0.31l-0.2 0.31h-16.79zm0.8 0v26.37h-16.79l-0.2-0.32v-0.31q0-4.71 0.7-8.64 0.7-3.91 2.2-7.21 1.5-3.29 3.6-5.65 2.1-2.35 4.6-3.45 2.49-1.09 5.49-1.09h0.2zm2.8 20.08l-0.2 0.31h-0.2q-3 0-5.5-1.1-2.49-1.1-4.59-3.45-2.1-2.35-3.6-5.64-1.5-3.3-2.2-7.23-0.7-3.91-0.7-8.62v-0.31l0.2-0.32h16.79zm-0.8 0v-26.36h16.79l0.2 0.32v0.31q0 4.7-0.7 8.62-0.7 3.93-2.2 7.23-1.5 3.28-3.6 5.64-2.1 2.35-4.59 3.45-2.5 1.1-5.5 1.1h-0.2zm0-51.47l0.2-0.31h0.2q3 0 5.5 1.1 2.49 1.1 4.59 3.45 2.1 2.36 3.6 5.65 1.5 3.29 2.2 7.21 0.7 3.93 0.7 8.64v0.31l-0.2 0.32h-16.79zm0.8 0v26.36h-16.79l-0.2-0.32v-0.31q0-4.71 0.7-8.64 0.7-3.91 2.2-7.21 1.5-3.29 3.6-5.65 2.1-2.35 4.59-3.44 2.5-1.1 5.5-1.1h0.2zm2.8 20.08l-0.2 0.31h-0.2q-3 0-5.5-1.1-2.5-1.1-4.6-3.44-2.09-2.36-3.59-5.65-1.5-3.3-2.2-7.23-0.7-3.91-0.7-8.62v-0.31l0.2-0.32h16.79zm-0.8 0v-26.36h16.79l0.2 0.32v0.31q0 4.7-0.7 8.62-0.7 3.93-2.2 7.23-1.5 3.28-3.6 5.64-2.1 2.35-4.6 3.45-2.49 1.1-5.49 1.1h-0.2zm0-51.47l0.2-0.31h0.2q3 0 5.49 1.1 2.5 1.1 4.6 3.45 2.1 2.36 3.6 5.65 1.5 3.3 2.2 7.21 0.7 3.93 0.7 8.64v0.31l-0.2 0.32h-16.79zm0.8 0v26.36h-16.79l-0.2-0.32v-0.31q0-4.71 0.7-8.63 0.7-3.92 2.2-7.22 1.5-3.29 3.59-5.65 2.1-2.34 4.6-3.44 2.5-1.1 5.5-1.1h0.2zm2.8 20.08l-0.2 0.31h-0.2q-3 0-5.5-1.1-2.5-1.1-4.6-3.44-2.1-2.36-3.59-5.65-1.5-3.3-2.2-7.23-0.7-3.91-0.7-8.62v-0.31l0.2-0.32h16.79zm-0.8 0v-26.36h16.79l0.2 0.32v0.31q0 4.7-0.7 8.62-0.7 3.93-2.2 7.23-1.5 3.29-3.6 5.64-2.1 2.35-4.6 3.45-2.5 1.1-5.49 1.1h-0.2zm0-51.47l0.2-0.31h0.2q2.99 0 5.49 1.1 2.5 1.1 4.6 3.45 2.1 2.36 3.6 5.65 1.5 3.3 2.2 7.21 0.7 3.93 0.7 8.64v0.31l-0.2 0.32h-16.79zm0.8 0v26.36h-16.79l-0.2-0.32v-0.31q0-4.71 0.7-8.63 0.7-3.92 2.2-7.22 1.49-3.29 3.59-5.65 2.1-2.34 4.6-3.44 2.5-1.1 5.5-1.1h0.2zm2.79 20.08l-0.2 0.31h-0.2q-2.99 0-5.49-1.1-2.5-1.09-4.6-3.44-2.1-2.36-3.6-5.65-1.5-3.3-2.2-7.22-0.69-3.92-0.69-8.63v-0.31l0.2-0.32h16.78zm-0.8 0v-26.36h16.79l0.2 0.32v0.31q0 4.71-0.7 8.62-0.7 3.93-2.19 7.23-1.5 3.29-3.6 5.64-2.1 2.35-4.6 3.45-2.5 1.1-5.5 1.1h-0.2zm0-51.46l0.2-0.31h0.2q3 0 5.5 1.1 2.5 1.09 4.6 3.44 2.1 2.36 3.6 5.65 1.49 3.3 2.19 7.21 0.7 3.93 0.7 8.64v0.31l-0.2 0.32h-16.79zm0.8 0v26.36h-16.78l-0.2-0.32v-0.31q0-4.71 0.69-8.63 0.7-3.92 2.2-7.22 1.5-3.29 3.6-5.64 2.1-2.35 4.6-3.45 2.5-1.1 5.49-1.1h0.2zm6 208.36l-0.2 0.31h-0.2q-3 0-5.5-1.1-2.49-1.1-4.59-3.45-2.1-2.36-3.6-5.64-1.5-3.3-2.2-7.23-0.7-3.92-0.7-8.62v-0.31l0.2-0.32h16.79zm-0.8 0v-26.36h16.79l0.2 0.31v0.31q0 4.71-0.7 8.63-0.7 3.93-2.2 7.22-1.5 3.29-3.6 5.65-2.09 2.35-4.59 3.45-2.5 1.1-5.5 1.1h-0.2zm0-51.47l0.2-0.31h0.2q3 0 5.5 1.1 2.49 1.1 4.59 3.45 2.1 2.36 3.6 5.64 1.5 3.3 2.2 7.22 0.7 3.93 0.7 8.63v0.31l-0.2 0.32h-16.79zm0.8 0v26.37h-16.79l-0.2-0.32v-0.31q0-4.71 0.7-8.64 0.7-3.91 2.2-7.21 1.5-3.29 3.6-5.65 2.1-2.35 4.59-3.45 2.5-1.1 5.5-1.1h0.2zm8.39-42.67l-0.2 0.31h-0.2q-2.99 0-5.49-1.1-2.5-1.1-4.6-3.44-2.1-2.36-3.6-5.65-1.5-3.3-2.19-7.23-0.7-3.91-0.7-8.62v-0.31l0.2-0.32h16.78zm-0.79 0v-26.36h16.78l0.2 0.32v0.31q0 4.7-0.7 8.62-0.7 3.93-2.19 7.23-1.5 3.28-3.6 5.64-2.1 2.35-4.6 3.45-2.5 1.1-5.5 1.1h-0.2zm0-51.47l0.2-0.31h0.2q3 0 5.5 1.1 2.5 1.1 4.6 3.45 2.1 2.36 3.6 5.65 1.49 3.3 2.19 7.21 0.7 3.93 0.7 8.64v0.31l-0.2 0.32h-16.79zm0.8 0v26.36h-16.78l-0.2-0.32v-0.31q0-4.71 0.7-8.63 0.69-3.92 2.19-7.22 1.5-3.29 3.6-5.65 2.1-2.34 4.6-3.44 2.5-1.1 5.49-1.1h0.2zm5.6-11.3l-0.2 0.31h-0.2q-3 0-5.5-1.1-2.49-1.09-4.59-3.44-2.1-2.36-3.6-5.65-1.5-3.3-2.2-7.22-0.7-3.92-0.7-8.63v-0.31l0.2-0.32h16.79zm-0.8 0v-26.36h16.79l0.2 0.32v0.31q0 4.71-0.7 8.62-0.7 3.93-2.2 7.23-1.5 3.29-3.6 5.64-2.09 2.35-4.59 3.45-2.5 1.1-5.5 1.1h-0.2zm0-51.46l0.2-0.31h0.2q3 0 5.5 1.1 2.5 1.09 4.59 3.44 2.1 2.36 3.6 5.65 1.5 3.3 2.2 7.21 0.7 3.93 0.7 8.64v0.31l-0.2 0.32h-16.79zm0.8 0v26.36h-16.79l-0.2-0.32v-0.31q0-4.71 0.7-8.63 0.7-3.92 2.2-7.22 1.5-3.29 3.6-5.64 2.1-2.35 4.59-3.45 2.5-1.1 5.5-1.1h0.2zm6 208.36l-0.2 0.31h-0.2q-3 0-5.5-1.1-2.5-1.1-4.6-3.45-2.09-2.36-3.59-5.64-1.5-3.3-2.2-7.23-0.7-3.92-0.7-8.62v-0.31l0.2-0.32h16.79zm-0.8 0v-26.36h16.79l0.2 0.31v0.31q0 4.71-0.7 8.63-0.7 3.93-2.2 7.22-1.5 3.29-3.6 5.65-2.1 2.35-4.6 3.45-2.49 1.1-5.49 1.1h-0.2zm0-51.47l0.2-0.31h0.2q2.99 0 5.49 1.1 2.5 1.1 4.6 3.45 2.1 2.36 3.6 5.64 1.5 3.3 2.2 7.22 0.7 3.93 0.7 8.63v0.31l-0.2 0.32h-16.79zm0.8 0v26.37h-16.79l-0.2-0.32v-0.31q0-4.71 0.7-8.64 0.7-3.91 2.2-7.21 1.5-3.29 3.59-5.65 2.1-2.35 4.6-3.45 2.5-1.1 5.5-1.1h0.2zm8.39-42.67l-0.2 0.31h-0.2q-3 0-5.49-1.1-2.5-1.1-4.6-3.44-2.1-2.36-3.6-5.65-1.5-3.3-2.2-7.23-0.7-3.91-0.7-8.62v-0.31l0.2-0.32h16.79zm-0.8 0v-26.36h16.79l0.2 0.32v0.31q0 4.7-0.7 8.62-0.7 3.93-2.2 7.23-1.5 3.28-3.6 5.64-2.09 2.35-4.59 3.45-2.5 1.1-5.5 1.1h-0.2zm0-51.47l0.2-0.31h0.2q3 0 5.5 1.1 2.5 1.1 4.59 3.45 2.1 2.36 3.6 5.65 1.5 3.3 2.2 7.21 0.7 3.93 0.7 8.64v0.31l-0.2 0.32h-16.79zm0.8 0v26.36h-16.79l-0.2-0.32v-0.31q0-4.71 0.7-8.63 0.7-3.92 2.2-7.22 1.5-3.29 3.6-5.65 2.1-2.34 4.6-3.44 2.49-1.1 5.49-1.1h0.2zm5.6-11.3l-0.2 0.31h-0.2q-3 0-5.5-1.1-2.5-1.09-4.6-3.44-2.09-2.36-3.59-5.65-1.5-3.3-2.2-7.22-0.7-3.92-0.7-8.63v-0.31l0.2-0.32h16.79zm-0.8 0v-26.36h16.79l0.2 0.32v0.31q0 4.71-0.7 8.62-0.7 3.93-2.2 7.23-1.5 3.29-3.6 5.64-2.1 2.35-4.6 3.45-2.49 1.1-5.49 1.1h-0.2zm0-51.46l0.2-0.31h0.2q3 0 5.49 1.1 2.5 1.09 4.6 3.44 2.1 2.36 3.6 5.65 1.5 3.3 2.2 7.21 0.7 3.93 0.7 8.64v0.31l-0.2 0.32h-16.79zm0.8 0v26.36h-16.79l-0.2-0.32v-0.31q0-4.71 0.7-8.63 0.7-3.92 2.2-7.22 1.5-3.29 3.59-5.64 2.1-2.35 4.6-3.45 2.5-1.1 5.5-1.1h0.2zm5.99 208.36l-0.2 0.31h-0.2q-2.99 0-5.49-1.1-2.5-1.1-4.6-3.45-2.1-2.36-3.6-5.64-1.5-3.3-2.2-7.23-0.7-3.92-0.7-8.62v-0.31l0.2-0.32h16.79zm-0.8 0v-26.36h16.79l0.2 0.31v0.31q0 4.71-0.7 8.63-0.7 3.93-2.2 7.22-1.49 3.29-3.59 5.65-2.1 2.35-4.6 3.45-2.5 1.1-5.5 1.1h-0.2zm0-51.47l0.2-0.31h0.2q3 0 5.5 1.1 2.5 1.1 4.6 3.45 2.1 2.36 3.59 5.64 1.5 3.3 2.2 7.22 0.7 3.93 0.7 8.63v0.31l-0.2 0.32h-16.79zm0.8 0v26.37h-16.79l-0.2-0.32v-0.31q0-4.71 0.7-8.64 0.7-3.91 2.2-7.21 1.5-3.29 3.6-5.65 2.1-2.35 4.6-3.45 2.5-1.1 5.49-1.1h0.2zm8.4-42.67l-0.2 0.31h-0.2q-3 0-5.5-1.1-2.5-1.1-4.6-3.44-2.09-2.36-3.59-5.65-1.5-3.3-2.2-7.23-0.7-3.91-0.7-8.62v-0.31l0.2-0.32h16.79zm-0.8 0v-26.36h16.79l0.2 0.32v0.31q0 4.7-0.7 8.62-0.7 3.93-2.2 7.23-1.5 3.28-3.6 5.64-2.1 2.35-4.6 3.45-2.49 1.1-5.49 1.1h-0.2zm0-51.47l0.2-0.31h0.2q3 0 5.49 1.1 2.5 1.1 4.6 3.45 2.1 2.36 3.6 5.65 1.5 3.3 2.2 7.21 0.7 3.93 0.7 8.64v0.31l-0.2 0.32h-16.79zm0.8 0v26.36h-16.79l-0.2-0.32v-0.31q0-4.71 0.7-8.63 0.7-3.92 2.2-7.22 1.5-3.29 3.59-5.65 2.1-2.34 4.6-3.44 2.5-1.1 5.5-1.1h0.2zm5.59-11.3l-0.2 0.31h-0.2q-2.99 0-5.49-1.1-2.5-1.09-4.6-3.44-2.1-2.36-3.6-5.65-1.5-3.3-2.19-7.22-0.7-3.92-0.7-8.63v-0.31l0.2-0.32h16.78zm-0.8 0v-26.36h16.79l0.2 0.32v0.31q0 4.71-0.7 8.62-0.7 3.93-2.19 7.23-1.5 3.29-3.6 5.64-2.1 2.35-4.6 3.45-2.5 1.1-5.5 1.1h-0.2zm0-51.46l0.2-0.31h0.2q3 0 5.5 1.1 2.5 1.09 4.6 3.44 2.1 2.36 3.6 5.65 1.49 3.3 2.19 7.21 0.7 3.93 0.7 8.64v0.31l-0.2 0.32h-16.79zm0.8 0v26.36h-16.78l-0.2-0.32v-0.31q0-4.71 0.69-8.63 0.7-3.92 2.2-7.22 1.5-3.29 3.6-5.64 2.1-2.35 4.6-3.45 2.5-1.1 5.49-1.1h0.2zm6 208.36l-0.2 0.31h-0.2q-3 0-5.5-1.1-2.49-1.1-4.59-3.45-2.1-2.36-3.6-5.64-1.5-3.3-2.2-7.23-0.7-3.92-0.7-8.62v-0.31l0.2-0.32h16.79zm-0.8 0v-26.36h16.79l0.2 0.31v0.31q0 4.71-0.7 8.63-0.7 3.93-2.2 7.22-1.5 3.29-3.6 5.65-2.09 2.35-4.59 3.45-2.5 1.1-5.5 1.1h-0.2zm0-51.47l0.2-0.31h0.2q3 0 5.5 1.1 2.5 1.1 4.59 3.45 2.1 2.36 3.6 5.64 1.5 3.3 2.2 7.22 0.7 3.93 0.7 8.63v0.31l-0.2 0.32h-16.79zm0.8 0v26.37h-16.79l-0.2-0.32v-0.31q0-4.71 0.7-8.64 0.7-3.91 2.2-7.21 1.5-3.29 3.6-5.65 2.1-2.35 4.59-3.45 2.5-1.1 5.5-1.1h0.2zm13.99-105.43l-0.2 0.31h-0.2q-3 0-5.5-1.1-2.49-1.09-4.59-3.44-2.1-2.36-3.6-5.65-1.5-3.3-2.2-7.22-0.7-3.92-0.7-8.63v-0.31l0.2-0.32h16.79zm-0.8 0v-26.36h16.79l0.2 0.32v0.31q0 4.71-0.7 8.62-0.7 3.93-2.2 7.23-1.5 3.29-3.6 5.64-2.09 2.35-4.59 3.45-2.5 1.1-5.5 1.1h-0.2zm0-51.46l0.2-0.31h0.2q3 0 5.5 1.1 2.5 1.09 4.59 3.44 2.1 2.36 3.6 5.65 1.5 3.3 2.2 7.21 0.7 3.93 0.7 8.64v0.31l-0.2 0.32h-16.79zm0.8 0v26.36h-16.79l-0.2-0.32v-0.31q0-4.71 0.7-8.63 0.7-3.92 2.2-7.22 1.5-3.29 3.6-5.64 2.1-2.35 4.59-3.45 2.5-1.1 5.5-1.1h0.2z"/>
</svg>
