<svg xmlns="http://www.w3.org/2000/svg" viewBox="0 0 689.63 198.89" width="689.63" height="198.89">
  <path d="M51.85 -37.04L59.26 -37.04L59.26 -46.3L81.48 -46.3L81.48 -18.52L74.07 -18.52L74.07 -9.26L66.67 -9.26L66.67 0L22.22 0L22.22 -9.26L14.81 -9.26L14.81 -18.52L7.41 -18.52L7.41 -120.37L14.81 -120.37L14.81 -129.63L22.22 -129.63L22.22 -138.89L66.67 -138.89L66.67 -129.63L74.07 -129.63L74.07 -120.37L81.48 -120.37L81.48 -92.59L59.26 -92.59L59.26 -101.85L51.85 -101.85L51.85 -111.11L37.04 -111.11L37.04 -101.85L29.63 -101.85L29.63 -37.04L37.04 -37.04L37.04 -27.78L51.85 -27.78ZM118.52 -27.78L148.15 -27.78L148.15 -74.07L118.52 -74.07ZM103.7 -18.52L96.3 -18.52L96.3 -83.33L103.7 -83.33L103.7 -92.59L111.11 -92.59L111.11 -101.85L155.56 -101.85L155.56 -92.59L162.96 -92.59L162.96 -83.33L170.37 -83.33L170.37 -18.52L162.96 -18.52L162.96 -9.26L155.56 -9.26L155.56 0L111.11 0L111.11 -9.26L103.7 -9.26ZM207.41 -92.59L214.81 -92.59L214.81 -101.85L237.04 -101.85L237.04 -92.59L244.44 -92.59L244.44 -83.33L251.85 -83.33L251.85 -92.59L259.26 -92.59L259.26 -101.85L281.48 -101.85L281.48 -92.59L288.89 -92.59L288.89 -83.33L296.3 -83.33L296.3 0L274.07 0L274.07 -74.07L259.26 -74.07L259.26 -64.81L251.85 -64.81L251.85 0L229.63 0L229.63 -74.07L214.81 -74.07L214.81 -64.81L207.41 -64.81L207.41 0L185.19 0L185.19 -101.85L207.41 -101.85ZM333.33 -92.59L340.74 -92.59L340.74 -101.85L370.37 -101.85L370.37 -92.59L377.78 -92.59L377.78 -83.33L370.37 -83.33L370.37 -74.07L362.96 -74.07L362.96 -64.81L355.56 -64.81L355.56 -74.07L340.74 -74.07L340.74 -64.81L333.33 -64.81L333.33 0L311.11 0L311.11 -101.85L333.33 -101.85ZM385.19 -46.3L392.59 -46.3L392.59 -55.56L400 -55.56L400 -64.81L437.04 -64.81L437.04 -74.07L385.19 -74.07L385.19 -83.33L392.59 -83.33L392.59 -92.59L400 -92.59L400 -101.85L444.44 -101.85L444.44 -92.59L451.85 -92.59L451.85 -83.33L459.26 -83.33L459.26 0L437.04 0L437.04 -9.26L429.63 -9.26L429.63 0L400 0L400 -9.26L392.59 -9.26L392.59 -18.52L385.19 -18.52ZM407.41 -27.78L437.04 -27.78L437.04 -46.3L407.41 -46.3ZM518.52 -37.04L525.93 -37.04L525.93 -74.07L496.3 -74.07L496.3 -27.78L518.52 -27.78ZM548.15 -138.89L548.15 0L525.93 0L525.93 -9.26L518.52 -9.26L518.52 0L488.89 0L488.89 -9.26L481.48 -9.26L481.48 -18.52L474.07 -18.52L474.07 -83.33L481.48 -83.33L481.48 -92.59L488.89 -92.59L488.89 -101.85L525.93 -101.85L525.93 -138.89ZM570.37 -18.52L562.96 -18.52L562.96 -83.33L570.37 -83.33L570.37 -92.59L577.78 -92.59L577.78 -101.85L622.22 -101.85L622.22 -92.59L629.63 -92.59L629.63 -83.33L637.04 -83.33L637.04 -37.04L585.19 -37.04L585.19 -27.78L637.04 -27.78L637.04 -18.52L629.63 -18.52L629.63 -9.26L622.22 -9.26L622.22 0L577.78 0L577.78 -9.26L570.37 -9.26ZM585.19 -55.56L614.81 -55.56L614.81 -74.07L585.19 -74.07Z" fill="#333333" transform="translate(22.59,168.89)"/>
</svg>
