<svg version="1.2" xmlns="http://www.w3.org/2000/svg" viewBox="0 0 904 270" width="904" height="270"><path d="m46.97 208.33-.2.31h-.2q-3 0-5.5-1.1t-4.59-3.45q-2.1-2.35-3.6-5.64-1.5-3.3-2.2-7.23-.7-3.92-.7-8.62v-.31l.2-.32h16.79zm-.8 0v-26.36h16.79l.2.32v.31q0 4.7-.7 8.62-.7 3.93-2.2 7.22t-3.6 5.65q-2.1 2.35-4.59 3.45-2.5 1.1-5.5 1.1h-.2zm0-51.47.2-.31h.2q3 0 5.5 1.1 2.49 1.1 4.59 3.45 2.1 2.36 3.6 5.65t2.2 7.21q.7 3.93.7 8.64v.31l-.2.31H46.17zm.8 0v26.37H30.18l-.2-.32v-.31q0-4.71.7-8.64.7-3.91 2.2-7.21 1.5-3.29 3.6-5.65 2.09-2.35 4.59-3.45 2.5-1.09 5.5-1.09h.2zm2.8 20.08-.2.31h-.2q-3 0-5.5-1.1t-4.6-3.45q-2.09-2.35-3.59-5.64-1.5-3.3-2.2-7.23-.7-3.91-.7-8.62v-.31l.2-.32h16.79zm-.8 0v-26.36h16.79l.2.32v.31q0 4.7-.7 8.62-.7 3.93-2.2 7.23-1.5 3.28-3.6 5.64-2.1 2.35-4.6 3.45-2.49 1.1-5.49 1.1h-.2zm0-51.47.2-.31h.2q3 0 5.49 1.1 2.5 1.1 4.6 3.45 2.1 2.36 3.6 5.65t2.2 7.21q.7 3.93.7 8.64v.31l-.2.32H48.97zm.8 0v26.36H32.98l-.2-.32v-.31q0-4.71.7-8.64.7-3.91 2.2-7.21 1.5-3.29 3.59-5.65 2.1-2.35 4.6-3.44 2.5-1.1 5.5-1.1h.2zm2.8 20.08-.2.31h-.2q-3 0-5.5-1.1t-4.6-3.44q-2.1-2.36-3.6-5.65-1.49-3.3-2.19-7.23-.7-3.91-.7-8.62v-.31l.2-.32h16.79zm-.8 0v-26.36h16.78l.2.32v.31q0 4.7-.7 8.62-.69 3.93-2.19 7.23-1.5 3.28-3.6 5.64-2.1 2.35-4.6 3.45t-5.49 1.1h-.2zm0-51.47.2-.31h.2q2.99 0 5.49 1.1t4.6 3.45q2.1 2.36 3.6 5.65 1.5 3.3 2.19 7.21.7 3.93.7 8.64v.31l-.2.32H51.77zm.79 0v26.36H35.78l-.2-.32v-.31q0-4.71.7-8.63t2.19-7.22q1.5-3.29 3.6-5.65 2.1-2.34 4.6-3.44t5.5-1.1h.2zm2.79 20.08-.2.31h-.2q-2.99 0-5.49-1.1t-4.6-3.44q-2.1-2.36-3.6-5.65-1.5-3.3-2.2-7.23-.7-3.91-.7-8.62v-.31l.2-.32h16.79zm-.8 0V87.8h16.79l.2.32v.31q0 4.7-.7 8.62-.7 3.93-2.2 7.23-1.49 3.29-3.59 5.64t-4.6 3.45-5.5 1.1h-.2zm0-51.47.2-.31h.2q3 0 5.5 1.1t4.6 3.45q2.1 2.36 3.59 5.65 1.5 3.3 2.2 7.21.7 3.93.7 8.64v.31l-.2.32H54.55zm.8 0v26.36H38.56l-.2-.32v-.31q0-4.71.7-8.63t2.2-7.22q1.5-3.29 3.6-5.65 2.1-2.34 4.6-3.44t5.49-1.1h.2zm8.8 176.98-.2.31h-.2q-3 0-5.5-1.1t-4.6-3.45q-2.09-2.36-3.59-5.64-1.5-3.3-2.2-7.23-.7-3.92-.7-8.62v-.31l.2-.32h16.79zm-.8 0v-26.36h16.79l.2.31v.31q0 4.71-.7 8.63-.7 3.93-2.2 7.22t-3.6 5.65q-2.1 2.35-4.6 3.45-2.49 1.1-5.49 1.1h-.2zm0-51.47.2-.31h.2q3 0 5.49 1.1 2.5 1.1 4.6 3.45 2.1 2.36 3.6 5.64 1.5 3.3 2.2 7.22.7 3.93.7 8.63v.31l-.2.32H63.35zm.8 0v26.37H47.36l-.2-.32v-.31q0-4.71.7-8.64.7-3.91 2.2-7.21 1.5-3.29 3.59-5.65 2.1-2.35 4.6-3.45t5.5-1.1h.2zM78.14 82.77l-.2.31h-.2q-3 0-5.5-1.1-2.5-1.09-4.59-3.44-2.1-2.36-3.6-5.65-1.5-3.3-2.2-7.22t-.7-8.63v-.31l.2-.32h16.79zm-.8 0V56.41h16.79l.2.32v.31q0 4.71-.7 8.62-.7 3.93-2.2 7.23-1.5 3.29-3.6 5.64t-4.6 3.45q-2.49 1.1-5.49 1.1h-.2zm0-51.46.2-.31h.2q3 0 5.49 1.1 2.5 1.09 4.6 3.44 2.1 2.36 3.6 5.65 1.5 3.3 2.2 7.21.7 3.93.7 8.64v.31l-.2.32H77.34zm.8 0v26.36H61.35l-.2-.32v-.31q0-4.71.7-8.63t2.2-7.22q1.5-3.29 3.59-5.64 2.1-2.35 4.6-3.45t5.5-1.1h.2zm5.99 208.36-.2.31h-.2q-2.99 0-5.49-1.1t-4.6-3.45q-2.1-2.36-3.6-5.64-1.5-3.3-2.2-7.23-.69-3.92-.69-8.62v-.31l.2-.32h16.78zm-.8 0v-26.36h16.79l.2.31v.31q0 4.71-.7 8.63-.7 3.93-2.19 7.22-1.5 3.29-3.6 5.65-2.1 2.35-4.6 3.45t-5.5 1.1h-.2zm0-51.47.2-.31h.2q3 0 5.5 1.1t4.6 3.45q2.1 2.36 3.6 5.64 1.49 3.3 2.19 7.22.7 3.93.7 8.63v.31l-.2.32H83.33zm.8 0v26.37H67.35l-.2-.32v-.31q0-4.71.69-8.64.7-3.91 2.2-7.21 1.5-3.29 3.6-5.65 2.1-2.35 4.6-3.45t5.49-1.1h.2zM98.12 82.77l-.19.31h-.2q-3 0-5.5-1.1-2.5-1.09-4.6-3.44-2.1-2.36-3.6-5.65-1.49-3.3-2.19-7.22t-.7-8.63v-.31l.2-.32h16.78zm-.79 0V56.41h16.78l.2.32v.31q0 4.71-.7 8.62-.69 3.93-2.19 7.23-1.5 3.29-3.6 5.64t-4.6 3.45-5.49 1.1h-.2zm0-51.46.2-.31h.2q2.99 0 5.49 1.1 2.5 1.09 4.6 3.44 2.1 2.36 3.6 5.65 1.49 3.3 2.19 7.21.7 3.93.7 8.64v.31l-.2.32H97.33zm.79 0v26.36H81.34l-.2-.32v-.31q0-4.71.7-8.63t2.19-7.22q1.5-3.29 3.6-5.64t4.6-3.45 5.5-1.1h.19zm6 208.36-.2.31h-.2q-3 0-5.5-1.1-2.49-1.1-4.59-3.45-2.1-2.36-3.6-5.64-1.5-3.3-2.2-7.23-.7-3.92-.7-8.62v-.31l.2-.32h16.79zm-.8 0v-26.36h16.79l.2.31v.31q0 4.71-.7 8.63-.7 3.93-2.2 7.22t-3.6 5.65q-2.09 2.35-4.59 3.45t-5.5 1.1h-.2zm0-51.47.2-.31h.2q3 0 5.5 1.1t4.59 3.45q2.1 2.36 3.6 5.64 1.5 3.3 2.2 7.22.7 3.93.7 8.63v.31l-.2.32h-16.79zm.8 0v26.37H87.33l-.2-.32v-.31q0-4.71.7-8.64.7-3.91 2.2-7.21 1.5-3.29 3.6-5.65 2.1-2.35 4.59-3.45 2.5-1.1 5.5-1.1h.2zm13.99-105.43-.2.31h-.2q-3 0-5.49-1.1-2.5-1.09-4.6-3.44-2.1-2.36-3.6-5.65-1.5-3.3-2.2-7.22t-.7-8.63v-.31l.2-.32h16.79zm-.8 0V56.41h16.79l.2.32v.31q0 4.71-.7 8.62-.7 3.93-2.2 7.23-1.5 3.29-3.59 5.64-2.1 2.35-4.6 3.45t-5.5 1.1h-.2zm0-51.46.2-.31h.2q3 0 5.5 1.1 2.5 1.09 4.6 3.44 2.09 2.36 3.59 5.65 1.5 3.3 2.2 7.21.7 3.93.7 8.64v.31l-.2.32h-16.79zm.8 0v26.36h-16.79l-.2-.32v-.31q0-4.71.7-8.63t2.2-7.22q1.5-3.29 3.6-5.64t4.6-3.45q2.49-1.1 5.49-1.1h.2zm8.8 176.98-.2.31h-.2q-3 0-5.5-1.1t-4.6-3.45-3.59-5.64q-1.5-3.3-2.2-7.23-.7-3.92-.7-8.62v-.31l.2-.32h16.79zm-.8 0v-26.36h16.79l.2.32v.31q0 4.7-.7 8.62-.7 3.93-2.2 7.22t-3.6 5.65q-2.1 2.35-4.6 3.45t-5.49 1.1h-.2zm0-51.47.2-.31h.2q2.99 0 5.49 1.1t4.6 3.45q2.1 2.36 3.6 5.65t2.2 7.21q.69 3.93.69 8.64v.31l-.19.31h-16.79zm.8 0v26.37h-16.79l-.2-.32v-.31q0-4.71.7-8.64.7-3.91 2.2-7.21 1.49-3.29 3.59-5.65 2.1-2.35 4.6-3.45 2.5-1.09 5.5-1.09h.2zm8.39-42.68-.2.31h-.2q-3 0-5.5-1.1-2.49-1.1-4.59-3.44-2.1-2.36-3.6-5.65-1.5-3.3-2.2-7.23-.7-3.91-.7-8.62v-.31l.2-.32h16.79zm-.8 0V87.78h16.79l.2.32v.31q0 4.7-.7 8.62-.7 3.93-2.2 7.23-1.5 3.29-3.6 5.64-2.09 2.35-4.59 3.45t-5.5 1.1h-.2zm0-51.47.2-.31h.2q3 0 5.5 1.1t4.59 3.45q2.1 2.36 3.6 5.65 1.5 3.3 2.2 7.21.7 3.93.7 8.64v.31l-.2.32H134.5zm.8 0v26.36h-16.79l-.2-.32v-.31q0-4.71.7-8.63t2.2-7.22q1.5-3.29 3.6-5.65 2.1-2.34 4.59-3.44 2.5-1.1 5.5-1.1h.2zm31.58 145.6-.2.31h-.2q-3 0-5.5-1.1t-4.59-3.45q-2.1-2.35-3.6-5.64-1.5-3.3-2.2-7.23-.7-3.92-.7-8.62v-.31l.2-.32h16.79zm-.8 0v-26.36h16.79l.2.32v.31q0 4.7-.7 8.62-.7 3.93-2.2 7.22t-3.6 5.65q-2.1 2.35-4.59 3.45-2.5 1.1-5.5 1.1h-.2zm0-51.47.2-.31h.2q3 0 5.5 1.1 2.49 1.1 4.59 3.45 2.1 2.36 3.6 5.65t2.2 7.21q.7 3.93.7 8.64v.31l-.2.31h-16.79zm.8 0v26.37h-16.79l-.2-.32v-.31q0-4.71.7-8.64.7-3.91 2.2-7.21 1.5-3.29 3.6-5.65 2.09-2.35 4.59-3.45 2.5-1.09 5.5-1.09h.2zm2.8 20.08-.2.31h-.2q-3 0-5.5-1.1t-4.6-3.45q-2.09-2.35-3.59-5.64-1.5-3.3-2.2-7.23-.7-3.91-.7-8.62v-.31l.2-.32h16.79zm-.8 0v-26.36h16.79l.2.32v.31q0 4.7-.7 8.62-.7 3.93-2.2 7.23-1.5 3.28-3.6 5.64-2.1 2.35-4.6 3.45-2.49 1.1-5.49 1.1h-.2zm0-51.47.2-.31h.2q3 0 5.49 1.1 2.5 1.1 4.6 3.45 2.1 2.36 3.6 5.65t2.2 7.21q.7 3.93.7 8.64v.31l-.2.32h-16.79zm.8 0v26.36h-16.79l-.2-.32v-.31q0-4.71.7-8.64.7-3.91 2.2-7.21 1.5-3.29 3.59-5.65 2.1-2.35 4.6-3.44 2.5-1.1 5.5-1.1h.2zm2.8 20.08-.2.31h-.2q-3 0-5.5-1.1t-4.6-3.44q-2.1-2.36-3.6-5.65-1.49-3.3-2.19-7.23-.7-3.91-.7-8.62v-.31l.2-.32h16.79zm-.8 0v-26.36h16.78l.2.32v.31q0 4.7-.69 8.62-.7 3.93-2.2 7.23-1.5 3.28-3.6 5.64-2.1 2.35-4.6 3.45t-5.49 1.1h-.2zm0-51.47.2-.31h.2q2.99 0 5.49 1.1t4.6 3.45q2.1 2.36 3.6 5.65 1.5 3.3 2.2 7.21.69 3.93.69 8.64v.31l-.2.32h-16.78zm.8 0v26.36h-16.79l-.2-.32v-.31q0-4.71.7-8.63t2.19-7.22q1.5-3.29 3.6-5.65 2.1-2.34 4.6-3.44t5.5-1.1h.2zm2.79 20.08-.2.31h-.2q-2.99 0-5.49-1.1t-4.6-3.44q-2.1-2.36-3.6-5.65-1.5-3.3-2.2-7.23-.7-3.91-.7-8.62v-.31l.2-.32h16.79zm-.8 0V87.74h16.79l.2.32v.31q0 4.7-.7 8.62-.7 3.93-2.2 7.23-1.49 3.29-3.59 5.64t-4.6 3.45-5.5 1.1h-.2zm0-51.47.2-.31h.2q3 0 5.5 1.1t4.6 3.45q2.1 2.36 3.59 5.65 1.5 3.3 2.2 7.21.7 3.93.7 8.64v.31l-.2.32h-16.79zm.8 0v26.36h-16.79l-.2-.32v-.31q0-4.71.7-8.63t2.2-7.22q1.5-3.29 3.6-5.65 2.1-2.34 4.6-3.44t5.49-1.1h.2zm8.8 176.98-.2.31h-.2q-3 0-5.5-1.1t-4.6-3.45q-2.09-2.36-3.59-5.64-1.5-3.3-2.2-7.23-.7-3.92-.7-8.62v-.31l.2-.32h16.79zm-.8 0v-26.36h16.79l.2.31v.31q0 4.71-.7 8.63-.7 3.93-2.2 7.22t-3.6 5.65q-2.1 2.35-4.6 3.45-2.49 1.1-5.49 1.1h-.2zm0-51.47.2-.31h.2q3 0 5.49 1.1 2.5 1.1 4.6 3.45 2.1 2.36 3.6 5.64 1.5 3.3 2.2 7.22.7 3.93.7 8.63v.31l-.2.32h-16.79zm.8 0v26.37h-16.79l-.2-.32v-.31q0-4.71.7-8.64.7-3.91 2.2-7.21 1.5-3.29 3.59-5.65 2.1-2.35 4.6-3.45t5.5-1.1h.2zm13.99-105.43-.2.31h-.2q-3 0-5.5-1.1-2.5-1.09-4.59-3.44-2.1-2.36-3.6-5.65-1.5-3.3-2.2-7.22t-.7-8.63v-.31l.2-.32h16.79zm-.8 0V56.35h16.79l.2.32v.31q0 4.71-.7 8.62-.7 3.93-2.2 7.23-1.5 3.29-3.6 5.64t-4.59 3.45q-2.5 1.1-5.5 1.1h-.2zm0-51.46.2-.31h.2q3 0 5.5 1.1 2.49 1.09 4.59 3.44 2.1 2.36 3.6 5.65 1.5 3.3 2.2 7.21.7 3.93.7 8.64v.31l-.2.32h-16.79zm.8 0v26.36h-16.79l-.2-.32v-.31q0-4.71.7-8.63t2.2-7.22q1.5-3.29 3.6-5.64 2.09-2.35 4.59-3.45t5.5-1.1h.2zm5.99 208.36-.2.31h-.2q-2.99 0-5.49-1.1t-4.6-3.45q-2.1-2.36-3.6-5.64-1.5-3.3-2.19-7.23-.7-3.92-.7-8.62v-.31l.2-.32h16.78zm-.79 0v-26.36h16.78l.2.31v.31q0 4.71-.7 8.63-.7 3.93-2.19 7.22-1.5 3.29-3.6 5.65-2.1 2.35-4.6 3.45t-5.5 1.1h-.19zm0-51.47.19-.31h.2q3 0 5.5 1.1t4.6 3.45q2.1 2.36 3.6 5.64 1.49 3.3 2.19 7.22.7 3.93.7 8.63v.31l-.2.32h-16.78zm.79 0v26.37h-16.78l-.2-.32v-.31q0-4.71.7-8.64.69-3.91 2.19-7.21 1.5-3.29 3.6-5.65 2.1-2.35 4.6-3.45t5.49-1.1h.2zm14-105.43-.2.31h-.2q-3 0-5.5-1.1-2.5-1.09-4.6-3.44-2.1-2.36-3.6-5.65-1.49-3.3-2.19-7.22t-.7-8.63v-.31l.2-.32h16.79zm-.8 0V56.35h16.78l.2.32v.31q0 4.71-.69 8.62-.7 3.93-2.2 7.23-1.5 3.29-3.6 5.64t-4.6 3.45-5.49 1.1h-.2zm0-51.46.2-.31h.2q2.99 0 5.49 1.1 2.5 1.09 4.6 3.44 2.1 2.36 3.6 5.65 1.5 3.3 2.19 7.21.7 3.93.7 8.64v.31l-.2.32h-16.78zm.8 0v26.36h-16.79l-.2-.32v-.31q0-4.71.7-8.63t2.19-7.22q1.5-3.29 3.6-5.64t4.6-3.45 5.5-1.1h.2zm5.99 208.36-.2.31h-.2q-3 0-5.49-1.1-2.5-1.1-4.6-3.45-2.1-2.36-3.6-5.64-1.5-3.3-2.2-7.23-.7-3.92-.7-8.62v-.31l.2-.32h16.79zm-.8 0v-26.36h16.79l.2.31v.31q0 4.71-.7 8.63-.7 3.93-2.2 7.22t-3.6 5.65q-2.09 2.35-4.59 3.45t-5.5 1.1h-.2zm0-51.47.2-.31h.2q3 0 5.5 1.1t4.59 3.45q2.1 2.36 3.6 5.64 1.5 3.3 2.2 7.22.7 3.93.7 8.63v.31l-.2.32h-16.79zm.8 0v26.37h-16.79l-.2-.32v-.31q0-4.71.7-8.64.7-3.91 2.2-7.21 1.5-3.29 3.6-5.65 2.1-2.35 4.6-3.45 2.49-1.1 5.49-1.1h.2zm13.99-105.43-.2.31h-.2q-3 0-5.49-1.1-2.5-1.09-4.6-3.44-2.1-2.36-3.6-5.65-1.5-3.3-2.2-7.22t-.7-8.63v-.31l.2-.32h16.79zm-.8 0V56.35h16.79l.2.32v.31q0 4.71-.7 8.62-.7 3.93-2.2 7.23-1.5 3.29-3.59 5.64-2.1 2.35-4.6 3.45t-5.5 1.1h-.2zm0-51.46.2-.31h.2q3 0 5.5 1.1 2.5 1.09 4.6 3.44 2.09 2.36 3.59 5.65 1.5 3.3 2.2 7.21.7 3.93.7 8.64v.31l-.2.32h-16.79zm.8 0v26.36h-16.79l-.2-.32v-.31q0-4.71.7-8.63t2.2-7.22q1.5-3.29 3.6-5.64t4.6-3.45q2.49-1.1 5.49-1.1h.2zm8.8 176.98-.2.31h-.2q-3 0-5.5-1.1t-4.6-3.45-3.59-5.64q-1.5-3.3-2.2-7.23-.7-3.92-.7-8.62v-.31l.2-.32h16.79zm-.8 0v-26.36h16.79l.2.32v.31q0 4.7-.7 8.62-.7 3.93-2.2 7.22t-3.6 5.65q-2.1 2.35-4.6 3.45t-5.49 1.1h-.2zm0-51.47.2-.31h.2q2.99 0 5.49 1.1t4.6 3.45q2.1 2.36 3.6 5.65t2.2 7.21q.7 3.93.7 8.64v.31l-.2.31h-16.79zm.8 0v26.37h-16.79l-.2-.32v-.31q0-4.71.7-8.64.7-3.91 2.2-7.21 1.49-3.29 3.59-5.65 2.1-2.35 4.6-3.45 2.5-1.09 5.5-1.09h.2zm2.79 20.08-.2.31h-.2q-2.99 0-5.49-1.1t-4.6-3.45-3.6-5.64q-1.5-3.3-2.19-7.23-.7-3.91-.7-8.62v-.31l.2-.32h16.78zm-.8 0v-26.36h16.79l.2.32v.31q0 4.7-.7 8.62-.7 3.93-2.19 7.23-1.5 3.28-3.6 5.64-2.1 2.35-4.6 3.45t-5.5 1.1h-.2zm0-51.47.2-.31h.2q3 0 5.5 1.1t4.6 3.45q2.1 2.36 3.6 5.65 1.49 3.29 2.19 7.21.7 3.93.7 8.64v.31l-.2.32h-16.79zm.8 0v26.36h-16.78l-.2-.32v-.31q0-4.71.7-8.64.69-3.91 2.19-7.21 1.5-3.29 3.6-5.65 2.1-2.35 4.6-3.44 2.5-1.1 5.49-1.1h.2zm2.8 20.08-.2.31h-.2q-3 0-5.49-1.1-2.5-1.1-4.6-3.44-2.1-2.36-3.6-5.65-1.5-3.3-2.2-7.23-.7-3.91-.7-8.62v-.31l.2-.32h16.79zm-.8 0v-26.36h16.79l.2.32v.31q0 4.7-.7 8.62-.7 3.93-2.2 7.23-1.5 3.28-3.59 5.64-2.1 2.35-4.6 3.45t-5.5 1.1h-.2zm0-51.47.2-.31h.2q3 0 5.5 1.1t4.6 3.45q2.09 2.36 3.59 5.65 1.5 3.3 2.2 7.21.7 3.93.7 8.64v.31l-.2.32h-16.79zm.8 0v26.36h-16.79l-.2-.32v-.31q0-4.71.7-8.63t2.2-7.22q1.5-3.29 3.6-5.65 2.1-2.34 4.6-3.44 2.49-1.1 5.49-1.1h.2zm2.8 20.08-.2.31h-.2q-3 0-5.5-1.1-2.49-1.1-4.59-3.44-2.1-2.36-3.6-5.65-1.5-3.3-2.2-7.23-.7-3.91-.7-8.62v-.31l.2-.32h16.79zm-.8 0V87.7h16.79l.2.32v.31q0 4.7-.7 8.62-.7 3.93-2.2 7.23-1.5 3.29-3.6 5.64-2.09 2.35-4.59 3.45t-5.5 1.1h-.2zm0-51.47.2-.31h.2q3 0 5.5 1.1t4.59 3.45q2.1 2.36 3.6 5.65 1.5 3.3 2.2 7.21.7 3.93.7 8.64v.31l-.2.32h-16.79zm.8 0v26.36h-16.79l-.2-.32v-.31q0-4.71.7-8.63t2.2-7.22q1.5-3.29 3.6-5.65 2.1-2.34 4.59-3.44 2.5-1.1 5.5-1.1h.2zM284 239.57l-.2.31h-.2q-3 0-5.49-1.1-2.5-1.1-4.6-3.45-2.1-2.36-3.6-5.64-1.5-3.3-2.2-7.23-.7-3.92-.7-8.62v-.31l.2-.32H284zm-.8 0v-26.36h16.79l.2.31v.31q0 4.71-.7 8.63-.7 3.93-2.2 7.22t-3.59 5.65q-2.1 2.35-4.6 3.45t-5.5 1.1h-.2zm0-51.47.2-.31h.2q3 0 5.5 1.1t4.6 3.45q2.09 2.36 3.59 5.64 1.5 3.3 2.2 7.22.7 3.93.7 8.63v.31l-.2.32H283.2zm.8 0v26.37h-16.79l-.2-.32v-.31q0-4.71.7-8.64.7-3.91 2.2-7.21 1.5-3.29 3.6-5.65 2.1-2.35 4.6-3.45 2.49-1.1 5.49-1.1h.2zm2.8 20.09-.2.31h-.2q-3 0-5.5-1.1-2.49-1.1-4.59-3.45t-3.6-5.64q-1.5-3.3-2.2-7.23-.7-3.92-.7-8.62v-.31l.2-.32h16.79zm-.8 0v-26.36h16.79l.2.32v.31q0 4.7-.7 8.62-.7 3.93-2.2 7.22t-3.6 5.65q-2.1 2.35-4.59 3.45-2.5 1.1-5.5 1.1h-.2zm0-51.47.2-.31h.2q3 0 5.5 1.1 2.49 1.1 4.59 3.45 2.1 2.36 3.6 5.65t2.2 7.21q.7 3.93.7 8.64v.31l-.2.31H286zm.8 0v26.37h-16.79l-.2-.32v-.31q0-4.71.7-8.64.7-3.91 2.2-7.21 1.5-3.29 3.6-5.65 2.1-2.35 4.59-3.45 2.5-1.09 5.5-1.09h.2zm2.8 20.08-.2.31h-.2q-3 0-5.5-1.1t-4.6-3.45q-2.09-2.35-3.59-5.64-1.5-3.3-2.2-7.23-.7-3.91-.7-8.62v-.31l.2-.32h16.79zm-.8 0v-26.36h16.79l.2.32v.31q0 4.7-.7 8.62-.7 3.93-2.2 7.23-1.5 3.28-3.6 5.64-2.1 2.35-4.6 3.45-2.49 1.1-5.49 1.1h-.2zm0-51.47.2-.31h.2q3 0 5.49 1.1 2.5 1.1 4.6 3.45 2.1 2.36 3.6 5.65t2.2 7.21q.7 3.93.7 8.64v.31l-.2.32H288.8zm.8 0v26.36h-16.79l-.2-.32v-.31q0-4.71.7-8.64.7-3.91 2.2-7.21 1.5-3.29 3.59-5.65 2.1-2.35 4.6-3.44 2.5-1.1 5.5-1.1h.2zm2.8 20.08-.2.31h-.2q-3 0-5.5-1.1t-4.6-3.44q-2.1-2.36-3.59-5.65-1.5-3.3-2.2-7.23-.7-3.91-.7-8.62v-.31l.2-.32h16.79zm-.8 0v-26.36h16.79l.2.32v.31q0 4.7-.7 8.62-.7 3.93-2.2 7.23-1.5 3.28-3.6 5.64-2.1 2.35-4.6 3.45t-5.49 1.1h-.2zm0-51.47.2-.31h.2q2.99 0 5.49 1.1t4.6 3.45q2.1 2.36 3.6 5.65 1.5 3.3 2.2 7.21.7 3.93.7 8.64v.31l-.2.32H291.6zm.8 0v26.36h-16.79l-.2-.32v-.31q0-4.71.7-8.63t2.2-7.22q1.49-3.29 3.59-5.65 2.1-2.34 4.6-3.44t5.5-1.1h.2zm2.79 20.08-.2.31h-.2q-2.99 0-5.49-1.1t-4.6-3.44q-2.1-2.36-3.6-5.65-1.5-3.3-2.2-7.23-.69-3.91-.69-8.62v-.31l.2-.32h16.78zm-.8 0V87.66h16.79l.2.32v.31q0 4.7-.7 8.62-.7 3.93-2.19 7.23-1.5 3.29-3.6 5.64t-4.6 3.45-5.5 1.1h-.2zm0-51.47.2-.31h.2q3 0 5.5 1.1t4.6 3.45q2.1 2.36 3.6 5.65 1.49 3.3 2.19 7.21.7 3.93.7 8.64v.31l-.2.32h-16.79zm.8 0v26.36h-16.78l-.2-.32v-.31q0-4.71.69-8.63.7-3.92 2.2-7.22 1.5-3.29 3.6-5.65 2.1-2.34 4.6-3.44t5.49-1.1h.2zm2.8 20.08-.2.31h-.2q-3 0-5.49-1.1-2.5-1.09-4.6-3.44-2.1-2.36-3.6-5.65-1.5-3.3-2.2-7.22t-.7-8.63v-.31l.2-.32h16.79zm-.8 0V56.27h16.79l.2.32v.31q0 4.71-.7 8.62-.7 3.93-2.2 7.23-1.5 3.29-3.59 5.64-2.1 2.35-4.6 3.45t-5.5 1.1h-.2zm0-51.46.2-.31h.2q3 0 5.5 1.1 2.5 1.09 4.6 3.44 2.09 2.36 3.59 5.65 1.5 3.3 2.2 7.21.7 3.93.7 8.64v.31l-.2.32h-16.79zm.8 0v26.36H281.2l-.2-.32v-.31q0-4.71.7-8.63t2.2-7.22q1.5-3.29 3.6-5.64t4.6-3.45q2.49-1.1 5.49-1.1h.2zm17.19 82.84-.2.31h-.2q-3 0-5.5-1.1-2.49-1.1-4.59-3.44-2.1-2.36-3.6-5.65-1.5-3.3-2.2-7.23-.7-3.91-.7-8.62v-.31l.2-.32h16.79zm-.8 0V87.65h16.79l.2.32v.31q0 4.7-.7 8.62-.7 3.93-2.2 7.23-1.5 3.29-3.6 5.64-2.09 2.35-4.59 3.45t-5.5 1.1h-.2zm0-51.47.2-.31h.2q3 0 5.5 1.1t4.59 3.45q2.1 2.36 3.6 5.65 1.5 3.3 2.2 7.21.7 3.93.7 8.64v.31l-.2.32h-16.79zm.8 0V88.9h-16.79l-.2-.32v-.31q0-4.71.7-8.63t2.2-7.22q1.5-3.29 3.6-5.65 2.1-2.34 4.59-3.44 2.5-1.1 5.5-1.1h.2zm14.39 114.22-.2.31h-.2q-3 0-5.49-1.1-2.5-1.1-4.6-3.45t-3.6-5.64q-1.5-3.3-2.2-7.23-.7-3.91-.7-8.62v-.31l.2-.32h16.79zm-.8 0V150.4h16.79l.2.32v.31q0 4.7-.7 8.62-.7 3.93-2.2 7.23-1.5 3.28-3.6 5.64-2.09 2.35-4.59 3.45t-5.5 1.1h-.2zm0-51.47.2-.31h.2q3 0 5.5 1.1t4.59 3.45q2.1 2.36 3.6 5.65t2.2 7.21q.7 3.93.7 8.64v.31l-.2.32h-16.79zm.8 0v26.36h-16.79l-.2-.32v-.31q0-4.71.7-8.64.7-3.91 2.2-7.21 1.5-3.29 3.6-5.65 2.1-2.35 4.6-3.44 2.49-1.1 5.49-1.1h.2zm2.8 20.08-.2.31h-.2q-3 0-5.5-1.1-2.49-1.1-4.59-3.44-2.1-2.36-3.6-5.65-1.5-3.3-2.2-7.23-.7-3.91-.7-8.62v-.31l.2-.32h16.79zm-.8 0v-26.36h16.79l.2.32v.31q0 4.7-.7 8.62-.7 3.93-2.2 7.23-1.5 3.28-3.6 5.64-2.1 2.35-4.59 3.45-2.5 1.1-5.5 1.1h-.2zm0-51.47.2-.31h.2q3 0 5.5 1.1 2.49 1.1 4.59 3.45 2.1 2.36 3.6 5.65 1.5 3.3 2.2 7.21.7 3.93.7 8.64v.31l-.2.32h-16.79zm.8 0v26.36h-16.79l-.2-.32v-.31q0-4.71.7-8.63t2.2-7.22q1.5-3.29 3.6-5.65 2.09-2.34 4.59-3.44t5.5-1.1h.2zm22.78 20.08-.2.31h-.2q-2.99 0-5.49-1.1t-4.6-3.44q-2.1-2.36-3.6-5.65-1.5-3.3-2.19-7.23-.7-3.91-.7-8.62v-.31l.2-.32h16.78zm-.8 0V87.62h16.79l.2.32v.31q0 4.7-.7 8.62-.7 3.93-2.19 7.23-1.5 3.29-3.6 5.64t-4.6 3.45-5.5 1.1h-.2zm0-51.47.2-.31h.2q3 0 5.5 1.1t4.6 3.45q2.1 2.36 3.6 5.65 1.49 3.3 2.19 7.21.7 3.93.7 8.64v.31l-.2.32h-16.79zm.8 0v26.36h-16.78l-.2-.32v-.31q0-4.71.7-8.63.69-3.92 2.19-7.22 1.5-3.29 3.6-5.65 2.1-2.34 4.6-3.44t5.49-1.1h.2zm8.8 176.98-.2.31h-.2q-3 0-5.5-1.1t-4.59-3.45q-2.1-2.36-3.6-5.64-1.5-3.3-2.2-7.23-.7-3.92-.7-8.62v-.31l.2-.32h16.79zm-.8 0v-26.36h16.79l.2.31v.31q0 4.71-.7 8.63-.7 3.93-2.2 7.22t-3.6 5.65q-2.1 2.35-4.59 3.45-2.5 1.1-5.5 1.1h-.2zm0-51.47.2-.31h.2q3 0 5.5 1.1 2.49 1.1 4.59 3.45 2.1 2.36 3.6 5.64 1.5 3.3 2.2 7.22.7 3.93.7 8.63v.31l-.2.32h-16.79zm.8 0v26.37h-16.79l-.2-.32v-.31q0-4.71.7-8.64.7-3.91 2.2-7.21 1.5-3.29 3.6-5.65 2.09-2.35 4.59-3.45t5.5-1.1h.2zm2.8 20.09-.2.31h-.2q-3 0-5.5-1.1t-4.6-3.45q-2.09-2.35-3.59-5.64-1.5-3.3-2.2-7.23-.7-3.92-.7-8.62v-.31l.2-.32h16.79zm-.8 0v-26.36h16.79l.2.32v.31q0 4.7-.7 8.62-.7 3.93-2.2 7.22t-3.6 5.65q-2.1 2.35-4.6 3.45t-5.49 1.1h-.2zm0-51.47.2-.31h.2q2.99 0 5.49 1.1t4.6 3.45q2.1 2.36 3.6 5.65t2.2 7.21q.7 3.93.7 8.64v.31l-.2.31h-16.79zm.8 0v26.37h-16.79l-.2-.32v-.31q0-4.71.7-8.64.7-3.91 2.2-7.21 1.49-3.29 3.59-5.65 2.1-2.35 4.6-3.45 2.5-1.09 5.5-1.09h.2zm2.79 20.08-.2.31h-.19q-3 0-5.5-1.1t-4.6-3.45-3.6-5.64q-1.49-3.3-2.19-7.23-.7-3.91-.7-8.62v-.31l.2-.32h16.78zm-.79 0v-26.36h16.78l.2.32v.31q0 4.7-.7 8.62-.69 3.93-2.19 7.23-1.5 3.28-3.6 5.64-2.1 2.35-4.6 3.45t-5.49 1.1h-.2zm0-51.47.2-.31h.19q3 0 5.5 1.1t4.6 3.45q2.1 2.36 3.6 5.65 1.49 3.29 2.19 7.21.7 3.93.7 8.64v.31l-.2.32h-16.78zm.79 0v26.36h-16.78l-.2-.32v-.31q0-4.71.7-8.64.7-3.91 2.19-7.21 1.5-3.29 3.6-5.65 2.1-2.35 4.6-3.44 2.5-1.1 5.49-1.1h.2zm2.8 20.08-.2.31h-.2q-2.99 0-5.49-1.1t-4.6-3.44q-2.1-2.36-3.6-5.65-1.5-3.3-2.2-7.23-.7-3.91-.7-8.62v-.31l.2-.32h16.79zm-.8 0v-26.36h16.79l.2.32v.31q0 4.7-.7 8.62-.7 3.93-2.2 7.23-1.49 3.28-3.59 5.64-2.1 2.35-4.6 3.45t-5.5 1.1h-.2zm0-51.47.2-.31h.2q3 0 5.5 1.1t4.6 3.45q2.1 2.36 3.59 5.65 1.5 3.3 2.2 7.21.7 3.93.7 8.64v.31l-.2.32h-16.79zm.8 0v26.36h-16.79l-.2-.32v-.31q0-4.71.7-8.63t2.2-7.22q1.5-3.29 3.6-5.65 2.1-2.34 4.6-3.44t5.49-1.1h.2zm2.8 20.08-.2.31h-.2q-3 0-5.49-1.1-2.5-1.1-4.6-3.44-2.1-2.36-3.6-5.65-1.5-3.3-2.2-7.23-.7-3.91-.7-8.62v-.31l.2-.32h16.79zm-.8 0V87.58h16.79l.2.32v.31q0 4.7-.7 8.62-.7 3.93-2.2 7.23-1.5 3.29-3.6 5.64-2.09 2.35-4.59 3.45t-5.5 1.1h-.2zm0-51.47.2-.31h.2q3 0 5.5 1.1t4.59 3.45q2.1 2.36 3.6 5.65 1.5 3.3 2.2 7.21.7 3.93.7 8.64v.31l-.2.32h-16.79zm.8 0v26.36h-16.79l-.2-.32v-.31q0-4.71.7-8.63t2.2-7.22q1.5-3.29 3.6-5.65 2.1-2.34 4.59-3.44 2.5-1.1 5.5-1.1h.2zm2.8 20.08-.2.31h-.2q-3 0-5.5-1.1-2.5-1.09-4.59-3.44-2.1-2.36-3.6-5.65-1.5-3.3-2.2-7.22t-.7-8.63v-.31l.2-.32h16.79zm-.8 0V56.19h16.79l.2.32v.31q0 4.71-.7 8.62-.7 3.93-2.2 7.23-1.5 3.29-3.6 5.64t-4.59 3.45q-2.5 1.1-5.5 1.1h-.2zm0-51.46.2-.31h.2q3 0 5.5 1.1 2.49 1.09 4.59 3.44 2.1 2.36 3.6 5.65 1.5 3.3 2.2 7.21.7 3.93.7 8.64v.31l-.2.32h-16.79zm.8 0v26.36h-16.79l-.2-.32v-.31q0-4.71.7-8.63t2.2-7.22q1.5-3.29 3.6-5.64 2.09-2.35 4.59-3.45t5.5-1.1h.2zm25.98 208.36-.2.31h-.2q-3 0-5.49-1.1-2.5-1.1-4.6-3.45-2.1-2.36-3.6-5.64-1.5-3.3-2.2-7.23-.7-3.92-.7-8.62v-.31l.2-.32h16.79zm-.8 0v-26.36h16.79l.2.31v.31q0 4.71-.7 8.63-.7 3.93-2.2 7.22t-3.59 5.65q-2.1 2.35-4.6 3.45t-5.5 1.1h-.2zm0-51.47.2-.31h.2q3 0 5.5 1.1t4.6 3.45q2.09 2.36 3.59 5.64 1.5 3.3 2.2 7.22.7 3.93.7 8.63v.31l-.2.32h-16.79zm.8 0v26.37h-16.79l-.2-.32v-.31q0-4.71.7-8.64.7-3.91 2.2-7.21 1.5-3.29 3.6-5.65 2.1-2.35 4.6-3.45 2.49-1.1 5.49-1.1h.2zm2.8 20.09-.2.31h-.2q-3 0-5.5-1.1-2.49-1.1-4.59-3.45t-3.6-5.64q-1.5-3.3-2.2-7.23-.7-3.92-.7-8.62v-.31l.2-.32h16.79zm-.8 0v-26.36h16.79l.2.32v.31q0 4.7-.7 8.62-.7 3.93-2.2 7.22t-3.6 5.65q-2.09 2.35-4.59 3.45t-5.5 1.1h-.2zm0-51.47.2-.31h.2q3 0 5.5 1.1 2.49 1.1 4.59 3.45 2.1 2.36 3.6 5.65t2.2 7.21q.7 3.93.7 8.64v.31l-.2.31h-16.79zm.8 0v26.37h-16.79l-.2-.32v-.31q0-4.71.7-8.64.7-3.91 2.2-7.21 1.5-3.29 3.6-5.65 2.1-2.35 4.59-3.45 2.5-1.09 5.5-1.09h.2zm2.8 20.08-.2.31h-.2q-3 0-5.5-1.1t-4.59-3.45q-2.1-2.35-3.6-5.64-1.5-3.3-2.2-7.23-.7-3.91-.7-8.62v-.31l.2-.32h16.79zm-.8 0v-26.36h16.79l.2.32v.31q0 4.7-.7 8.62-.7 3.93-2.2 7.23-1.5 3.28-3.6 5.64-2.1 2.35-4.6 3.45-2.49 1.1-5.49 1.1h-.2zm0-51.47.2-.31h.2q3 0 5.49 1.1 2.5 1.1 4.6 3.45 2.1 2.36 3.6 5.65t2.2 7.21q.7 3.93.7 8.64v.31l-.2.32h-16.79zm.8 0v26.36h-16.79l-.2-.32v-.31q0-4.71.7-8.64.7-3.91 2.2-7.21 1.5-3.29 3.6-5.65 2.09-2.35 4.59-3.44 2.5-1.1 5.5-1.1h.2zm2.8 20.08-.2.31h-.2q-3 0-5.5-1.1t-4.6-3.44q-2.1-2.36-3.59-5.65-1.5-3.3-2.2-7.23-.7-3.91-.7-8.62v-.31l.2-.32h16.79zm-.8 0v-26.36h16.79l.2.32v.31q0 4.7-.7 8.62-.7 3.93-2.2 7.23-1.5 3.28-3.6 5.64-2.1 2.35-4.6 3.45t-5.49 1.1h-.2zm0-51.47.2-.31h.2q2.99 0 5.49 1.1t4.6 3.45q2.1 2.36 3.6 5.65 1.5 3.3 2.2 7.21.7 3.93.7 8.64v.31l-.2.32h-16.79zm.8 0v26.36h-16.79l-.2-.32v-.31q0-4.71.7-8.63t2.2-7.22q1.49-3.29 3.59-5.65 2.1-2.34 4.6-3.44t5.5-1.1h.2zm2.79 20.08-.2.31h-.2q-2.99 0-5.49-1.1t-4.6-3.44q-2.1-2.36-3.6-5.65-1.5-3.3-2.19-7.23-.7-3.91-.7-8.62v-.31l.2-.32h16.78zm-.79 0V87.54h16.78l.2.32v.31q0 4.7-.7 8.62-.7 3.93-2.19 7.23-1.5 3.29-3.6 5.64t-4.6 3.45-5.5 1.1h-.2zm0-51.47.2-.31h.2q3 0 5.5 1.1t4.6 3.45q2.1 2.36 3.6 5.65 1.49 3.3 2.19 7.21.7 3.93.7 8.64v.31l-.2.32h-16.79zm.8 0v26.36h-16.78l-.2-.32v-.31q0-4.71.7-8.63.69-3.92 2.19-7.22 1.5-3.29 3.6-5.65 2.1-2.34 4.6-3.44t5.49-1.1h.2zm2.8 20.08-.2.31h-.2q-3 0-5.49-1.1-2.5-1.09-4.6-3.44-2.1-2.36-3.6-5.65-1.5-3.3-2.2-7.22t-.7-8.63v-.31l.2-.32h16.79zm-.8 0V56.15h16.79l.2.32v.31q0 4.71-.7 8.62-.7 3.93-2.2 7.23-1.5 3.29-3.59 5.64-2.1 2.35-4.6 3.45t-5.5 1.1h-.2zm0-51.46.2-.31h.2q3 0 5.5 1.1 2.5 1.09 4.6 3.44 2.09 2.36 3.59 5.65 1.5 3.3 2.2 7.21.7 3.93.7 8.64v.31l-.2.32h-16.79zm.8 0v26.36h-16.79l-.2-.32v-.31q0-4.71.7-8.63t2.2-7.22q1.5-3.29 3.6-5.64t4.6-3.45q2.49-1.1 5.49-1.1h.2zm11.6 145.6-.2.31h-.2q-3 0-5.5-1.1t-4.6-3.45-3.6-5.64q-1.49-3.3-2.19-7.23-.7-3.91-.7-8.62v-.31l.2-.32h16.79zm-.8 0v-26.36h16.78l.2.32v.31q0 4.7-.7 8.62-.69 3.93-2.19 7.23-1.5 3.28-3.6 5.64-2.1 2.35-4.6 3.45t-5.49 1.1h-.2zm0-51.47.2-.31h.2q2.99 0 5.49 1.1t4.6 3.45q2.1 2.36 3.6 5.65t2.19 7.21q.7 3.93.7 8.64v.31l-.2.32h-16.78zm.79 0v26.36h-16.78l-.2-.32v-.31q0-4.71.7-8.64.7-3.91 2.19-7.21 1.5-3.29 3.6-5.65 2.1-2.35 4.6-3.44 2.5-1.1 5.5-1.1h.2zm8.39-42.68-.2.31h-.2q-3 0-5.5-1.1-2.49-1.09-4.59-3.44-2.1-2.36-3.6-5.65-1.5-3.3-2.2-7.22t-.7-8.63v-.31l.2-.32h16.79zm-.8 0V56.14h16.79l.2.32v.31q0 4.71-.7 8.62-.7 3.93-2.2 7.23-1.5 3.29-3.6 5.64T443 81.71q-2.5 1.1-5.5 1.1h-.2zm0-51.46.2-.31h.2q3 0 5.5 1.1 2.49 1.09 4.59 3.44 2.1 2.36 3.6 5.65 1.5 3.3 2.2 7.21.7 3.93.7 8.64v.31l-.2.32H437.1zm.8 0V57.4h-16.79l-.2-.32v-.31q0-4.71.7-8.63t2.2-7.22q1.5-3.29 3.6-5.64 2.09-2.35 4.59-3.45t5.5-1.1h.2zm11.59 145.6-.2.31h-.2q-3 0-5.49-1.1-2.5-1.1-4.6-3.45t-3.6-5.64q-1.5-3.3-2.2-7.23-.7-3.91-.7-8.62v-.31l.2-.32h16.79zm-.8 0v-26.36h16.79l.2.32v.31q0 4.7-.7 8.62-.7 3.93-2.2 7.23-1.5 3.28-3.59 5.64-2.1 2.35-4.6 3.45t-5.5 1.1h-.2zm0-51.47.2-.31h.2q3 0 5.5 1.1t4.6 3.45q2.09 2.36 3.59 5.65t2.2 7.21q.7 3.93.7 8.64v.31l-.2.32h-16.79zm.8 0v26.36H432.7l-.2-.32v-.31q0-4.71.7-8.64.7-3.91 2.2-7.21 1.5-3.29 3.6-5.65 2.1-2.35 4.6-3.44 2.49-1.1 5.49-1.1h.2zm8.4-42.68-.2.31h-.2q-3 0-5.5-1.1-2.5-1.09-4.6-3.44-2.1-2.36-3.59-5.65-1.5-3.3-2.2-7.22t-.7-8.63v-.31l.2-.32h16.79zm-.8 0V56.13h16.79l.2.32v.31q0 4.71-.7 8.62-.7 3.93-2.2 7.23-1.5 3.29-3.6 5.64t-4.6 3.45-5.49 1.1h-.2zm0-51.46.2-.31h.2q2.99 0 5.49 1.1 2.5 1.09 4.6 3.44 2.1 2.36 3.6 5.65 1.5 3.3 2.2 7.21.7 3.93.7 8.64v.31l-.2.32h-16.79zm.8 0v26.36H441.1l-.2-.32v-.31q0-4.71.7-8.63t2.2-7.22q1.49-3.29 3.59-5.64t4.6-3.45 5.5-1.1h.2zm11.59 145.6-.2.31h-.2q-3 0-5.5-1.1t-4.59-3.45q-2.1-2.35-3.6-5.64-1.5-3.3-2.2-7.23-.7-3.91-.7-8.62v-.31l.2-.32h16.79zm-.8 0v-26.36h16.79l.2.32v.31q0 4.7-.7 8.62-.7 3.93-2.2 7.23-1.5 3.28-3.6 5.64-2.1 2.35-4.59 3.45-2.5 1.1-5.5 1.1h-.2zm0-51.47.2-.31h.2q3 0 5.5 1.1 2.49 1.1 4.59 3.45 2.1 2.36 3.6 5.65t2.2 7.21q.7 3.93.7 8.64v.31l-.2.32h-16.79zm.8 0v26.36h-16.79l-.2-.32v-.31q0-4.71.7-8.64.7-3.91 2.2-7.21 1.5-3.29 3.6-5.65 2.09-2.35 4.59-3.44 2.5-1.1 5.5-1.1h.2zm8.39-42.68-.2.31h-.2q-2.99 0-5.49-1.1-2.5-1.09-4.6-3.44-2.1-2.36-3.6-5.65-1.5-3.3-2.2-7.22t-.7-8.63v-.31l.2-.32h16.79zm-.8 0V56.12h16.79l.2.32v.31q0 4.71-.7 8.62-.7 3.93-2.2 7.23-1.49 3.29-3.59 5.64t-4.6 3.45-5.5 1.1h-.2zm0-51.46.2-.31h.2q3 0 5.5 1.1 2.5 1.09 4.6 3.44 2.1 2.36 3.59 5.65 1.5 3.3 2.2 7.21.7 3.93.7 8.64v.31l-.2.32h-16.79zm.8 0v26.36h-16.79l-.2-.32v-.31q0-4.71.7-8.63t2.2-7.22q1.5-3.29 3.6-5.64t4.6-3.45 5.49-1.1h.2zm6 208.36-.2.31h-.2q-3 0-5.5-1.1t-4.59-3.45q-2.1-2.36-3.6-5.64-1.5-3.3-2.2-7.23-.7-3.92-.7-8.62v-.31l.2-.32h16.79zm-.8 0v-26.36h16.79l.2.31v.31q0 4.71-.7 8.63-.7 3.93-2.2 7.22t-3.6 5.65q-2.1 2.35-4.59 3.45-2.5 1.1-5.5 1.1h-.2zm0-51.47.2-.31h.2q3 0 5.5 1.1 2.49 1.1 4.59 3.45 2.1 2.36 3.6 5.64 1.5 3.3 2.2 7.22.7 3.93.7 8.63v.31l-.2.32h-16.79zm.8 0v26.37h-16.79l-.2-.32v-.31q0-4.71.7-8.64.7-3.91 2.2-7.21 1.5-3.29 3.6-5.65 2.09-2.35 4.59-3.45t5.5-1.1h.2zm2.8 20.09-.2.31h-.2q-3 0-5.5-1.1t-4.6-3.45q-2.09-2.35-3.59-5.64-1.5-3.3-2.2-7.23-.7-3.92-.7-8.62v-.31l.2-.32h16.79zm-.8 0v-26.36h16.79l.2.32v.31q0 4.7-.7 8.62-.7 3.93-2.2 7.22t-3.6 5.65q-2.1 2.35-4.6 3.45-2.49 1.1-5.49 1.1h-.2zm0-51.47.2-.31h.2q3 0 5.49 1.1 2.5 1.1 4.6 3.45 2.1 2.36 3.6 5.65t2.2 7.21q.7 3.93.7 8.64v.31l-.2.31h-16.79zm.8 0v26.37h-16.79l-.2-.32v-.31q0-4.71.7-8.64.7-3.91 2.2-7.21 1.5-3.29 3.59-5.65 2.1-2.35 4.6-3.45 2.5-1.09 5.5-1.09h.2zm5.59-11.3-.2.31h-.2q-2.99 0-5.49-1.1t-4.6-3.44q-2.1-2.36-3.6-5.65-1.5-3.3-2.2-7.23-.7-3.91-.7-8.62v-.31l.2-.32h16.79zm-.8 0v-26.36h16.79l.2.32v.31q0 4.7-.7 8.62-.7 3.93-2.2 7.23-1.49 3.28-3.59 5.64-2.1 2.35-4.6 3.45t-5.5 1.1h-.2zm0-51.47.2-.31h.2q3 0 5.5 1.1t4.6 3.45q2.1 2.36 3.59 5.65 1.5 3.3 2.2 7.21.7 3.93.7 8.64v.31l-.2.32h-16.79zm.8 0v26.36h-16.79l-.2-.32v-.31q0-4.71.7-8.63t2.2-7.22q1.5-3.29 3.6-5.65 2.1-2.34 4.6-3.44t5.49-1.1h.2zm2.8 20.08-.2.31h-.2q-3 0-5.49-1.1-2.5-1.1-4.6-3.44-2.1-2.36-3.6-5.65-1.5-3.3-2.2-7.23-.7-3.91-.7-8.62v-.31l.2-.32h16.79zm-.8 0V87.48h16.79l.2.32v.31q0 4.7-.7 8.62-.7 3.93-2.2 7.23-1.5 3.29-3.59 5.64-2.1 2.35-4.6 3.45t-5.5 1.1h-.2zm0-51.47.2-.31h.2q3 0 5.5 1.1t4.59 3.45q2.1 2.36 3.6 5.65 1.5 3.3 2.2 7.21.7 3.93.7 8.64v.31l-.2.32h-16.79zm.8 0v26.36h-16.79l-.2-.32v-.31q0-4.71.7-8.63t2.2-7.22q1.5-3.29 3.6-5.65 2.1-2.34 4.6-3.44 2.49-1.1 5.49-1.1h.2zm28.78 176.98-.2.31h-.2q-3 0-5.49-1.1-2.5-1.1-4.6-3.45-2.1-2.36-3.6-5.64-1.5-3.3-2.2-7.23-.7-3.92-.7-8.62v-.31l.2-.32h16.79zm-.8 0v-26.36h16.79l.2.31v.31q0 4.71-.7 8.63-.7 3.93-2.2 7.22t-3.59 5.65q-2.1 2.35-4.6 3.45t-5.5 1.1h-.2zm0-51.47.2-.31h.2q3 0 5.5 1.1t4.6 3.45q2.09 2.36 3.59 5.64 1.5 3.3 2.2 7.22.7 3.93.7 8.63v.31l-.2.32h-16.79zm.8 0v26.37h-16.79l-.2-.32v-.31q0-4.71.7-8.64.7-3.91 2.2-7.21 1.5-3.29 3.6-5.65 2.1-2.35 4.6-3.45 2.49-1.1 5.49-1.1h.2zm2.8 20.09-.2.31h-.2q-3 0-5.5-1.1-2.49-1.1-4.59-3.45t-3.6-5.64q-1.5-3.3-2.2-7.23-.7-3.92-.7-8.62v-.31l.2-.32h16.79zm-.8 0v-26.36h16.79l.2.32v.31q0 4.7-.7 8.62-.7 3.93-2.2 7.22t-3.6 5.65q-2.09 2.35-4.59 3.45t-5.5 1.1h-.2zm0-51.47.2-.31h.2q3 0 5.5 1.1t4.59 3.45q2.1 2.36 3.6 5.65t2.2 7.21q.7 3.93.7 8.64v.31l-.2.31h-16.79zm.8 0v26.37h-16.79l-.2-.32v-.31q0-4.71.7-8.64.7-3.91 2.2-7.21 1.5-3.29 3.6-5.65 2.1-2.35 4.59-3.45 2.5-1.09 5.5-1.09h.2zm2.8 20.08-.2.31h-.2q-3 0-5.5-1.1t-4.59-3.45q-2.1-2.35-3.6-5.64-1.5-3.3-2.2-7.23-.7-3.91-.7-8.62v-.31l.2-.32h16.79zm-.8 0v-26.36h16.79l.2.32v.31q0 4.7-.7 8.62-.7 3.93-2.2 7.23-1.5 3.28-3.6 5.64-2.1 2.35-4.59 3.45-2.5 1.1-5.5 1.1h-.2zm0-51.47.2-.31h.2q3 0 5.5 1.1 2.49 1.1 4.59 3.45 2.1 2.36 3.6 5.65t2.2 7.21q.7 3.93.7 8.64v.31l-.2.32h-16.79zm.8 0v26.36h-16.79l-.2-.32v-.31q0-4.71.7-8.64.7-3.91 2.2-7.21 1.5-3.29 3.6-5.65 2.09-2.35 4.59-3.44 2.5-1.1 5.5-1.1h.2zm2.8 20.08-.2.31h-.2q-3 0-5.5-1.1t-4.6-3.44q-2.09-2.36-3.59-5.65-1.5-3.3-2.2-7.23-.7-3.91-.7-8.62v-.31l.2-.32h16.79zm-.8 0v-26.36h16.79l.2.32v.31q0 4.7-.7 8.62-.7 3.93-2.2 7.23-1.5 3.28-3.6 5.64-2.1 2.35-4.6 3.45-2.49 1.1-5.49 1.1h-.2zm0-51.47.2-.31h.2q3 0 5.49 1.1 2.5 1.1 4.6 3.45 2.1 2.36 3.6 5.65 1.5 3.3 2.2 7.21.7 3.93.7 8.64v.31l-.2.32h-16.79zm.8 0v26.36h-16.79l-.2-.32v-.31q0-4.71.7-8.63t2.2-7.22q1.5-3.29 3.59-5.65 2.1-2.34 4.6-3.44t5.5-1.1h.2zm2.8 20.08-.2.31h-.2q-3 0-5.5-1.1t-4.6-3.44q-2.1-2.36-3.6-5.65-1.49-3.3-2.19-7.23-.7-3.91-.7-8.62v-.31l.2-.32h16.79zm-.8 0V87.44h16.78l.2.32v.31q0 4.7-.7 8.62-.69 3.93-2.19 7.23-1.5 3.29-3.6 5.64t-4.6 3.45-5.49 1.1h-.2zm0-51.47.2-.31h.2q2.99 0 5.49 1.1t4.6 3.45q2.1 2.36 3.6 5.65 1.5 3.3 2.19 7.21.7 3.93.7 8.64v.31l-.2.32h-16.78zm.79 0v26.36h-16.78l-.2-.32v-.31q0-4.71.7-8.63t2.19-7.22q1.5-3.29 3.6-5.65 2.1-2.34 4.6-3.44t5.5-1.1h.2zm14.39 114.22-.2.31h-.2q-3 0-5.5-1.1t-4.6-3.45-3.6-5.64q-1.49-3.3-2.19-7.23-.7-3.91-.7-8.62v-.31l.2-.32h16.79zm-.8 0v-26.36h16.78l.2.32v.31q0 4.7-.69 8.62-.7 3.93-2.2 7.23-1.5 3.28-3.6 5.64-2.1 2.35-4.6 3.45t-5.49 1.1h-.2zm0-51.47.2-.31h.2q2.99 0 5.49 1.1t4.6 3.45q2.1 2.36 3.6 5.65t2.2 7.21q.69 3.93.69 8.64v.31l-.2.32h-16.78zm.8 0v26.36h-16.79l-.2-.32v-.31q0-4.71.7-8.64.7-3.91 2.19-7.21 1.5-3.29 3.6-5.65 2.1-2.35 4.6-3.44 2.5-1.1 5.5-1.1h.2zm8.39-42.68-.2.31h-.2q-3 0-5.5-1.1-2.49-1.09-4.59-3.44-2.1-2.36-3.6-5.65-1.5-3.3-2.2-7.22t-.7-8.63v-.31l.2-.32h16.79zm-.8 0V56.04h16.79l.2.32v.31q0 4.71-.7 8.62-.7 3.93-2.2 7.23-1.5 3.29-3.6 5.64t-4.59 3.45q-2.5 1.1-5.5 1.1h-.2zm0-51.46.2-.31h.2q3 0 5.5 1.1 2.49 1.09 4.59 3.44 2.1 2.36 3.6 5.65 1.5 3.3 2.2 7.21.7 3.93.7 8.64v.31l-.2.32h-16.79zm.8 0V57.3h-16.79l-.2-.32v-.31q0-4.71.7-8.63t2.2-7.22q1.5-3.29 3.6-5.64t4.59-3.45q2.5-1.1 5.5-1.1h.2zm11.59 145.6-.2.31h-.2q-3 0-5.49-1.1-2.5-1.1-4.6-3.45t-3.6-5.64q-1.5-3.3-2.2-7.23-.7-3.91-.7-8.62v-.31l.2-.32h16.79zm-.8 0v-26.36h16.79l.2.32v.31q0 4.7-.7 8.62-.7 3.93-2.2 7.23-1.5 3.28-3.59 5.64-2.1 2.35-4.6 3.45t-5.5 1.1h-.2zm0-51.47.2-.31h.2q3 0 5.5 1.1t4.6 3.45q2.09 2.36 3.59 5.65t2.2 7.21q.7 3.93.7 8.64v.31l-.2.32H568.6zm.8 0v26.36h-16.79l-.2-.32v-.31q0-4.71.7-8.64.7-3.91 2.2-7.21 1.5-3.29 3.6-5.65 2.1-2.35 4.6-3.44 2.49-1.1 5.49-1.1h.2zm8.4-42.68-.2.31h-.2q-3 0-5.5-1.1-2.5-1.09-4.6-3.44-2.09-2.36-3.59-5.65-1.5-3.3-2.2-7.22t-.7-8.63v-.31l.2-.32h16.79zm-.8 0V56.03h16.79l.2.32v.31q0 4.71-.7 8.62-.7 3.93-2.2 7.23-1.5 3.29-3.6 5.64t-4.6 3.45-5.49 1.1h-.2zm0-51.46.2-.31h.2q2.99 0 5.49 1.1 2.5 1.09 4.6 3.44 2.1 2.36 3.6 5.65 1.5 3.3 2.2 7.21.7 3.93.7 8.64v.31l-.2.32H577zm.8 0v26.36h-16.79l-.2-.32v-.31q0-4.71.7-8.63t2.2-7.22q1.49-3.29 3.59-5.64t4.6-3.45 5.5-1.1h.2zm11.59 145.6-.2.31h-.2q-3 0-5.5-1.1t-4.59-3.45q-2.1-2.35-3.6-5.64-1.5-3.3-2.2-7.23-.7-3.91-.7-8.62v-.31l.2-.32h16.79zm-.8 0v-26.36h16.79l.2.32v.31q0 4.7-.7 8.62-.7 3.93-2.2 7.23-1.5 3.28-3.6 5.64-2.1 2.35-4.59 3.45-2.5 1.1-5.5 1.1h-.2zm0-51.47.2-.31h.2q3 0 5.5 1.1 2.49 1.1 4.59 3.45 2.1 2.36 3.6 5.65t2.2 7.21q.7 3.93.7 8.64v.31l-.2.32h-16.79zm.8 0v26.36H572.6l-.2-.32v-.31q0-4.71.7-8.64.7-3.91 2.2-7.21 1.5-3.29 3.6-5.65 2.09-2.35 4.59-3.44 2.5-1.1 5.5-1.1h.2zm8.39-42.68-.2.31h-.2q-2.99 0-5.49-1.1-2.5-1.09-4.6-3.44-2.1-2.36-3.6-5.65-1.5-3.3-2.2-7.22t-.7-8.63v-.31l.2-.32h16.79zm-.8 0V56.02h16.79l.2.32v.31q0 4.71-.7 8.62-.7 3.93-2.2 7.23-1.49 3.29-3.59 5.64t-4.6 3.45-5.5 1.1h-.2zm0-51.46.2-.31h.2q3 0 5.5 1.1 2.5 1.09 4.6 3.44 2.1 2.36 3.59 5.65 1.5 3.3 2.2 7.21.7 3.93.7 8.64v.31l-.2.32h-16.79zm.8 0v26.36h-16.79l-.2-.32v-.31q0-4.71.7-8.63t2.2-7.22q1.5-3.29 3.6-5.64t4.6-3.45 5.49-1.1h.2zm6 208.36-.2.31h-.2q-3 0-5.5-1.1t-4.59-3.45q-2.1-2.36-3.6-5.64-1.5-3.3-2.2-7.23-.7-3.92-.7-8.62v-.31l.2-.32h16.79zm-.8 0v-26.36h16.79l.2.31v.31q0 4.71-.7 8.63-.7 3.93-2.2 7.22t-3.6 5.65q-2.1 2.35-4.59 3.45-2.5 1.1-5.5 1.1h-.2zm0-51.47.2-.31h.2q3 0 5.5 1.1 2.49 1.1 4.59 3.45 2.1 2.36 3.6 5.64 1.5 3.3 2.2 7.22.7 3.93.7 8.63v.31l-.2.32h-16.79zm.8 0v26.37h-16.79l-.2-.32v-.31q0-4.71.7-8.64.7-3.91 2.2-7.21 1.5-3.29 3.6-5.65 2.09-2.35 4.59-3.45t5.5-1.1h.2zm2.8 20.09-.2.31h-.2q-3 0-5.5-1.1t-4.6-3.45q-2.09-2.35-3.59-5.64-1.5-3.3-2.2-7.23-.7-3.92-.7-8.62v-.31l.2-.32h16.79zm-.8 0v-26.36h16.79l.2.32v.31q0 4.7-.7 8.62-.7 3.93-2.2 7.22t-3.6 5.65q-2.1 2.35-4.6 3.45-2.49 1.1-5.49 1.1h-.2zm0-51.47.2-.31h.2q3 0 5.49 1.1 2.5 1.1 4.6 3.45 2.1 2.36 3.6 5.65t2.2 7.21q.7 3.93.7 8.64v.31l-.2.31h-16.79zm.8 0v26.37h-16.79l-.2-.32v-.31q0-4.71.7-8.64.7-3.91 2.2-7.21 1.5-3.29 3.59-5.65 2.1-2.35 4.6-3.45 2.5-1.09 5.5-1.09h.2zm2.8 20.08-.2.31h-.2q-3 0-5.5-1.1t-4.6-3.45-3.59-5.64q-1.5-3.3-2.2-7.23-.7-3.91-.7-8.62v-.31l.2-.32h16.79zm-.8 0v-26.36h16.79l.19.32v.31q0 4.7-.69 8.62-.7 3.93-2.2 7.23-1.5 3.28-3.6 5.64-2.1 2.35-4.6 3.45t-5.49 1.1h-.2zm0-51.47.2-.31h.2q2.99 0 5.49 1.1t4.6 3.45q2.1 2.36 3.6 5.65t2.2 7.21q.69 3.93.69 8.64v.31l-.2.32h-16.78zm.8 0v26.36h-16.79l-.2-.32v-.31q0-4.71.7-8.64.7-3.91 2.19-7.21 1.5-3.29 3.6-5.65 2.1-2.35 4.6-3.44 2.5-1.1 5.5-1.1h.2zm2.79 20.08-.2.31h-.2q-2.99 0-5.49-1.1t-4.6-3.44q-2.1-2.36-3.6-5.65-1.5-3.3-2.2-7.23-.69-3.91-.69-8.62v-.31l.19-.32h16.79zm-.8 0v-26.36h16.79l.2.32v.31q0 4.7-.7 8.62-.7 3.93-2.19 7.23-1.5 3.28-3.6 5.64-2.1 2.35-4.6 3.45t-5.5 1.1h-.2zm0-51.47.2-.31h.2q3 0 5.5 1.1t4.6 3.45q2.1 2.36 3.59 5.65 1.5 3.3 2.2 7.21.7 3.93.7 8.64v.31l-.2.32h-16.79zm.8 0v26.36h-16.79l-.2-.32v-.31q0-4.71.7-8.63t2.2-7.22q1.5-3.29 3.6-5.65 2.1-2.34 4.6-3.44t5.49-1.1h.2zm2.8 20.08-.2.31h-.2q-3 0-5.49-1.1-2.5-1.1-4.6-3.44-2.1-2.36-3.6-5.65-1.5-3.3-2.2-7.23-.7-3.91-.7-8.62v-.31l.2-.32h16.79zm-.8 0V87.37h16.79l.2.32V88q0 4.7-.7 8.62-.7 3.93-2.2 7.23-1.5 3.29-3.59 5.64-2.1 2.35-4.6 3.45t-5.5 1.1h-.2zm0-51.47.2-.31h.2q3 0 5.5 1.1t4.6 3.45q2.09 2.36 3.59 5.65 1.5 3.3 2.2 7.21.7 3.93.7 8.64v.31l-.2.32h-16.79zm.8 0v26.36h-16.79l-.2-.32v-.31q0-4.71.7-8.63t2.2-7.22q1.5-3.29 3.6-5.65 2.1-2.34 4.6-3.44 2.49-1.1 5.49-1.1h.2zm28.78 176.98-.2.31h-.2q-2.99 0-5.49-1.1t-4.6-3.45q-2.1-2.36-3.6-5.64-1.5-3.3-2.2-7.23-.7-3.92-.7-8.62v-.31l.2-.32h16.79zm-.8 0v-26.36h16.79l.2.31v.31q0 4.71-.7 8.63-.7 3.93-2.2 7.22-1.49 3.29-3.59 5.65-2.1 2.35-4.6 3.45t-5.5 1.1h-.2zm0-51.47.2-.31h.2q3 0 5.5 1.1t4.6 3.45q2.09 2.36 3.59 5.64 1.5 3.3 2.2 7.22.7 3.93.7 8.63v.31l-.2.32h-16.79zm.8 0v26.37h-16.79l-.2-.32v-.31q0-4.71.7-8.64.7-3.91 2.2-7.21 1.5-3.29 3.6-5.65 2.1-2.35 4.6-3.45t5.49-1.1h.2zm2.8 20.09-.2.31h-.2q-3 0-5.5-1.1-2.49-1.1-4.59-3.45t-3.6-5.64q-1.5-3.3-2.2-7.23-.7-3.92-.7-8.62v-.31l.2-.32h16.79zm-.8 0V181.5h16.79l.2.32v.31q0 4.7-.7 8.62-.7 3.93-2.2 7.22t-3.6 5.65q-2.09 2.35-4.59 3.45t-5.5 1.1h-.2zm0-51.47.2-.31h.2q3 0 5.5 1.1t4.59 3.45q2.1 2.36 3.6 5.65t2.2 7.21q.7 3.93.7 8.64v.31l-.2.31h-16.79zm.8 0v26.37h-16.79l-.2-.32v-.31q0-4.71.7-8.64.7-3.91 2.2-7.21 1.5-3.29 3.6-5.65 2.1-2.35 4.59-3.45 2.5-1.09 5.5-1.09h.2zm2.8 20.08-.2.31h-.2q-3 0-5.5-1.1t-4.59-3.45q-2.1-2.35-3.6-5.64-1.5-3.3-2.2-7.23-.7-3.91-.7-8.62v-.31l.2-.32h16.79zm-.8 0v-26.36h16.79l.2.32v.31q0 4.7-.7 8.62-.7 3.93-2.2 7.23-1.5 3.28-3.6 5.64-2.1 2.35-4.59 3.45-2.5 1.1-5.5 1.1h-.2zm0-51.47.2-.31h.2q3 0 5.5 1.1 2.49 1.1 4.59 3.45 2.1 2.36 3.6 5.65t2.2 7.21q.7 3.93.7 8.64v.31l-.2.32h-16.79zm.8 0v26.36h-16.79l-.2-.32v-.31q0-4.71.7-8.64.7-3.91 2.2-7.21 1.5-3.29 3.6-5.65 2.09-2.35 4.59-3.44 2.5-1.1 5.5-1.1h.2zm2.8 20.08-.2.31h-.2q-3 0-5.5-1.1t-4.6-3.44q-2.09-2.36-3.59-5.65-1.5-3.3-2.2-7.23-.7-3.91-.7-8.62v-.31l.2-.32h16.79zm-.8 0v-26.36h16.79l.2.32v.31q0 4.7-.7 8.62-.7 3.93-2.2 7.23-1.5 3.28-3.6 5.64-2.1 2.35-4.6 3.45-2.49 1.1-5.49 1.1h-.2zm0-51.47.2-.31h.2q3 0 5.49 1.1 2.5 1.1 4.6 3.45 2.1 2.36 3.6 5.65 1.5 3.3 2.2 7.21.7 3.93.7 8.64v.31l-.2.32h-16.79zm.8 0v26.36h-16.79l-.2-.32v-.31q0-4.71.7-8.63t2.2-7.22q1.5-3.29 3.59-5.65 2.1-2.34 4.6-3.44t5.5-1.1h.2zm2.8 20.08-.2.31h-.2q-3 0-5.5-1.1t-4.6-3.44q-2.1-2.36-3.6-5.65-1.49-3.3-2.19-7.23-.7-3.91-.7-8.62v-.31l.2-.32h16.79zm-.8 0V87.33h16.78l.2.32v.31q0 4.7-.69 8.62-.7 3.93-2.2 7.23-1.5 3.29-3.6 5.64t-4.6 3.45-5.49 1.1h-.2zm0-51.47.2-.31h.2q2.99 0 5.49 1.1t4.6 3.45q2.1 2.36 3.6 5.65 1.5 3.3 2.2 7.21.69 3.93.69 8.64v.31l-.2.32h-16.78zm.8 0v26.36h-16.79l-.2-.32v-.31q0-4.71.7-8.63t2.19-7.22q1.5-3.29 3.6-5.65 2.1-2.34 4.6-3.44t5.5-1.1h.2zm2.79 20.08-.2.31h-.2q-2.99 0-5.49-1.1-2.5-1.09-4.6-3.44-2.1-2.36-3.6-5.65-1.5-3.3-2.2-7.22t-.7-8.63v-.31l.2-.32h16.79zm-.8 0V55.94h16.79l.2.32v.31q0 4.71-.7 8.62-.7 3.93-2.2 7.23-1.49 3.29-3.59 5.64t-4.6 3.45-5.5 1.1h-.2zm0-51.46.2-.31h.2q3 0 5.5 1.1 2.5 1.09 4.6 3.44 2.1 2.36 3.59 5.65 1.5 3.3 2.2 7.21.7 3.93.7 8.64v.31l-.2.32h-16.79zm.8 0V57.2h-16.79l-.2-.32v-.31q0-4.71.7-8.63t2.2-7.22q1.5-3.29 3.6-5.64t4.6-3.45 5.49-1.1h.2zm6 208.36-.2.31h-.2q-3 0-5.5-1.1-2.49-1.1-4.59-3.45-2.1-2.36-3.6-5.64-1.5-3.3-2.2-7.23-.7-3.92-.7-8.62v-.31l.2-.32h16.79zm-.8 0v-26.36h16.79l.2.31v.31q0 4.71-.7 8.63-.7 3.93-2.2 7.22t-3.6 5.65q-2.1 2.35-4.59 3.45-2.5 1.1-5.5 1.1h-.2zm0-51.47.2-.31h.2q3 0 5.5 1.1 2.49 1.1 4.59 3.45 2.1 2.36 3.6 5.64 1.5 3.3 2.2 7.22.7 3.93.7 8.63v.31l-.2.32h-16.79zm.8 0v26.37h-16.79l-.2-.32v-.31q0-4.71.7-8.64.7-3.91 2.2-7.21 1.5-3.29 3.6-5.65 2.1-2.35 4.59-3.45 2.5-1.1 5.5-1.1h.2zM677.73 82.3l-.2.31h-.2q-3 0-5.5-1.1-2.49-1.09-4.59-3.44-2.1-2.36-3.6-5.65-1.5-3.3-2.2-7.22t-.7-8.63v-.31l.2-.32h16.79zm-.8 0V55.94h16.79l.2.32v.31q0 4.71-.7 8.62-.7 3.93-2.2 7.23-1.5 3.29-3.6 5.64-2.09 2.35-4.59 3.45t-5.5 1.1h-.2zm0-51.46.2-.31h.2q3 0 5.5 1.1 2.5 1.09 4.59 3.44 2.1 2.36 3.6 5.65 1.5 3.3 2.2 7.21.7 3.93.7 8.64v.31l-.2.32h-16.79zm.8 0V57.2h-16.79l-.2-.32v-.31q0-4.71.7-8.63t2.2-7.22q1.5-3.29 3.6-5.64t4.59-3.45q2.5-1.1 5.5-1.1h.2zm6 208.36-.2.31h-.2q-3 0-5.5-1.1t-4.6-3.45q-2.1-2.36-3.59-5.64-1.5-3.3-2.2-7.23-.7-3.92-.7-8.62v-.31l.2-.32h16.79zm-.8 0v-26.36h16.79l.2.31v.31q0 4.71-.7 8.63-.7 3.93-2.2 7.22t-3.6 5.65q-2.1 2.35-4.6 3.45t-5.49 1.1h-.2zm0-51.47.2-.31h.2q2.99 0 5.49 1.1t4.6 3.45q2.1 2.36 3.6 5.64 1.5 3.3 2.2 7.22.7 3.93.7 8.63v.31l-.2.32h-16.79zm.8 0v26.37h-16.79l-.2-.32v-.31q0-4.71.7-8.64.7-3.91 2.2-7.21 1.49-3.29 3.59-5.65 2.1-2.35 4.6-3.45t5.5-1.1h.2zM697.72 82.3l-.2.31h-.2q-3 0-5.5-1.1-2.5-1.09-4.6-3.44-2.09-2.36-3.59-5.65-1.5-3.3-2.2-7.22t-.7-8.63v-.31l.2-.32h16.79zm-.8 0V55.94h16.79l.2.32v.31q0 4.71-.7 8.62-.7 3.93-2.2 7.23-1.5 3.29-3.6 5.64t-4.6 3.45q-2.49 1.1-5.49 1.1h-.2zm0-51.46.2-.31h.2q3 0 5.49 1.1 2.5 1.09 4.6 3.44 2.1 2.36 3.6 5.65 1.5 3.3 2.2 7.21.7 3.93.7 8.64v.31l-.2.32h-16.79zm.8 0V57.2h-16.79l-.2-.32v-.31q0-4.71.7-8.63t2.2-7.22q1.5-3.29 3.59-5.64 2.1-2.35 4.6-3.45t5.5-1.1h.2zm5.99 208.36-.2.31h-.2q-2.99 0-5.49-1.1t-4.6-3.45q-2.1-2.36-3.6-5.64-1.5-3.3-2.2-7.23-.7-3.92-.7-8.62v-.31l.2-.32h16.79zm-.8 0v-26.36h16.79l.2.31v.31q0 4.71-.7 8.63-.7 3.93-2.2 7.22-1.49 3.29-3.59 5.65-2.1 2.35-4.6 3.45t-5.5 1.1h-.2zm0-51.47.2-.31h.2q3 0 5.5 1.1t4.6 3.45q2.1 2.36 3.59 5.64 1.5 3.3 2.2 7.22.7 3.93.7 8.63v.31l-.2.32h-16.79zm.8 0v26.37h-16.79l-.2-.32v-.31q0-4.71.7-8.64.7-3.91 2.2-7.21 1.5-3.29 3.6-5.65 2.1-2.35 4.6-3.45t5.49-1.1h.2zM717.7 82.3l-.2.31h-.2q-2.99 0-5.49-1.1-2.5-1.09-4.6-3.44-2.1-2.36-3.6-5.65-1.5-3.3-2.2-7.22-.69-3.92-.69-8.63v-.31l.19-.32h16.79zm-.8 0V55.94h16.79l.2.32v.31q0 4.71-.7 8.62-.7 3.93-2.19 7.23-1.5 3.29-3.6 5.64t-4.6 3.45-5.5 1.1h-.2zm0-51.46.2-.31h.2q3 0 5.5 1.1 2.5 1.09 4.6 3.44 2.1 2.36 3.59 5.65 1.5 3.3 2.2 7.21.7 3.93.7 8.64v.31l-.2.32H716.9zm.8 0V57.2h-16.79l-.2-.32v-.31q0-4.71.7-8.63t2.2-7.22q1.5-3.29 3.6-5.64t4.6-3.45 5.49-1.1h.2zm8.8 176.98-.2.31h-.2q-3 0-5.5-1.1t-4.6-3.45q-2.09-2.35-3.59-5.64-1.5-3.3-2.2-7.23-.7-3.92-.7-8.62v-.31l.2-.32h16.79zm-.8 0v-26.36h16.79l.2.32v.31q0 4.7-.7 8.62-.7 3.93-2.2 7.22t-3.6 5.65q-2.1 2.35-4.6 3.45-2.49 1.1-5.49 1.1h-.2zm0-51.47.2-.31h.2q3 0 5.49 1.1 2.5 1.1 4.6 3.45 2.1 2.36 3.6 5.65t2.2 7.21q.7 3.93.7 8.64v.31l-.2.31H725.7zm.8 0v26.37h-16.79l-.2-.32v-.31q0-4.71.7-8.64.7-3.91 2.2-7.21 1.5-3.29 3.59-5.65 2.1-2.35 4.6-3.45 2.5-1.09 5.5-1.09h.2zm2.8 20.08-.2.31h-.2q-3 0-5.5-1.1t-4.6-3.45-3.59-5.64q-1.5-3.3-2.2-7.23-.7-3.91-.7-8.62v-.31l.2-.32h16.79zm-.8 0v-26.36h16.79l.2.32v.31q0 4.7-.7 8.62-.7 3.93-2.2 7.23-1.5 3.28-3.6 5.64-2.1 2.35-4.6 3.45t-5.49 1.1h-.2zm0-51.47.2-.31h.2q2.99 0 5.49 1.1t4.6 3.45q2.1 2.36 3.6 5.65t2.2 7.21q.7 3.93.7 8.64v.31l-.2.32H728.5zm.8 0v26.36h-16.79l-.2-.32v-.31q0-4.71.7-8.64.7-3.91 2.2-7.21 1.49-3.29 3.59-5.65 2.1-2.35 4.6-3.44 2.5-1.1 5.5-1.1h.2zm2.79 20.08-.2.31h-.2q-2.99 0-5.49-1.1t-4.6-3.44q-2.1-2.36-3.6-5.65-1.5-3.3-2.19-7.23-.7-3.91-.7-8.62V119l.2-.32h16.78zm-.8 0v-26.36h16.79l.2.32v.31q0 4.7-.7 8.62-.7 3.93-2.19 7.23-1.5 3.28-3.6 5.64-2.1 2.35-4.6 3.45t-5.5 1.1h-.2zm0-51.47.2-.31h.2q3 0 5.5 1.1t4.6 3.45q2.1 2.36 3.6 5.65 1.49 3.3 2.19 7.21.7 3.93.7 8.64v.31l-.2.32h-16.79zm.8 0v26.36h-16.78l-.2-.32v-.31q0-4.71.69-8.63.7-3.92 2.2-7.22 1.5-3.29 3.6-5.65 2.1-2.34 4.6-3.44t5.49-1.1h.2zm2.8 20.08-.2.31h-.2q-3 0-5.49-1.1-2.5-1.1-4.6-3.44-2.1-2.36-3.6-5.65-1.5-3.3-2.2-7.23-.7-3.91-.7-8.62v-.31l.2-.32h16.79zm-.8 0V87.29h16.79l.2.32v.31q0 4.7-.7 8.62-.7 3.93-2.2 7.23-1.5 3.29-3.59 5.64-2.1 2.35-4.6 3.45t-5.5 1.1h-.2zm0-51.47.2-.31h.2q3 0 5.5 1.1t4.6 3.45q2.09 2.36 3.59 5.65 1.5 3.3 2.2 7.21.7 3.93.7 8.64v.31l-.2.32h-16.79zm.8 0v26.36H718.1l-.2-.32v-.31q0-4.71.7-8.63t2.2-7.22q1.5-3.29 3.6-5.65 2.1-2.34 4.6-3.44 2.49-1.1 5.49-1.1h.2zm28.78 176.98-.2.31h-.2q-2.99 0-5.49-1.1t-4.6-3.45q-2.1-2.36-3.6-5.64-1.5-3.3-2.2-7.23-.7-3.92-.7-8.62v-.31l.2-.32h16.79zm-.8 0V212.8h16.79l.2.31v.31q0 4.71-.7 8.63-.7 3.93-2.2 7.22-1.49 3.29-3.59 5.65-2.1 2.35-4.6 3.45t-5.5 1.1h-.2zm0-51.47.2-.31h.2q3 0 5.5 1.1t4.6 3.45q2.1 2.36 3.59 5.64 1.5 3.3 2.2 7.22.7 3.93.7 8.63v.31l-.2.32h-16.79zm.8 0v26.37h-16.79l-.2-.32v-.31q0-4.71.7-8.64.7-3.91 2.2-7.21 1.5-3.29 3.6-5.65 2.1-2.35 4.6-3.45t5.49-1.1h.2zm2.8 20.09-.2.31h-.2q-3 0-5.49-1.1-2.5-1.1-4.6-3.45t-3.6-5.64q-1.5-3.3-2.2-7.23-.7-3.92-.7-8.62v-.31l.2-.32h16.79zm-.8 0v-26.36h16.79l.2.32v.31q0 4.7-.7 8.62-.7 3.93-2.2 7.22t-3.59 5.65q-2.1 2.35-4.6 3.45t-5.5 1.1h-.2zm0-51.47.2-.31h.2q3 0 5.5 1.1t4.59 3.45q2.1 2.36 3.6 5.65t2.2 7.21q.7 3.93.7 8.64v.31l-.2.31h-16.79zm.8 0v26.37h-16.79l-.2-.32v-.31q0-4.71.7-8.64.7-3.91 2.2-7.21 1.5-3.29 3.6-5.65 2.1-2.35 4.6-3.45 2.49-1.09 5.49-1.09h.2zm2.8 20.08-.2.31h-.2q-3 0-5.5-1.1-2.49-1.1-4.59-3.45t-3.6-5.64q-1.5-3.3-2.2-7.23-.7-3.91-.7-8.62v-.31l.2-.32h16.79zm-.8 0v-26.36h16.79l.2.32v.31q0 4.7-.7 8.62-.7 3.93-2.2 7.23-1.5 3.28-3.6 5.64-2.1 2.35-4.59 3.45-2.5 1.1-5.5 1.1h-.2zm0-51.47.2-.31h.2q3 0 5.5 1.1 2.49 1.1 4.59 3.45 2.1 2.36 3.6 5.65t2.2 7.21q.7 3.93.7 8.64v.31l-.2.32h-16.79zm.8 0v26.36h-16.79l-.2-.32v-.31q0-4.71.7-8.64.7-3.91 2.2-7.21 1.5-3.29 3.6-5.65 2.1-2.35 4.59-3.44 2.5-1.1 5.5-1.1h.2zm2.8 20.08-.2.31h-.2q-3 0-5.5-1.1t-4.6-3.44q-2.09-2.36-3.59-5.65-1.5-3.3-2.2-7.23-.7-3.91-.7-8.62v-.31l.2-.32h16.79zm-.8 0v-26.36h16.79l.2.32v.31q0 4.7-.7 8.62-.7 3.93-2.2 7.23-1.5 3.28-3.6 5.64-2.1 2.35-4.6 3.45-2.49 1.1-5.49 1.1h-.2zm0-51.47.2-.31h.2q3 0 5.49 1.1 2.5 1.1 4.6 3.45 2.1 2.36 3.6 5.65 1.5 3.3 2.2 7.21.7 3.93.7 8.64v.31l-.2.32h-16.79zm.8 0v26.36h-16.79l-.2-.32v-.31q0-4.71.7-8.63t2.2-7.22q1.5-3.29 3.59-5.65 2.1-2.34 4.6-3.44t5.5-1.1h.2zm2.8 20.08-.2.31h-.2q-3 0-5.5-1.1t-4.6-3.44q-2.1-2.36-3.59-5.65-1.5-3.3-2.2-7.23-.7-3.91-.7-8.62v-.31l.2-.32h16.79zm-.8 0V87.25h16.79l.2.32v.31q0 4.7-.7 8.62-.7 3.93-2.2 7.23-1.5 3.29-3.6 5.64t-4.6 3.45-5.49 1.1h-.2zm0-51.47.2-.31h.2q2.99 0 5.49 1.1t4.6 3.45q2.1 2.36 3.6 5.65 1.5 3.3 2.2 7.21.7 3.93.7 8.64v.31l-.2.32h-16.79zm.8 0V88.5h-16.79l-.2-.32v-.31q0-4.71.7-8.63t2.2-7.22q1.49-3.29 3.59-5.65 2.1-2.34 4.6-3.44t5.5-1.1h.2zm2.79 20.08-.2.31h-.2q-2.99 0-5.49-1.1-2.5-1.09-4.6-3.44-2.1-2.36-3.6-5.65-1.5-3.3-2.2-7.22-.69-3.92-.69-8.63v-.31l.2-.32h16.78zm-.8 0V55.86h16.79l.2.32v.31q0 4.71-.7 8.62-.7 3.93-2.19 7.23-1.5 3.29-3.6 5.64t-4.6 3.45-5.5 1.1h-.2zm0-51.46.2-.31h.2q3 0 5.5 1.1 2.5 1.09 4.6 3.44 2.1 2.36 3.6 5.65 1.49 3.3 2.19 7.21.7 3.93.7 8.64v.31l-.2.32h-16.79zm.8 0v26.36h-16.78l-.2-.32v-.31q0-4.71.69-8.63.7-3.92 2.2-7.22 1.5-3.29 3.6-5.64t4.6-3.45 5.49-1.1h.2zm6 208.36-.2.31h-.2q-3 0-5.5-1.1-2.49-1.1-4.59-3.45-2.1-2.36-3.6-5.64-1.5-3.3-2.2-7.23-.7-3.92-.7-8.62v-.31l.2-.32h16.79zm-.8 0v-26.36h16.79l.2.31v.31q0 4.71-.7 8.63-.7 3.93-2.2 7.22t-3.6 5.65q-2.09 2.35-4.59 3.45t-5.5 1.1h-.2zm0-51.47.2-.31h.2q3 0 5.5 1.1 2.49 1.1 4.59 3.45 2.1 2.36 3.6 5.64 1.5 3.3 2.2 7.22.7 3.93.7 8.63v.31l-.2.32h-16.79zm.8 0v26.37h-16.79l-.2-.32v-.31q0-4.71.7-8.64.7-3.91 2.2-7.21 1.5-3.29 3.6-5.65 2.1-2.35 4.59-3.45 2.5-1.1 5.5-1.1h.2zm8.39-42.67-.2.31h-.2q-2.99 0-5.49-1.1t-4.6-3.44q-2.1-2.36-3.6-5.65-1.5-3.3-2.19-7.23-.7-3.91-.7-8.62v-.31l.2-.32h16.78zm-.79 0v-26.36h16.78l.2.32v.31q0 4.7-.7 8.62-.7 3.93-2.19 7.23-1.5 3.28-3.6 5.64-2.1 2.35-4.6 3.45t-5.5 1.1h-.2zm0-51.47.2-.31h.2q3 0 5.5 1.1t4.6 3.45q2.1 2.36 3.6 5.65 1.49 3.3 2.19 7.21.7 3.93.7 8.64v.31l-.2.32h-16.79zm.8 0v26.36h-16.78l-.2-.32v-.31q0-4.71.7-8.63.69-3.92 2.19-7.22 1.5-3.29 3.6-5.65 2.1-2.34 4.6-3.44t5.49-1.1h.2zm5.6-11.3-.2.31h-.2q-3 0-5.5-1.1-2.49-1.09-4.59-3.44-2.1-2.36-3.6-5.65-1.5-3.3-2.2-7.22t-.7-8.63v-.31l.2-.32h16.79zm-.8 0V55.85h16.79l.2.32v.31q0 4.71-.7 8.62-.7 3.93-2.2 7.23-1.5 3.29-3.6 5.64-2.09 2.35-4.59 3.45t-5.5 1.1h-.2zm0-51.46.2-.31h.2q3 0 5.5 1.1 2.5 1.09 4.59 3.44 2.1 2.36 3.6 5.65 1.5 3.3 2.2 7.21.7 3.93.7 8.64v.31l-.2.32h-16.79zm.8 0v26.36h-16.79l-.2-.32v-.31q0-4.71.7-8.63t2.2-7.22q1.5-3.29 3.6-5.64t4.59-3.45q2.5-1.1 5.5-1.1h.2zm6 208.36-.2.31h-.2q-3 0-5.5-1.1t-4.6-3.45q-2.09-2.36-3.59-5.64-1.5-3.3-2.2-7.23-.7-3.92-.7-8.62v-.31l.2-.32h16.79zm-.8 0v-26.36h16.79l.2.31v.31q0 4.71-.7 8.63-.7 3.93-2.2 7.22t-3.6 5.65q-2.1 2.35-4.6 3.45-2.49 1.1-5.49 1.1h-.2zm0-51.47.2-.31h.2q2.99 0 5.49 1.1t4.6 3.45q2.1 2.36 3.6 5.64 1.5 3.3 2.2 7.22.7 3.93.7 8.63v.31l-.2.32h-16.79zm.8 0v26.37h-16.79l-.2-.32v-.31q0-4.71.7-8.64.7-3.91 2.2-7.21 1.5-3.29 3.59-5.65 2.1-2.35 4.6-3.45t5.5-1.1h.2zm8.39-42.67-.2.31h-.2q-3 0-5.49-1.1-2.5-1.1-4.6-3.44-2.1-2.36-3.6-5.65-1.5-3.3-2.2-7.23-.7-3.91-.7-8.62v-.31l.2-.32h16.79zm-.8 0v-26.36h16.79l.2.32v.31q0 4.7-.7 8.62-.7 3.93-2.2 7.23-1.5 3.28-3.6 5.64-2.09 2.35-4.59 3.45t-5.5 1.1h-.2zm0-51.47.2-.31h.2q3 0 5.5 1.1t4.59 3.45q2.1 2.36 3.6 5.65 1.5 3.3 2.2 7.21.7 3.93.7 8.64v.31l-.2.32h-16.79zm.8 0v26.36h-16.79l-.2-.32v-.31q0-4.71.7-8.63t2.2-7.22q1.5-3.29 3.6-5.65 2.1-2.34 4.6-3.44 2.49-1.1 5.49-1.1h.2zm5.6-11.3-.2.31h-.2q-3 0-5.5-1.1-2.5-1.09-4.6-3.44-2.09-2.36-3.59-5.65-1.5-3.3-2.2-7.22t-.7-8.63v-.31l.2-.32h16.79zm-.8 0V55.84h16.79l.2.32v.31q0 4.71-.7 8.62-.7 3.93-2.2 7.23-1.5 3.29-3.6 5.64t-4.6 3.45q-2.49 1.1-5.49 1.1h-.2zm0-51.46.2-.31h.2q3 0 5.49 1.1 2.5 1.09 4.6 3.44 2.1 2.36 3.6 5.65 1.5 3.3 2.2 7.21.7 3.93.7 8.64v.31l-.2.32h-16.79zm.8 0V57.1h-16.79l-.2-.32v-.31q0-4.71.7-8.63t2.2-7.22q1.5-3.29 3.59-5.64 2.1-2.35 4.6-3.45t5.5-1.1h.2zm5.99 208.36-.2.31h-.2q-2.99 0-5.49-1.1t-4.6-3.45q-2.1-2.36-3.6-5.64-1.5-3.3-2.2-7.23-.7-3.92-.7-8.62v-.31l.2-.32h16.79zm-.8 0v-26.36h16.79l.2.31v.31q0 4.71-.7 8.63-.7 3.93-2.2 7.22-1.49 3.29-3.59 5.65-2.1 2.35-4.6 3.45t-5.5 1.1h-.2zm0-51.47.2-.31h.2q3 0 5.5 1.1t4.6 3.45q2.1 2.36 3.59 5.64 1.5 3.3 2.2 7.22.7 3.93.7 8.63v.31l-.2.32h-16.79zm.8 0V214h-16.79l-.2-.32v-.31q0-4.71.7-8.64.7-3.91 2.2-7.21 1.5-3.29 3.6-5.65 2.1-2.35 4.6-3.45t5.49-1.1h.2zm8.4-42.67-.2.31h-.2q-3 0-5.5-1.1t-4.6-3.44q-2.09-2.36-3.59-5.65-1.5-3.3-2.2-7.23-.7-3.91-.7-8.62v-.31l.2-.32h16.79zm-.8 0V118.6h16.79l.2.32v.31q0 4.7-.7 8.62-.7 3.93-2.2 7.23-1.5 3.28-3.6 5.64-2.1 2.35-4.6 3.45-2.49 1.1-5.49 1.1h-.2zm0-51.47.2-.31h.2q3 0 5.49 1.1 2.5 1.1 4.6 3.45 2.1 2.36 3.6 5.65 1.5 3.3 2.2 7.21.7 3.93.7 8.64v.31l-.2.32h-16.79zm.8 0v26.36h-16.79l-.2-.32v-.31q0-4.71.7-8.63t2.2-7.22q1.5-3.29 3.59-5.65 2.1-2.34 4.6-3.44t5.5-1.1h.2zm5.59-11.3-.2.31h-.2q-2.99 0-5.49-1.1-2.5-1.09-4.6-3.44-2.1-2.36-3.6-5.65-1.5-3.3-2.19-7.22-.7-3.92-.7-8.63v-.31l.2-.32h16.78zm-.8 0V55.83h16.79l.2.32v.31q0 4.71-.7 8.62-.7 3.93-2.19 7.23-1.5 3.29-3.6 5.64t-4.6 3.45-5.5 1.1h-.2zm0-51.46.2-.31h.2q3 0 5.5 1.1 2.5 1.09 4.6 3.44 2.1 2.36 3.6 5.65 1.49 3.3 2.19 7.21.7 3.93.7 8.64v.31l-.2.32h-16.79zm.8 0v26.36h-16.78l-.2-.32v-.31q0-4.71.69-8.63.7-3.92 2.2-7.22 1.5-3.29 3.6-5.64t4.6-3.45 5.49-1.1h.2zm6 208.36-.2.31h-.2q-3 0-5.5-1.1-2.49-1.1-4.59-3.45-2.1-2.36-3.6-5.64-1.5-3.3-2.2-7.23-.7-3.92-.7-8.62v-.31l.2-.32h16.79zm-.8 0v-26.36h16.79l.2.31v.31q0 4.71-.7 8.63-.7 3.93-2.2 7.22t-3.6 5.65q-2.09 2.35-4.59 3.45t-5.5 1.1h-.2zm0-51.47.2-.31h.2q3 0 5.5 1.1t4.59 3.45q2.1 2.36 3.6 5.64 1.5 3.3 2.2 7.22.7 3.93.7 8.63v.31l-.2.32h-16.79zm.8 0v26.37h-16.79l-.2-.32v-.31q0-4.71.7-8.64.7-3.91 2.2-7.21 1.5-3.29 3.6-5.65 2.1-2.35 4.59-3.45 2.5-1.1 5.5-1.1h.2zm13.99-105.43-.2.31h-.2q-3 0-5.5-1.1-2.49-1.09-4.59-3.44-2.1-2.36-3.6-5.65-1.5-3.3-2.2-7.22t-.7-8.63v-.31l.2-.32h16.79zm-.8 0V55.83h16.79l.2.32v.31q0 4.71-.7 8.62-.7 3.93-2.2 7.23-1.5 3.29-3.6 5.64-2.09 2.35-4.59 3.45t-5.5 1.1h-.2zm0-51.46.2-.31h.2q3 0 5.5 1.1 2.5 1.09 4.59 3.44 2.1 2.36 3.6 5.65 1.5 3.3 2.2 7.21.7 3.93.7 8.64v.31l-.2.32h-16.79zm.8 0v26.36h-16.79l-.2-.32v-.31q0-4.71.7-8.63t2.2-7.22q1.5-3.29 3.6-5.64t4.59-3.45q2.5-1.1 5.5-1.1h.2z" style="fill:#333"/></svg>
