<svg xmlns="http://www.w3.org/2000/svg" viewBox="0 0 757.27 178.67" width="757.27" height="178.67">
  <path d="M31.84 -1.91L68.16 -1.91Q73.63 -1.91 76.76 -3.96Q79.88 -6.02 79.88 -8.75Q79.88 -11.48 76.76 -13.54Q73.63 -15.59 68.16 -15.59L31.84 -15.59Q26.37 -15.59 23.24 -13.54Q20.12 -11.48 20.12 -8.75Q20.12 -6.02 23.24 -3.96Q26.37 -1.91 31.84 -1.91ZM17.58 -19.41L32.42 -19.41Q36.72 -19.41 39.55 -21.46Q42.38 -23.52 42.38 -26.25Q42.38 -28.98 39.55 -31.04Q36.72 -33.09 32.42 -33.09L17.58 -33.09Q13.28 -33.09 10.45 -31.04Q7.62 -28.98 7.62 -26.25Q7.62 -23.52 10.45 -21.46Q13.28 -19.41 17.58 -19.41ZM67.58 -19.41L82.42 -19.41Q86.72 -19.41 89.55 -21.46Q92.38 -23.52 92.38 -26.25Q92.38 -28.98 89.55 -31.04Q86.72 -33.09 82.42 -33.09L67.58 -33.09Q63.28 -33.09 60.45 -31.04Q57.62 -28.98 57.62 -26.25Q57.62 -23.52 60.45 -21.46Q63.28 -19.41 67.58 -19.41ZM5.08 -36.91L19.92 -36.91Q24.22 -36.91 27.05 -38.96Q29.88 -41.02 29.88 -43.75Q29.88 -46.48 27.05 -48.54Q24.22 -50.59 19.92 -50.59L5.08 -50.59Q0.78 -50.59 -2.05 -48.54Q-4.88 -46.48 -4.88 -43.75Q-4.88 -41.02 -2.05 -38.96Q0.78 -36.91 5.08 -36.91ZM5.08 -54.41L19.92 -54.41Q24.22 -54.41 27.05 -56.46Q29.88 -58.52 29.88 -61.25Q29.88 -63.98 27.05 -66.04Q24.22 -68.09 19.92 -68.09L5.08 -68.09Q0.78 -68.09 -2.05 -66.04Q-4.88 -63.98 -4.88 -61.25Q-4.88 -58.52 -2.05 -56.46Q0.78 -54.41 5.08 -54.41ZM5.08 -71.91L19.92 -71.91Q24.22 -71.91 27.05 -73.96Q29.88 -76.02 29.88 -78.75Q29.88 -81.48 27.05 -83.54Q24.22 -85.59 19.92 -85.59L5.08 -85.59Q0.78 -85.59 -2.05 -83.54Q-4.88 -81.48 -4.88 -78.75Q-4.88 -76.02 -2.05 -73.96Q0.78 -71.91 5.08 -71.91ZM17.58 -89.41L32.42 -89.41Q36.72 -89.41 39.55 -91.46Q42.38 -93.52 42.38 -96.25Q42.38 -98.98 39.55 -101.04Q36.72 -103.09 32.42 -103.09L17.58 -103.09Q13.28 -103.09 10.45 -101.04Q7.62 -98.98 7.62 -96.25Q7.62 -93.52 10.45 -91.46Q13.28 -89.41 17.58 -89.41ZM67.58 -89.41L82.42 -89.41Q86.72 -89.41 89.55 -91.46Q92.38 -93.52 92.38 -96.25Q92.38 -98.98 89.55 -101.04Q86.72 -103.09 82.42 -103.09L67.58 -103.09Q63.28 -103.09 60.45 -101.04Q57.62 -98.98 57.62 -96.25Q57.62 -93.52 60.45 -91.46Q63.28 -89.41 67.58 -89.41ZM31.84 -106.91L68.16 -106.91Q73.63 -106.91 76.76 -108.96Q79.88 -111.02 79.88 -113.75Q79.88 -116.48 76.76 -118.54Q73.63 -120.59 68.16 -120.59L31.84 -120.59Q26.37 -120.59 23.24 -118.54Q20.12 -116.48 20.12 -113.75Q20.12 -111.02 23.24 -108.96Q26.37 -106.91 31.84 -106.91ZM130.08 -1.91L157.42 -1.91Q161.72 -1.91 164.55 -3.96Q167.38 -6.02 167.38 -8.75Q167.38 -11.48 164.55 -13.54Q161.72 -15.59 157.42 -15.59L130.08 -15.59Q125.78 -15.59 122.95 -13.54Q120.12 -11.48 120.12 -8.75Q120.12 -6.02 122.95 -3.96Q125.78 -1.91 130.08 -1.91ZM117.58 -19.41L132.42 -19.41Q136.72 -19.41 139.55 -21.46Q142.38 -23.52 142.38 -26.25Q142.38 -28.98 139.55 -31.04Q136.72 -33.09 132.42 -33.09L117.58 -33.09Q113.28 -33.09 110.45 -31.04Q107.62 -28.98 107.62 -26.25Q107.62 -23.52 110.45 -21.46Q113.28 -19.41 117.58 -19.41ZM155.08 -19.41L169.92 -19.41Q174.22 -19.41 177.05 -21.46Q179.88 -23.52 179.88 -26.25Q179.88 -28.98 177.05 -31.04Q174.22 -33.09 169.92 -33.09L155.08 -33.09Q150.78 -33.09 147.95 -31.04Q145.12 -28.98 145.12 -26.25Q145.12 -23.52 147.95 -21.46Q150.78 -19.41 155.08 -19.41ZM105.08 -36.91L119.92 -36.91Q124.22 -36.91 127.05 -38.96Q129.88 -41.02 129.88 -43.75Q129.88 -46.48 127.05 -48.54Q124.22 -50.59 119.92 -50.59L105.08 -50.59Q100.78 -50.59 97.95 -48.54Q95.12 -46.48 95.12 -43.75Q95.12 -41.02 97.95 -38.96Q100.78 -36.91 105.08 -36.91ZM167.58 -36.91L182.42 -36.91Q186.72 -36.91 189.55 -38.96Q192.38 -41.02 192.38 -43.75Q192.38 -46.48 189.55 -48.54Q186.72 -50.59 182.42 -50.59L167.58 -50.59Q163.28 -50.59 160.45 -48.54Q157.62 -46.48 157.62 -43.75Q157.62 -41.02 160.45 -38.96Q163.28 -36.91 167.58 -36.91ZM105.08 -54.41L119.92 -54.41Q124.22 -54.41 127.05 -56.46Q129.88 -58.52 129.88 -61.25Q129.88 -63.98 127.05 -66.04Q124.22 -68.09 119.92 -68.09L105.08 -68.09Q100.78 -68.09 97.95 -66.04Q95.12 -63.98 95.12 -61.25Q95.12 -58.52 97.95 -56.46Q100.78 -54.41 105.08 -54.41ZM167.58 -54.41L182.42 -54.41Q186.72 -54.41 189.55 -56.46Q192.38 -58.52 192.38 -61.25Q192.38 -63.98 189.55 -66.04Q186.72 -68.09 182.42 -68.09L167.58 -68.09Q163.28 -68.09 160.45 -66.04Q157.62 -63.98 157.62 -61.25Q157.62 -58.52 160.45 -56.46Q163.28 -54.41 167.58 -54.41ZM105.08 -71.91L119.92 -71.91Q124.22 -71.91 127.05 -73.96Q129.88 -76.02 129.88 -78.75Q129.88 -81.48 127.05 -83.54Q124.22 -85.59 119.92 -85.59L105.08 -85.59Q100.78 -85.59 97.95 -83.54Q95.12 -81.48 95.12 -78.75Q95.12 -76.02 97.95 -73.96Q100.78 -71.91 105.08 -71.91ZM167.58 -71.91L182.42 -71.91Q186.72 -71.91 189.55 -73.96Q192.38 -76.02 192.38 -78.75Q192.38 -81.48 189.55 -83.54Q186.72 -85.59 182.42 -85.59L167.58 -85.59Q163.28 -85.59 160.45 -83.54Q157.62 -81.48 157.62 -78.75Q157.62 -76.02 160.45 -73.96Q163.28 -71.91 167.58 -71.91ZM117.58 -89.41L132.42 -89.41Q136.72 -89.41 139.55 -91.46Q142.38 -93.52 142.38 -96.25Q142.38 -98.98 139.55 -101.04Q136.72 -103.09 132.42 -103.09L117.58 -103.09Q113.28 -103.09 110.45 -101.04Q107.62 -98.98 107.62 -96.25Q107.62 -93.52 110.45 -91.46Q113.28 -89.41 117.58 -89.41ZM155.08 -89.41L169.92 -89.41Q174.22 -89.41 177.05 -91.46Q179.88 -93.52 179.88 -96.25Q179.88 -98.98 177.05 -101.04Q174.22 -103.09 169.92 -103.09L155.08 -103.09Q150.78 -103.09 147.95 -101.04Q145.12 -98.98 145.12 -96.25Q145.12 -93.52 147.95 -91.46Q150.78 -89.41 155.08 -89.41ZM130.08 -106.91L157.42 -106.91Q161.72 -106.91 164.55 -108.96Q167.38 -111.02 167.38 -113.75Q167.38 -116.48 164.55 -118.54Q161.72 -120.59 157.42 -120.59L130.08 -120.59Q125.78 -120.59 122.95 -118.54Q120.12 -116.48 120.12 -113.75Q120.12 -111.02 122.95 -108.96Q125.78 -106.91 130.08 -106.91ZM205.08 -1.91L219.92 -1.91Q224.22 -1.91 227.05 -3.96Q229.88 -6.02 229.88 -8.75Q229.88 -11.48 227.05 -13.54Q224.22 -15.59 219.92 -15.59L205.08 -15.59Q200.78 -15.59 197.95 -13.54Q195.12 -11.48 195.12 -8.75Q195.12 -6.02 197.95 -3.96Q200.78 -1.91 205.08 -1.91ZM267.58 -1.91L282.42 -1.91Q286.72 -1.91 289.55 -3.96Q292.38 -6.02 292.38 -8.75Q292.38 -11.48 289.55 -13.54Q286.72 -15.59 282.42 -15.59L267.58 -15.59Q263.28 -15.59 260.45 -13.54Q257.62 -11.48 257.62 -8.75Q257.62 -6.02 260.45 -3.96Q263.28 -1.91 267.58 -1.91ZM205.08 -19.41L219.92 -19.41Q224.22 -19.41 227.05 -21.46Q229.88 -23.52 229.88 -26.25Q229.88 -28.98 227.05 -31.04Q224.22 -33.09 219.92 -33.09L205.08 -33.09Q200.78 -33.09 197.95 -31.04Q195.12 -28.98 195.12 -26.25Q195.12 -23.52 197.95 -21.46Q200.78 -19.41 205.08 -19.41ZM267.58 -19.41L282.42 -19.41Q286.72 -19.41 289.55 -21.46Q292.38 -23.52 292.38 -26.25Q292.38 -28.98 289.55 -31.04Q286.72 -33.09 282.42 -33.09L267.58 -33.09Q263.28 -33.09 260.45 -31.04Q257.62 -28.98 257.62 -26.25Q257.62 -23.52 260.45 -21.46Q263.28 -19.41 267.58 -19.41ZM205.08 -36.91L219.92 -36.91Q224.22 -36.91 227.05 -38.96Q229.88 -41.02 229.88 -43.75Q229.88 -46.48 227.05 -48.54Q224.22 -50.59 219.92 -50.59L205.08 -50.59Q200.78 -50.59 197.95 -48.54Q195.12 -46.48 195.12 -43.75Q195.12 -41.02 197.95 -38.96Q200.78 -36.91 205.08 -36.91ZM240.43 -36.91L247.07 -36.91Q250.39 -36.91 252.64 -38.96Q254.88 -41.02 254.88 -43.75Q254.88 -46.48 252.64 -48.54Q250.39 -50.59 247.07 -50.59L240.43 -50.59Q237.11 -50.59 234.86 -48.54Q232.62 -46.48 232.62 -43.75Q232.62 -41.02 234.86 -38.96Q237.11 -36.91 240.43 -36.91ZM267.58 -36.91L282.42 -36.91Q286.72 -36.91 289.55 -38.96Q292.38 -41.02 292.38 -43.75Q292.38 -46.48 289.55 -48.54Q286.72 -50.59 282.42 -50.59L267.58 -50.59Q263.28 -50.59 260.45 -48.54Q257.62 -46.48 257.62 -43.75Q257.62 -41.02 260.45 -38.96Q263.28 -36.91 267.58 -36.91ZM206.84 -54.41L280.66 -54.41Q286.13 -54.41 289.26 -56.46Q292.38 -58.52 292.38 -61.25Q292.38 -63.98 289.26 -66.04Q286.13 -68.09 280.66 -68.09L206.84 -68.09Q201.37 -68.09 198.24 -66.04Q195.12 -63.98 195.12 -61.25Q195.12 -58.52 198.24 -56.46Q201.37 -54.41 206.84 -54.41ZM205.08 -71.91L232.42 -71.91Q236.72 -71.91 239.55 -73.96Q242.38 -76.02 242.38 -78.75Q242.38 -81.48 239.55 -83.54Q236.72 -85.59 232.42 -85.59L205.08 -85.59Q200.78 -85.59 197.95 -83.54Q195.12 -81.48 195.12 -78.75Q195.12 -76.02 197.95 -73.96Q200.78 -71.91 205.08 -71.91ZM255.08 -71.91L282.42 -71.91Q286.72 -71.91 289.55 -73.96Q292.38 -76.02 292.38 -78.75Q292.38 -81.48 289.55 -83.54Q286.72 -85.59 282.42 -85.59L255.08 -85.59Q250.78 -85.59 247.95 -83.54Q245.12 -81.48 245.12 -78.75Q245.12 -76.02 247.95 -73.96Q250.78 -71.91 255.08 -71.91ZM205.08 -89.41L219.92 -89.41Q224.22 -89.41 227.05 -91.46Q229.88 -93.52 229.88 -96.25Q229.88 -98.98 227.05 -101.04Q224.22 -103.09 219.92 -103.09L205.08 -103.09Q200.78 -103.09 197.95 -101.04Q195.12 -98.98 195.12 -96.25Q195.12 -93.52 197.95 -91.46Q200.78 -89.41 205.08 -89.41ZM267.58 -89.41L282.42 -89.41Q286.72 -89.41 289.55 -91.46Q292.38 -93.52 292.38 -96.25Q292.38 -98.98 289.55 -101.04Q286.72 -103.09 282.42 -103.09L267.58 -103.09Q263.28 -103.09 260.45 -101.04Q257.62 -98.98 257.62 -96.25Q257.62 -93.52 260.45 -91.46Q263.28 -89.41 267.58 -89.41ZM202.93 -106.91L209.57 -106.91Q212.89 -106.91 215.14 -108.96Q217.38 -111.02 217.38 -113.75Q217.38 -116.48 215.14 -118.54Q212.89 -120.59 209.57 -120.59L202.93 -120.59Q199.61 -120.59 197.36 -118.54Q195.12 -116.48 195.12 -113.75Q195.12 -111.02 197.36 -108.96Q199.61 -106.91 202.93 -106.91ZM277.93 -106.91L284.57 -106.91Q287.89 -106.91 290.14 -108.96Q292.38 -111.02 292.38 -113.75Q292.38 -116.48 290.14 -118.54Q287.89 -120.59 284.57 -120.59L277.93 -120.59Q274.61 -120.59 272.36 -118.54Q270.12 -116.48 270.12 -113.75Q270.12 -111.02 272.36 -108.96Q274.61 -106.91 277.93 -106.91ZM305.08 -1.91L332.42 -1.91Q336.72 -1.91 339.55 -3.96Q342.38 -6.02 342.38 -8.75Q342.38 -11.48 339.55 -13.54Q336.72 -15.59 332.42 -15.59L305.08 -15.59Q300.78 -15.59 297.95 -13.54Q295.12 -11.48 295.12 -8.75Q295.12 -6.02 297.95 -3.96Q300.78 -1.91 305.08 -1.91ZM380.08 -1.91L394.92 -1.91Q399.22 -1.91 402.05 -3.96Q404.88 -6.02 404.88 -8.75Q404.88 -11.48 402.05 -13.54Q399.22 -15.59 394.92 -15.59L380.08 -15.59Q375.78 -15.59 372.95 -13.54Q370.12 -11.48 370.12 -8.75Q370.12 -6.02 372.95 -3.96Q375.78 -1.91 380.08 -1.91ZM317.58 -19.41L332.42 -19.41Q336.72 -19.41 339.55 -21.46Q342.38 -23.52 342.38 -26.25Q342.38 -28.98 339.55 -31.04Q336.72 -33.09 332.42 -33.09L317.58 -33.09Q313.28 -33.09 310.45 -31.04Q307.62 -28.98 307.62 -26.25Q307.62 -23.52 310.45 -21.46Q313.28 -19.41 317.58 -19.41ZM367.58 -19.41L382.42 -19.41Q386.72 -19.41 389.55 -21.46Q392.38 -23.52 392.38 -26.25Q392.38 -28.98 389.55 -31.04Q386.72 -33.09 382.42 -33.09L367.58 -33.09Q363.28 -33.09 360.45 -31.04Q357.62 -28.98 357.62 -26.25Q357.62 -23.52 360.45 -21.46Q363.28 -19.41 367.58 -19.41ZM317.58 -36.91L332.42 -36.91Q336.72 -36.91 339.55 -38.96Q342.38 -41.02 342.38 -43.75Q342.38 -46.48 339.55 -48.54Q336.72 -50.59 332.42 -50.59L317.58 -50.59Q313.28 -50.59 310.45 -48.54Q307.62 -46.48 307.62 -43.75Q307.62 -41.02 310.45 -38.96Q313.28 -36.91 317.58 -36.91ZM355.08 -36.91L369.92 -36.91Q374.22 -36.91 377.05 -38.96Q379.88 -41.02 379.88 -43.75Q379.88 -46.48 377.05 -48.54Q374.22 -50.59 369.92 -50.59L355.08 -50.59Q350.78 -50.59 347.95 -48.54Q345.12 -46.48 345.12 -43.75Q345.12 -41.02 347.95 -38.96Q350.78 -36.91 355.08 -36.91ZM319.34 -54.41L368.16 -54.41Q373.63 -54.41 376.76 -56.46Q379.88 -58.52 379.88 -61.25Q379.88 -63.98 376.76 -66.04Q373.63 -68.09 368.16 -68.09L319.34 -68.09Q313.87 -68.09 310.74 -66.04Q307.62 -63.98 307.62 -61.25Q307.62 -58.52 310.74 -56.46Q313.87 -54.41 319.34 -54.41ZM317.58 -71.91L332.42 -71.91Q336.72 -71.91 339.55 -73.96Q342.38 -76.02 342.38 -78.75Q342.38 -81.48 339.55 -83.54Q336.72 -85.59 332.42 -85.59L317.58 -85.59Q313.28 -85.59 310.45 -83.54Q307.62 -81.48 307.62 -78.75Q307.62 -76.02 310.45 -73.96Q313.28 -71.91 317.58 -71.91ZM367.58 -71.91L382.42 -71.91Q386.72 -71.91 389.55 -73.96Q392.38 -76.02 392.38 -78.75Q392.38 -81.48 389.55 -83.54Q386.72 -85.59 382.42 -85.59L367.58 -85.59Q363.28 -85.59 360.45 -83.54Q357.62 -81.48 357.62 -78.75Q357.62 -76.02 360.45 -73.96Q363.28 -71.91 367.58 -71.91ZM317.58 -89.41L332.42 -89.41Q336.72 -89.41 339.55 -91.46Q342.38 -93.52 342.38 -96.25Q342.38 -98.98 339.55 -101.04Q336.72 -103.09 332.42 -103.09L317.58 -103.09Q313.28 -103.09 310.45 -101.04Q307.62 -98.98 307.62 -96.25Q307.62 -93.52 310.45 -91.46Q313.28 -89.41 317.58 -89.41ZM367.58 -89.41L382.42 -89.41Q386.72 -89.41 389.55 -91.46Q392.38 -93.52 392.38 -96.25Q392.38 -98.98 389.55 -101.04Q386.72 -103.09 382.42 -103.09L367.58 -103.09Q363.28 -103.09 360.45 -101.04Q357.62 -98.98 357.62 -96.25Q357.62 -93.52 360.45 -91.46Q363.28 -89.41 367.58 -89.41ZM306.84 -106.91L368.16 -106.91Q373.63 -106.91 376.76 -108.96Q379.88 -111.02 379.88 -113.75Q379.88 -116.48 376.76 -118.54Q373.63 -120.59 368.16 -120.59L306.84 -120.59Q301.37 -120.59 298.24 -118.54Q295.12 -116.48 295.12 -113.75Q295.12 -111.02 298.24 -108.96Q301.37 -106.91 306.84 -106.91ZM405.08 -1.91L419.92 -1.91Q424.22 -1.91 427.05 -3.96Q429.88 -6.02 429.88 -8.75Q429.88 -11.48 427.05 -13.54Q424.22 -15.59 419.92 -15.59L405.08 -15.59Q400.78 -15.59 397.95 -13.54Q395.12 -11.48 395.12 -8.75Q395.12 -6.02 397.95 -3.96Q400.78 -1.91 405.08 -1.91ZM480.08 -1.91L494.92 -1.91Q499.22 -1.91 502.05 -3.96Q504.88 -6.02 504.88 -8.75Q504.88 -11.48 502.05 -13.54Q499.22 -15.59 494.92 -15.59L480.08 -15.59Q475.78 -15.59 472.95 -13.54Q470.12 -11.48 470.12 -8.75Q470.12 -6.02 472.95 -3.96Q475.78 -1.91 480.08 -1.91ZM405.08 -19.41L419.92 -19.41Q424.22 -19.41 427.05 -21.46Q429.88 -23.52 429.88 -26.25Q429.88 -28.98 427.05 -31.04Q424.22 -33.09 419.92 -33.09L405.08 -33.09Q400.78 -33.09 397.95 -31.04Q395.12 -28.98 395.12 -26.25Q395.12 -23.52 397.95 -21.46Q400.78 -19.41 405.08 -19.41ZM480.08 -19.41L494.92 -19.41Q499.22 -19.41 502.05 -21.46Q504.88 -23.52 504.88 -26.25Q504.88 -28.98 502.05 -31.04Q499.22 -33.09 494.92 -33.09L480.08 -33.09Q475.78 -33.09 472.95 -31.04Q470.12 -28.98 470.12 -26.25Q470.12 -23.52 472.95 -21.46Q475.78 -19.41 480.08 -19.41ZM419.34 -36.91L480.66 -36.91Q486.13 -36.91 489.26 -38.96Q492.38 -41.02 492.38 -43.75Q492.38 -46.48 489.26 -48.54Q486.13 -50.59 480.66 -50.59L419.34 -50.59Q413.87 -50.59 410.74 -48.54Q407.62 -46.48 407.62 -43.75Q407.62 -41.02 410.74 -38.96Q413.87 -36.91 419.34 -36.91ZM417.58 -54.41L432.42 -54.41Q436.72 -54.41 439.55 -56.46Q442.38 -58.52 442.38 -61.25Q442.38 -63.98 439.55 -66.04Q436.72 -68.09 432.42 -68.09L417.58 -68.09Q413.28 -68.09 410.45 -66.04Q407.62 -63.98 407.62 -61.25Q407.62 -58.52 410.45 -56.46Q413.28 -54.41 417.58 -54.41ZM467.58 -54.41L482.42 -54.41Q486.72 -54.41 489.55 -56.46Q492.38 -58.52 492.38 -61.25Q492.38 -63.98 489.55 -66.04Q486.72 -68.09 482.42 -68.09L467.58 -68.09Q463.28 -68.09 460.45 -66.04Q457.62 -63.98 457.62 -61.25Q457.62 -58.52 460.45 -56.46Q463.28 -54.41 467.58 -54.41ZM431.84 -71.91L468.16 -71.91Q473.63 -71.91 476.76 -73.96Q479.88 -76.02 479.88 -78.75Q479.88 -81.48 476.76 -83.54Q473.63 -85.59 468.16 -85.59L431.84 -85.59Q426.37 -85.59 423.24 -83.54Q420.12 -81.48 420.12 -78.75Q420.12 -76.02 423.24 -73.96Q426.37 -71.91 431.84 -71.91ZM431.84 -89.41L468.16 -89.41Q473.63 -89.41 476.76 -91.46Q479.88 -93.52 479.88 -96.25Q479.88 -98.98 476.76 -101.04Q473.63 -103.09 468.16 -103.09L431.84 -103.09Q426.37 -103.09 423.24 -101.04Q420.12 -98.98 420.12 -96.25Q420.12 -93.52 423.24 -91.46Q426.37 -89.41 431.84 -89.41ZM442.58 -106.91L457.42 -106.91Q461.72 -106.91 464.55 -108.96Q467.38 -111.02 467.38 -113.75Q467.38 -116.48 464.55 -118.54Q461.72 -120.59 457.42 -120.59L442.58 -120.59Q438.28 -120.59 435.45 -118.54Q432.62 -116.48 432.62 -113.75Q432.62 -111.02 435.45 -108.96Q438.28 -106.91 442.58 -106.91ZM506.84 -1.91L555.66 -1.91Q561.13 -1.91 564.26 -3.96Q567.38 -6.02 567.38 -8.75Q567.38 -11.48 564.26 -13.54Q561.13 -15.59 555.66 -15.59L506.84 -15.59Q501.37 -15.59 498.24 -13.54Q495.12 -11.48 495.12 -8.75Q495.12 -6.02 498.24 -3.96Q501.37 -1.91 506.84 -1.91ZM517.58 -19.41L532.42 -19.41Q536.72 -19.41 539.55 -21.46Q542.38 -23.52 542.38 -26.25Q542.38 -28.98 539.55 -31.04Q536.72 -33.09 532.42 -33.09L517.58 -33.09Q513.28 -33.09 510.45 -31.04Q507.62 -28.98 507.62 -26.25Q507.62 -23.52 510.45 -21.46Q513.28 -19.41 517.58 -19.41ZM555.08 -19.41L569.92 -19.41Q574.22 -19.41 577.05 -21.46Q579.88 -23.52 579.88 -26.25Q579.88 -28.98 577.05 -31.04Q574.22 -33.09 569.92 -33.09L555.08 -33.09Q550.78 -33.09 547.95 -31.04Q545.12 -28.98 545.12 -26.25Q545.12 -23.52 547.95 -21.46Q550.78 -19.41 555.08 -19.41ZM517.58 -36.91L532.42 -36.91Q536.72 -36.91 539.55 -38.96Q542.38 -41.02 542.38 -43.75Q542.38 -46.48 539.55 -48.54Q536.72 -50.59 532.42 -50.59L517.58 -50.59Q513.28 -50.59 510.45 -48.54Q507.62 -46.48 507.62 -43.75Q507.62 -41.02 510.45 -38.96Q513.28 -36.91 517.58 -36.91ZM567.58 -36.91L582.42 -36.91Q586.72 -36.91 589.55 -38.96Q592.38 -41.02 592.38 -43.75Q592.38 -46.48 589.55 -48.54Q586.72 -50.59 582.42 -50.59L567.58 -50.59Q563.28 -50.59 560.45 -48.54Q557.62 -46.48 557.62 -43.75Q557.62 -41.02 560.45 -38.96Q563.28 -36.91 567.58 -36.91ZM517.58 -54.41L532.42 -54.41Q536.72 -54.41 539.55 -56.46Q542.38 -58.52 542.38 -61.25Q542.38 -63.98 539.55 -66.04Q536.72 -68.09 532.42 -68.09L517.58 -68.09Q513.28 -68.09 510.45 -66.04Q507.62 -63.98 507.62 -61.25Q507.62 -58.52 510.45 -56.46Q513.28 -54.41 517.58 -54.41ZM567.58 -54.41L582.42 -54.41Q586.72 -54.41 589.55 -56.46Q592.38 -58.52 592.38 -61.25Q592.38 -63.98 589.55 -66.04Q586.72 -68.09 582.42 -68.09L567.58 -68.09Q563.28 -68.09 560.45 -66.04Q557.62 -63.98 557.62 -61.25Q557.62 -58.52 560.45 -56.46Q563.28 -54.41 567.58 -54.41ZM517.58 -71.91L532.42 -71.91Q536.72 -71.91 539.55 -73.96Q542.38 -76.02 542.38 -78.75Q542.38 -81.48 539.55 -83.54Q536.72 -85.59 532.42 -85.59L517.58 -85.59Q513.28 -85.59 510.45 -83.54Q507.62 -81.48 507.62 -78.75Q507.62 -76.02 510.45 -73.96Q513.28 -71.91 517.58 -71.91ZM567.58 -71.91L582.42 -71.91Q586.72 -71.91 589.55 -73.96Q592.38 -76.02 592.38 -78.75Q592.38 -81.48 589.55 -83.54Q586.72 -85.59 582.42 -85.59L567.58 -85.59Q563.28 -85.59 560.45 -83.54Q557.62 -81.48 557.62 -78.75Q557.62 -76.02 560.45 -73.96Q563.28 -71.91 567.58 -71.91ZM517.58 -89.41L532.42 -89.41Q536.72 -89.41 539.55 -91.46Q542.38 -93.52 542.38 -96.25Q542.38 -98.98 539.55 -101.04Q536.72 -103.09 532.42 -103.09L517.58 -103.09Q513.28 -103.09 510.45 -101.04Q507.62 -98.98 507.62 -96.25Q507.62 -93.52 510.45 -91.46Q513.28 -89.41 517.58 -89.41ZM555.08 -89.41L569.92 -89.41Q574.22 -89.41 577.05 -91.46Q579.88 -93.52 579.88 -96.25Q579.88 -98.98 577.05 -101.04Q574.22 -103.09 569.92 -103.09L555.08 -103.09Q550.78 -103.09 547.95 -101.04Q545.12 -98.98 545.12 -96.25Q545.12 -93.52 547.95 -91.46Q550.78 -89.41 555.08 -89.41ZM506.84 -106.91L555.66 -106.91Q561.13 -106.91 564.26 -108.96Q567.38 -111.02 567.38 -113.75Q567.38 -116.48 564.26 -118.54Q561.13 -120.59 555.66 -120.59L506.84 -120.59Q501.37 -120.59 498.24 -118.54Q495.12 -116.48 495.12 -113.75Q495.12 -111.02 498.24 -108.96Q501.37 -106.91 506.84 -106.91ZM606.84 -1.91L680.66 -1.91Q686.13 -1.91 689.26 -3.96Q692.38 -6.02 692.38 -8.75Q692.38 -11.48 689.26 -13.54Q686.13 -15.59 680.66 -15.59L606.84 -15.59Q601.37 -15.59 598.24 -13.54Q595.12 -11.48 595.12 -8.75Q595.12 -6.02 598.24 -3.96Q601.37 -1.91 606.84 -1.91ZM617.58 -19.41L632.42 -19.41Q636.72 -19.41 639.55 -21.46Q642.38 -23.52 642.38 -26.25Q642.38 -28.98 639.55 -31.04Q636.72 -33.09 632.42 -33.09L617.58 -33.09Q613.28 -33.09 610.45 -31.04Q607.62 -28.98 607.62 -26.25Q607.62 -23.52 610.45 -21.46Q613.28 -19.41 617.58 -19.41ZM667.58 -19.41L682.42 -19.41Q686.72 -19.41 689.55 -21.46Q692.38 -23.52 692.38 -26.25Q692.38 -28.98 689.55 -31.04Q686.72 -33.09 682.42 -33.09L667.58 -33.09Q663.28 -33.09 660.45 -31.04Q657.62 -28.98 657.62 -26.25Q657.62 -23.52 660.45 -21.46Q663.28 -19.41 667.58 -19.41ZM617.58 -36.91L632.42 -36.91Q636.72 -36.91 639.55 -38.96Q642.38 -41.02 642.38 -43.75Q642.38 -46.48 639.55 -48.54Q636.72 -50.59 632.42 -50.59L617.58 -50.59Q613.28 -50.59 610.45 -48.54Q607.62 -46.48 607.62 -43.75Q607.62 -41.02 610.45 -38.96Q613.28 -36.91 617.58 -36.91ZM619.34 -54.41L655.66 -54.41Q661.13 -54.41 664.26 -56.46Q667.38 -58.52 667.38 -61.25Q667.38 -63.98 664.26 -66.04Q661.13 -68.09 655.66 -68.09L619.34 -68.09Q613.87 -68.09 610.74 -66.04Q607.62 -63.98 607.62 -61.25Q607.62 -58.52 610.74 -56.46Q613.87 -54.41 619.34 -54.41ZM617.58 -71.91L632.42 -71.91Q636.72 -71.91 639.55 -73.96Q642.38 -76.02 642.38 -78.75Q642.38 -81.48 639.55 -83.54Q636.72 -85.59 632.42 -85.59L617.58 -85.59Q613.28 -85.59 610.45 -83.54Q607.62 -81.48 607.62 -78.75Q607.62 -76.02 610.45 -73.96Q613.28 -71.91 617.58 -71.91ZM617.58 -89.41L632.42 -89.41Q636.72 -89.41 639.55 -91.46Q642.38 -93.52 642.38 -96.25Q642.38 -98.98 639.55 -101.04Q636.72 -103.09 632.42 -103.09L617.58 -103.09Q613.28 -103.09 610.45 -101.04Q607.62 -98.98 607.62 -96.25Q607.62 -93.52 610.45 -91.46Q613.28 -89.41 617.58 -89.41ZM667.58 -89.41L682.42 -89.41Q686.72 -89.41 689.55 -91.46Q692.38 -93.52 692.38 -96.25Q692.38 -98.98 689.55 -101.04Q686.72 -103.09 682.42 -103.09L667.58 -103.09Q663.28 -103.09 660.45 -101.04Q657.62 -98.98 657.62 -96.25Q657.62 -93.52 660.45 -91.46Q663.28 -89.41 667.58 -89.41ZM606.84 -106.91L680.66 -106.91Q686.13 -106.91 689.26 -108.96Q692.38 -111.02 692.38 -113.75Q692.38 -116.48 689.26 -118.54Q686.13 -120.59 680.66 -120.59L606.84 -120.59Q601.37 -120.59 598.24 -118.54Q595.12 -116.48 595.12 -113.75Q595.12 -111.02 598.24 -108.96Q601.37 -106.91 606.84 -106.91Z" fill="#333333" transform="translate(34.88,150.59)"/>
</svg>
