<svg xmlns="http://www.w3.org/2000/svg" viewBox="0 0 597.6 178.72" width="597.6" height="178.72">
  <path d="M72 33.92Q72.8 30.53 72.8 25.44Q72.8 20.56 72 16.96L64 16.96Q64.8 13.57 64.8 8.48Q64.8 3.6 64 0L24 0Q23.2 3.6 23.2 8.48Q23.2 13.57 24 16.96L16 16.96Q15.2 20.56 15.2 25.44Q15.2 30.53 16 33.92L8 33.92Q7.2 37.52 7.2 42.4Q7.2 47.49 8 50.88Q7.2 54.48 7.2 59.36Q7.2 64.45 8 67.84Q7.2 71.44 7.2 76.32Q7.2 81.41 8 84.8L16 84.8Q15.2 88.4 15.2 93.28Q15.2 98.37 16 101.76L24 101.76Q23.2 105.36 23.2 110.24Q23.2 115.33 24 118.72L64 118.72Q64.8 115.33 64.8 110.24Q64.8 105.36 64 101.76L72 101.76Q72.8 98.37 72.8 93.28Q72.8 88.4 72 84.8L56 84.8Q55.2 88.4 55.2 93.28Q55.2 98.37 56 101.76L32 101.76Q32.8 98.37 32.8 93.28Q32.8 88.4 32 84.8L24 84.8Q24.8 81.41 24.8 76.32Q24.8 71.44 24 67.84Q24.8 64.45 24.8 59.36Q24.8 54.48 24 50.88Q24.8 47.49 24.8 42.4Q24.8 37.52 24 33.92L32 33.92Q32.8 30.53 32.8 25.44Q32.8 20.56 32 16.96L56 16.96Q55.2 20.56 55.2 25.44Q55.2 30.53 56 33.92ZM152 67.84Q152.8 64.45 152.8 59.36Q152.8 54.48 152 50.88Q152.8 47.49 152.8 42.4Q152.8 37.52 152 33.92L146 33.92Q146.8 30.53 146.8 25.44Q146.8 20.56 146 16.96L136 16.96Q136.8 13.57 136.8 8.48Q136.8 3.6 136 0L104 0Q103.2 3.6 103.2 8.48Q103.2 13.57 104 16.96L94 16.96Q93.2 20.56 93.2 25.44Q93.2 30.53 94 33.92L88 33.92Q87.2 37.52 87.2 42.4Q87.2 47.49 88 50.88Q87.2 54.48 87.2 59.36Q87.2 64.45 88 67.84Q87.2 71.44 87.2 76.32Q87.2 81.41 88 84.8L94 84.8Q93.2 88.4 93.2 93.28Q93.2 98.37 94 101.76L104 101.76Q103.2 105.36 103.2 110.24Q103.2 115.33 104 118.72L136 118.72Q136.8 115.33 136.8 110.24Q136.8 105.36 136 101.76L146 101.76Q146.8 98.37 146.8 93.28Q146.8 88.4 146 84.8L152 84.8Q152.8 81.41 152.8 76.32Q152.8 71.44 152 67.84ZM136 33.92Q135.2 37.52 135.2 42.4Q135.2 47.49 136 50.88Q135.2 54.48 135.2 59.36Q135.2 64.45 136 67.84Q135.2 71.44 135.2 76.32Q135.2 81.41 136 84.8L130 84.8Q129.2 88.4 129.2 93.28Q129.2 98.37 130 101.76L110 101.76Q110.8 98.37 110.8 93.28Q110.8 88.4 110 84.8L104 84.8Q104.8 81.41 104.8 76.32Q104.8 71.44 104 67.84Q104.8 64.45 104.8 59.36Q104.8 54.48 104 50.88Q104.8 47.49 104.8 42.4Q104.8 37.52 104 33.92L110 33.92Q110.8 30.53 110.8 25.44Q110.8 20.56 110 16.96L130 16.96Q129.2 20.56 129.2 25.44Q129.2 30.53 130 33.92L136 33.92ZM232 101.76Q232.8 98.37 232.8 93.28Q232.8 88.4 232 84.8Q232.8 81.41 232.8 76.32Q232.8 71.44 232 67.84Q232.8 64.45 232.8 59.36Q232.8 54.48 232 50.88Q232.8 47.49 232.8 42.4Q232.8 37.52 232 33.92Q232.8 30.53 232.8 25.44Q232.8 20.56 232 16.96Q232.8 13.57 232.8 8.48Q232.8 3.6 232 0L216 0Q215.2 3.6 215.2 8.48Q215.2 13.57 216 16.96Q215.2 20.56 215.2 25.44Q215.2 30.53 216 33.92Q215.2 37.52 215.2 42.4Q215.2 47.49 216 50.88Q215.2 54.48 215.2 59.36Q215.2 64.45 216 67.84Q215.2 71.44 215.2 76.32Q215.2 81.41 216 84.8L210 84.8Q210.8 81.41 210.8 76.32Q210.8 71.44 210 67.84Q210.8 64.45 210.8 59.36Q210.8 54.48 210 50.88L206 50.88Q206.8 47.49 206.8 42.4Q206.8 37.52 206 33.92Q206.8 30.53 206.8 25.44Q206.8 20.56 206 16.96L194 16.96Q193.2 20.56 193.2 25.44Q193.2 30.53 194 33.92Q193.2 37.52 193.2 42.4Q193.2 47.49 194 50.88L190 50.88Q189.2 54.48 189.2 59.36Q189.2 64.45 190 67.84Q189.2 71.44 189.2 76.32Q189.2 81.41 190 84.8L184 84.8Q184.8 81.41 184.8 76.32Q184.8 71.44 184 67.84Q184.8 64.45 184.8 59.36Q184.8 54.48 184 50.88Q184.8 47.49 184.8 42.4Q184.8 37.52 184 33.92Q184.8 30.53 184.8 25.44Q184.8 20.56 184 16.96Q184.8 13.57 184.8 8.48Q184.8 3.6 184 0L168 0Q167.2 3.6 167.2 8.48Q167.2 13.57 168 16.96Q167.2 20.56 167.2 25.44Q167.2 30.53 168 33.92Q167.2 37.52 167.2 42.4Q167.2 47.49 168 50.88Q167.2 54.48 167.2 59.36Q167.2 64.45 168 67.84Q167.2 71.44 167.2 76.32Q167.2 81.41 168 84.8Q167.2 88.4 167.2 93.28Q167.2 98.37 168 101.76Q167.2 105.36 167.2 110.24Q167.2 115.33 168 118.72L188 118.72Q188.8 115.33 188.8 110.24Q188.8 105.36 188 101.76L194 101.76Q194.8 98.37 194.8 93.28Q194.8 88.4 194 84.8L197 84.8Q197.8 81.41 197.8 76.32Q197.8 71.44 197 67.84L203 67.84Q202.2 71.44 202.2 76.32Q202.2 81.41 203 84.8L206 84.8Q205.2 88.4 205.2 93.28Q205.2 98.37 206 101.76L212 101.76Q211.2 105.36 211.2 110.24Q211.2 115.33 212 118.72L232 118.72Q232.8 115.33 232.8 110.24Q232.8 105.36 232 101.76ZM312 16.96Q312.8 13.57 312.8 8.48Q312.8 3.6 312 0L296 0Q295.2 3.6 295.2 8.48Q295.2 13.57 296 16.96L290 16.96Q289.2 20.56 289.2 25.44Q289.2 30.53 290 33.92L284 33.92Q283.2 37.52 283.2 42.4Q283.2 47.49 284 50.88L264 50.88Q264.8 47.49 264.8 42.4Q264.8 37.52 264 33.92Q264.8 30.53 264.8 25.44Q264.8 20.56 264 16.96Q264.8 13.57 264.8 8.48Q264.8 3.6 264 0L248 0Q247.2 3.6 247.2 8.48Q247.2 13.57 248 16.96Q247.2 20.56 247.2 25.44Q247.2 30.53 248 33.92Q247.2 37.52 247.2 42.4Q247.2 47.49 248 50.88Q247.2 54.48 247.2 59.36Q247.2 64.45 248 67.84Q247.2 71.44 247.2 76.32Q247.2 81.41 248 84.8Q247.2 88.4 247.2 93.28Q247.2 98.37 248 101.76Q247.2 105.36 247.2 110.24Q247.2 115.33 248 118.72L304 118.72Q304.8 115.33 304.8 110.24Q304.8 105.36 304 101.76L312 101.76Q312.8 98.37 312.8 93.28Q312.8 88.4 312 84.8L308 84.8Q308.8 81.41 308.8 76.32Q308.8 71.44 308 67.84L296 67.84Q296.8 64.45 296.8 59.36Q296.8 54.48 296 50.88L300 50.88Q300.8 47.49 300.8 42.4Q300.8 37.52 300 33.92L306 33.92Q306.8 30.53 306.8 25.44Q306.8 20.56 306 16.96ZM292 67.84Q291.2 71.44 291.2 76.32Q291.2 81.41 292 84.8Q291.2 88.4 291.2 93.28Q291.2 98.37 292 101.76L264 101.76Q264.8 98.37 264.8 93.28Q264.8 88.4 264 84.8Q264.8 81.41 264.8 76.32Q264.8 71.44 264 67.84L292 67.84ZM392.8 25.44Q392.8 20.56 392 16.96Q392.8 13.57 392.8 8.48Q392.8 3.6 392 0L376 0Q375.2 3.6 375.2 8.48Q375.2 13.57 376 16.96Q375.2 20.56 375.2 25.44Q375.2 30.53 376 33.92L344 33.92Q344.8 30.53 344.8 25.44Q344.8 20.56 344 16.96Q344.8 13.57 344.8 8.48Q344.8 3.6 344 0L328 0Q327.2 3.6 327.2 8.48Q327.2 13.57 328 16.96Q327.2 20.56 327.2 25.44Q327.2 30.53 328 33.92L334 33.92Q333.2 37.52 333.2 42.4Q333.2 47.49 334 50.88Q333.2 54.48 333.2 59.36Q333.2 64.45 334 67.84L338 67.84Q337.2 71.44 337.2 76.32Q337.2 81.41 338 84.8L344 84.8Q343.2 88.4 343.2 93.28Q343.2 98.37 344 101.76L348 101.76Q347.2 105.36 347.2 110.24Q347.2 115.33 348 118.72L372 118.72Q372.8 115.33 372.8 110.24Q372.8 105.36 372 101.76L376 101.76Q376.8 98.37 376.8 93.28Q376.8 88.4 376 84.8L382 84.8Q382.8 81.41 382.8 76.32Q382.8 71.44 382 67.84L386 67.84Q386.8 64.45 386.8 59.36Q386.8 54.48 386 50.88Q386.8 47.49 386.8 42.4Q386.8 37.52 386 33.92L392 33.92Q392.8 30.53 392.8 25.44ZM370 50.88Q369.2 54.48 369.2 59.36Q369.2 64.45 370 67.84L366 67.84Q365.2 71.44 365.2 76.32Q365.2 81.41 366 84.8L354 84.8Q354.8 81.41 354.8 76.32Q354.8 71.44 354 67.84L350 67.84Q350.8 64.45 350.8 59.36Q350.8 54.48 350 50.88L370 50.88ZM472 67.84Q472.8 64.45 472.8 59.36Q472.8 54.48 472 50.88Q472.8 47.49 472.8 42.4Q472.8 37.52 472 33.92L464 33.92Q464.8 30.53 464.8 25.44Q464.8 20.56 464 16.96L456 16.96Q456.8 13.57 456.8 8.48Q456.8 3.6 456 0L408 0Q407.2 3.6 407.2 8.48Q407.2 13.57 408 16.96Q407.2 20.56 407.2 25.44Q407.2 30.53 408 33.92Q407.2 37.52 407.2 42.4Q407.2 47.49 408 50.88Q407.2 54.48 407.2 59.36Q407.2 64.45 408 67.84Q407.2 71.44 407.2 76.32Q407.2 81.41 408 84.8Q407.2 88.4 407.2 93.28Q407.2 98.37 408 101.76Q407.2 105.36 407.2 110.24Q407.2 115.33 408 118.72L456 118.72Q456.8 115.33 456.8 110.24Q456.8 105.36 456 101.76L464 101.76Q464.8 98.37 464.8 93.28Q464.8 88.4 464 84.8L472 84.8Q472.8 81.41 472.8 76.32Q472.8 71.44 472 67.84ZM456 33.92Q455.2 37.52 455.2 42.4Q455.2 47.49 456 50.88Q455.2 54.48 455.2 59.36Q455.2 64.45 456 67.84Q455.2 71.44 455.2 76.32Q455.2 81.41 456 84.8L448 84.8Q447.2 88.4 447.2 93.28Q447.2 98.37 448 101.76L424 101.76Q424.8 98.37 424.8 93.28Q424.8 88.4 424 84.8Q424.8 81.41 424.8 76.32Q424.8 71.44 424 67.84Q424.8 64.45 424.8 59.36Q424.8 54.48 424 50.88Q424.8 47.49 424.8 42.4Q424.8 37.52 424 33.92Q424.8 30.53 424.8 25.44Q424.8 20.56 424 16.96L448 16.96Q447.2 20.56 447.2 25.44Q447.2 30.53 448 33.92L456 33.92ZM512 50.88Q512.8 47.49 512.8 42.4Q512.8 37.52 512 33.92Q512.8 30.53 512.8 25.44Q512.8 20.56 512 16.96L544 16.96Q544.8 13.57 544.8 8.48Q544.8 3.6 544 0L496 0Q495.2 3.6 495.2 8.48Q495.2 13.57 496 16.96Q495.2 20.56 495.2 25.44Q495.2 30.53 496 33.92Q495.2 37.52 495.2 42.4Q495.2 47.49 496 50.88Q495.2 54.48 495.2 59.36Q495.2 64.45 496 67.84Q495.2 71.44 495.2 76.32Q495.2 81.41 496 84.8Q495.2 88.4 495.2 93.28Q495.2 98.37 496 101.76Q495.2 105.36 495.2 110.24Q495.2 115.33 496 118.72L544 118.72Q544.8 115.33 544.8 110.24Q544.8 105.36 544 101.76L512 101.76Q512.8 98.37 512.8 93.28Q512.8 88.4 512 84.8Q512.8 81.41 512.8 76.32Q512.8 71.44 512 67.84L544 67.84Q544.8 64.45 544.8 59.36Q544.8 54.48 544 50.88Z" fill="#000000" transform="translate(22.8,30)"/>
</svg>
