<svg xmlns="http://www.w3.org/2000/svg" viewBox="0 0 697.04 198.89" width="697.04" height="198.89">
  <path d="M51.85 -37.04L59.26 -37.04L59.26 -46.3L81.48 -46.3L81.48 -18.52L74.07 -18.52L74.07 -9.26L66.67 -9.26L66.67 0L22.22 0L22.22 -9.26L14.81 -9.26L14.81 -18.52L7.41 -18.52L7.41 -120.37L14.81 -120.37L14.81 -129.63L22.22 -129.63L22.22 -138.89L66.67 -138.89L66.67 -129.63L74.07 -129.63L74.07 -120.37L81.48 -120.37L81.48 -92.59L59.26 -92.59L59.26 -101.85L51.85 -101.85L51.85 -111.11L37.04 -111.11L37.04 -101.85L29.63 -101.85L29.63 -37.04L37.04 -37.04L37.04 -27.78L51.85 -27.78ZM96.3 -120.37L103.7 -120.37L103.7 -129.63L111.11 -129.63L111.11 -138.89L155.56 -138.89L155.56 -129.63L162.96 -129.63L162.96 -120.37L170.37 -120.37L170.37 -18.52L162.96 -18.52L162.96 -9.26L155.56 -9.26L155.56 0L111.11 0L111.11 -9.26L103.7 -9.26L103.7 -18.52L96.3 -18.52ZM140.74 -37.04L148.15 -37.04L148.15 -101.85L140.74 -101.85L140.74 -111.11L125.93 -111.11L125.93 -101.85L118.52 -101.85L118.52 -37.04L125.93 -37.04L125.93 -27.78L140.74 -27.78ZM229.63 -64.81L222.22 -64.81L222.22 -74.07L214.81 -74.07L214.81 -83.33L207.41 -83.33L207.41 0L185.19 0L185.19 -138.89L207.41 -138.89L207.41 -129.63L214.81 -129.63L214.81 -120.37L222.22 -120.37L222.22 -111.11L229.63 -111.11L229.63 -101.85L237.04 -101.85L237.04 -92.59L244.44 -92.59L244.44 -101.85L251.85 -101.85L251.85 -111.11L259.26 -111.11L259.26 -120.37L266.67 -120.37L266.67 -129.63L274.07 -129.63L274.07 -138.89L296.3 -138.89L296.3 0L274.07 0L274.07 -83.33L266.67 -83.33L266.67 -74.07L259.26 -74.07L259.26 -64.81L251.85 -64.81L251.85 -55.56L244.44 -55.56L244.44 -46.3L237.04 -46.3L237.04 -55.56L229.63 -55.56ZM355.56 -46.3L333.33 -46.3L333.33 0L311.11 0L311.11 -138.89L370.37 -138.89L370.37 -129.63L377.78 -129.63L377.78 -120.37L385.19 -120.37L385.19 -64.81L377.78 -64.81L377.78 -46.3L385.19 -46.3L385.19 0L362.96 0L362.96 -37.04L355.56 -37.04ZM355.56 -83.33L362.96 -83.33L362.96 -101.85L355.56 -101.85L355.56 -111.11L333.33 -111.11L333.33 -74.07L355.56 -74.07ZM451.85 -37.04L422.22 -37.04L422.22 0L400 0L400 -101.85L407.41 -101.85L407.41 -111.11L414.81 -111.11L414.81 -120.37L422.22 -120.37L422.22 -129.63L429.63 -129.63L429.63 -138.89L444.44 -138.89L444.44 -129.63L451.85 -129.63L451.85 -120.37L459.26 -120.37L459.26 -111.11L466.67 -111.11L466.67 -101.85L474.07 -101.85L474.07 0L451.85 0ZM422.22 -64.81L451.85 -64.81L451.85 -92.59L444.44 -92.59L444.44 -101.85L429.63 -101.85L429.63 -92.59L422.22 -92.59ZM488.89 -138.89L548.15 -138.89L548.15 -129.63L555.56 -129.63L555.56 -120.37L562.96 -120.37L562.96 -18.52L555.56 -18.52L555.56 -9.26L548.15 -9.26L548.15 0L488.89 0ZM533.33 -37.04L540.74 -37.04L540.74 -101.85L533.33 -101.85L533.33 -111.11L511.11 -111.11L511.11 -27.78L533.33 -27.78ZM600 -27.78L644.44 -27.78L644.44 0L577.78 0L577.78 -138.89L644.44 -138.89L644.44 -111.11L600 -111.11L600 -83.33L637.04 -83.33L637.04 -55.56L600 -55.56Z" fill="#333333" transform="translate(22.59,168.89)"/>
</svg>
