<svg xmlns="http://www.w3.org/2000/svg" viewBox="0 0 1420.55 322.37" width="1420.55" height="322.37">
  <path d="M57.42 -2.69L142.58 -2.69Q148.44 -2.69 151.86 -7.62Q155.27 -12.55 155.27 -19.12Q155.27 -25.7 151.86 -30.63Q148.44 -35.56 142.58 -35.56L57.42 -35.56Q51.56 -35.56 48.14 -30.63Q44.73 -25.7 44.73 -19.12Q44.73 -12.55 48.14 -7.62Q51.56 -2.69 57.42 -2.69ZM32.42 -40.94L67.58 -40.94Q73.44 -40.94 76.86 -45.87Q80.27 -50.8 80.27 -57.37Q80.27 -63.95 76.86 -68.88Q73.44 -73.81 67.58 -73.81L32.42 -73.81Q26.56 -73.81 23.14 -68.88Q19.73 -63.95 19.73 -57.37Q19.73 -50.8 23.14 -45.87Q26.56 -40.94 32.42 -40.94ZM132.42 -40.94L167.58 -40.94Q173.44 -40.94 176.86 -45.87Q180.27 -50.8 180.27 -57.37Q180.27 -63.95 176.86 -68.88Q173.44 -73.81 167.58 -73.81L132.42 -73.81Q126.56 -73.81 123.14 -68.88Q119.73 -63.95 119.73 -57.37Q119.73 -50.8 123.14 -45.87Q126.56 -40.94 132.42 -40.94ZM32.42 -79.19L67.58 -79.19Q73.44 -79.19 76.86 -84.12Q80.27 -89.05 80.27 -95.62Q80.27 -102.2 76.86 -107.13Q73.44 -112.06 67.58 -112.06L32.42 -112.06Q26.56 -112.06 23.14 -107.13Q19.73 -102.2 19.73 -95.62Q19.73 -89.05 23.14 -84.12Q26.56 -79.19 32.42 -79.19ZM32.42 -117.44L67.58 -117.44Q73.44 -117.44 76.86 -122.37Q80.27 -127.3 80.27 -133.87Q80.27 -140.45 76.86 -145.38Q73.44 -150.31 67.58 -150.31L32.42 -150.31Q26.56 -150.31 23.14 -145.38Q19.73 -140.45 19.73 -133.87Q19.73 -127.3 23.14 -122.37Q26.56 -117.44 32.42 -117.44ZM32.42 -155.69L67.58 -155.69Q73.44 -155.69 76.86 -160.62Q80.27 -165.55 80.27 -172.12Q80.27 -178.7 76.86 -183.63Q73.44 -188.56 67.58 -188.56L32.42 -188.56Q26.56 -188.56 23.14 -183.63Q19.73 -178.7 19.73 -172.12Q19.73 -165.55 23.14 -160.62Q26.56 -155.69 32.42 -155.69ZM32.42 -193.94L67.58 -193.94Q73.44 -193.94 76.86 -198.87Q80.27 -203.8 80.27 -210.37Q80.27 -216.95 76.86 -221.88Q73.44 -226.81 67.58 -226.81L32.42 -226.81Q26.56 -226.81 23.14 -221.88Q19.73 -216.95 19.73 -210.37Q19.73 -203.8 23.14 -198.87Q26.56 -193.94 32.42 -193.94ZM132.42 -193.94L167.58 -193.94Q173.44 -193.94 176.86 -198.87Q180.27 -203.8 180.27 -210.37Q180.27 -216.95 176.86 -221.88Q173.44 -226.81 167.58 -226.81L132.42 -226.81Q126.56 -226.81 123.14 -221.88Q119.73 -216.95 119.73 -210.37Q119.73 -203.8 123.14 -198.87Q126.56 -193.94 132.42 -193.94ZM57.42 -232.19L142.58 -232.19Q148.44 -232.19 151.86 -237.12Q155.27 -242.05 155.27 -248.62Q155.27 -255.2 151.86 -260.13Q148.44 -265.06 142.58 -265.06L57.42 -265.06Q51.56 -265.06 48.14 -260.13Q44.73 -255.2 44.73 -248.62Q44.73 -242.05 48.14 -237.12Q51.56 -232.19 57.42 -232.19ZM257.42 -2.69L342.58 -2.69Q348.44 -2.69 351.86 -7.62Q355.27 -12.55 355.27 -19.12Q355.27 -25.7 351.86 -30.63Q348.44 -35.56 342.58 -35.56L257.42 -35.56Q251.56 -35.56 248.14 -30.63Q244.73 -25.7 244.73 -19.12Q244.73 -12.55 248.14 -7.62Q251.56 -2.69 257.42 -2.69ZM232.42 -40.94L267.58 -40.94Q273.44 -40.94 276.86 -45.87Q280.27 -50.8 280.27 -57.37Q280.27 -63.95 276.86 -68.88Q273.44 -73.81 267.58 -73.81L232.42 -73.81Q226.56 -73.81 223.14 -68.88Q219.73 -63.95 219.73 -57.37Q219.73 -50.8 223.14 -45.87Q226.56 -40.94 232.42 -40.94ZM332.42 -40.94L367.58 -40.94Q373.44 -40.94 376.86 -45.87Q380.27 -50.8 380.27 -57.37Q380.27 -63.95 376.86 -68.88Q373.44 -73.81 367.58 -73.81L332.42 -73.81Q326.56 -73.81 323.14 -68.88Q319.73 -63.95 319.73 -57.37Q319.73 -50.8 323.14 -45.87Q326.56 -40.94 332.42 -40.94ZM232.42 -79.19L267.58 -79.19Q273.44 -79.19 276.86 -84.12Q280.27 -89.05 280.27 -95.62Q280.27 -102.2 276.86 -107.13Q273.44 -112.06 267.58 -112.06L232.42 -112.06Q226.56 -112.06 223.14 -107.13Q219.73 -102.2 219.73 -95.62Q219.73 -89.05 223.14 -84.12Q226.56 -79.19 232.42 -79.19ZM332.42 -79.19L367.58 -79.19Q373.44 -79.19 376.86 -84.12Q380.27 -89.05 380.27 -95.62Q380.27 -102.2 376.86 -107.13Q373.44 -112.06 367.58 -112.06L332.42 -112.06Q326.56 -112.06 323.14 -107.13Q319.73 -102.2 319.73 -95.62Q319.73 -89.05 323.14 -84.12Q326.56 -79.19 332.42 -79.19ZM232.42 -117.44L267.58 -117.44Q273.44 -117.44 276.86 -122.37Q280.27 -127.3 280.27 -133.87Q280.27 -140.45 276.86 -145.38Q273.44 -150.31 267.58 -150.31L232.42 -150.31Q226.56 -150.31 223.14 -145.38Q219.73 -140.45 219.73 -133.87Q219.73 -127.3 223.14 -122.37Q226.56 -117.44 232.42 -117.44ZM332.42 -117.44L367.58 -117.44Q373.44 -117.44 376.86 -122.37Q380.27 -127.3 380.27 -133.87Q380.27 -140.45 376.86 -145.38Q373.44 -150.31 367.58 -150.31L332.42 -150.31Q326.56 -150.31 323.14 -145.38Q319.73 -140.45 319.73 -133.87Q319.73 -127.3 323.14 -122.37Q326.56 -117.44 332.42 -117.44ZM232.42 -155.69L267.58 -155.69Q273.44 -155.69 276.86 -160.62Q280.27 -165.55 280.27 -172.12Q280.27 -178.7 276.86 -183.63Q273.44 -188.56 267.58 -188.56L232.42 -188.56Q226.56 -188.56 223.14 -183.63Q219.73 -178.7 219.73 -172.12Q219.73 -165.55 223.14 -160.62Q226.56 -155.69 232.42 -155.69ZM332.42 -155.69L367.58 -155.69Q373.44 -155.69 376.86 -160.62Q380.27 -165.55 380.27 -172.12Q380.27 -178.7 376.86 -183.63Q373.44 -188.56 367.58 -188.56L332.42 -188.56Q326.56 -188.56 323.14 -183.63Q319.73 -178.7 319.73 -172.12Q319.73 -165.55 323.14 -160.62Q326.56 -155.69 332.42 -155.69ZM232.42 -193.94L267.58 -193.94Q273.44 -193.94 276.86 -198.87Q280.27 -203.8 280.27 -210.37Q280.27 -216.95 276.86 -221.88Q273.44 -226.81 267.58 -226.81L232.42 -226.81Q226.56 -226.81 223.14 -221.88Q219.73 -216.95 219.73 -210.37Q219.73 -203.8 223.14 -198.87Q226.56 -193.94 232.42 -193.94ZM332.42 -193.94L367.58 -193.94Q373.44 -193.94 376.86 -198.87Q380.27 -203.8 380.27 -210.37Q380.27 -216.95 376.86 -221.88Q373.44 -226.81 367.58 -226.81L332.42 -226.81Q326.56 -226.81 323.14 -221.88Q319.73 -216.95 319.73 -210.37Q319.73 -203.8 323.14 -198.87Q326.56 -193.94 332.42 -193.94ZM257.42 -232.19L342.58 -232.19Q348.44 -232.19 351.86 -237.12Q355.27 -242.05 355.27 -248.62Q355.27 -255.2 351.86 -260.13Q348.44 -265.06 342.58 -265.06L257.42 -265.06Q251.56 -265.06 248.14 -260.13Q244.73 -255.2 244.73 -248.62Q244.73 -242.05 248.14 -237.12Q251.56 -232.19 257.42 -232.19ZM432.42 -2.69L467.58 -2.69Q473.44 -2.69 476.86 -7.62Q480.27 -12.55 480.27 -19.12Q480.27 -25.7 476.86 -30.63Q473.44 -35.56 467.58 -35.56L432.42 -35.56Q426.56 -35.56 423.14 -30.63Q419.73 -25.7 419.73 -19.12Q419.73 -12.55 423.14 -7.62Q426.56 -2.69 432.42 -2.69ZM557.42 -2.69L592.58 -2.69Q598.44 -2.69 601.86 -7.62Q605.27 -12.55 605.27 -19.12Q605.27 -25.7 601.86 -30.63Q598.44 -35.56 592.58 -35.56L557.42 -35.56Q551.56 -35.56 548.14 -30.63Q544.73 -25.7 544.73 -19.12Q544.73 -12.55 548.14 -7.62Q551.56 -2.69 557.42 -2.69ZM432.42 -40.94L467.58 -40.94Q473.44 -40.94 476.86 -45.87Q480.27 -50.8 480.27 -57.37Q480.27 -63.95 476.86 -68.88Q473.44 -73.81 467.58 -73.81L432.42 -73.81Q426.56 -73.81 423.14 -68.88Q419.73 -63.95 419.73 -57.37Q419.73 -50.8 423.14 -45.87Q426.56 -40.94 432.42 -40.94ZM557.42 -40.94L592.58 -40.94Q598.44 -40.94 601.86 -45.87Q605.27 -50.8 605.27 -57.37Q605.27 -63.95 601.86 -68.88Q598.44 -73.81 592.58 -73.81L557.42 -73.81Q551.56 -73.81 548.14 -68.88Q544.73 -63.95 544.73 -57.37Q544.73 -50.8 548.14 -45.87Q551.56 -40.94 557.42 -40.94ZM432.42 -79.19L467.58 -79.19Q473.44 -79.19 476.86 -84.12Q480.27 -89.05 480.27 -95.62Q480.27 -102.2 476.86 -107.13Q473.44 -112.06 467.58 -112.06L432.42 -112.06Q426.56 -112.06 423.14 -107.13Q419.73 -102.2 419.73 -95.62Q419.73 -89.05 423.14 -84.12Q426.56 -79.19 432.42 -79.19ZM557.42 -79.19L592.58 -79.19Q598.44 -79.19 601.86 -84.12Q605.27 -89.05 605.27 -95.62Q605.27 -102.2 601.86 -107.13Q598.44 -112.06 592.58 -112.06L557.42 -112.06Q551.56 -112.06 548.14 -107.13Q544.73 -102.2 544.73 -95.62Q544.73 -89.05 548.14 -84.12Q551.56 -79.19 557.42 -79.19ZM432.42 -117.44L467.58 -117.44Q473.44 -117.44 476.86 -122.37Q480.27 -127.3 480.27 -133.87Q480.27 -140.45 476.86 -145.38Q473.44 -150.31 467.58 -150.31L432.42 -150.31Q426.56 -150.31 423.14 -145.38Q419.73 -140.45 419.73 -133.87Q419.73 -127.3 423.14 -122.37Q426.56 -117.44 432.42 -117.44ZM505.47 -117.44L519.53 -117.44Q524.22 -117.44 527.25 -122.37Q530.27 -127.3 530.27 -133.87Q530.27 -140.45 527.25 -145.38Q524.22 -150.31 519.53 -150.31L505.47 -150.31Q500.78 -150.31 497.75 -145.38Q494.73 -140.45 494.73 -133.87Q494.73 -127.3 497.75 -122.37Q500.78 -117.44 505.47 -117.44ZM557.42 -117.44L592.58 -117.44Q598.44 -117.44 601.86 -122.37Q605.27 -127.3 605.27 -133.87Q605.27 -140.45 601.86 -145.38Q598.44 -150.31 592.58 -150.31L557.42 -150.31Q551.56 -150.31 548.14 -145.38Q544.73 -140.45 544.73 -133.87Q544.73 -127.3 548.14 -122.37Q551.56 -117.44 557.42 -117.44ZM432.42 -155.69L592.58 -155.69Q598.44 -155.69 601.86 -160.62Q605.27 -165.55 605.27 -172.12Q605.27 -178.7 601.86 -183.63Q598.44 -188.56 592.58 -188.56L432.42 -188.56Q426.56 -188.56 423.14 -183.63Q419.73 -178.7 419.73 -172.12Q419.73 -165.55 423.14 -160.62Q426.56 -155.69 432.42 -155.69ZM432.42 -193.94L492.58 -193.94Q498.44 -193.94 501.86 -198.87Q505.27 -203.8 505.27 -210.37Q505.27 -216.95 501.86 -221.88Q498.44 -226.81 492.58 -226.81L432.42 -226.81Q426.56 -226.81 423.14 -221.88Q419.73 -216.95 419.73 -210.37Q419.73 -203.8 423.14 -198.87Q426.56 -193.94 432.42 -193.94ZM532.42 -193.94L592.58 -193.94Q598.44 -193.94 601.86 -198.87Q605.27 -203.8 605.27 -210.37Q605.27 -216.95 601.86 -221.88Q598.44 -226.81 592.58 -226.81L532.42 -226.81Q526.56 -226.81 523.14 -221.88Q519.73 -216.95 519.73 -210.37Q519.73 -203.8 523.14 -198.87Q526.56 -193.94 532.42 -193.94ZM432.42 -232.19L467.58 -232.19Q473.44 -232.19 476.86 -237.12Q480.27 -242.05 480.27 -248.62Q480.27 -255.2 476.86 -260.13Q473.44 -265.06 467.58 -265.06L432.42 -265.06Q426.56 -265.06 423.14 -260.13Q419.73 -255.2 419.73 -248.62Q419.73 -242.05 423.14 -237.12Q426.56 -232.19 432.42 -232.19ZM557.42 -232.19L592.58 -232.19Q598.44 -232.19 601.86 -237.12Q605.27 -242.05 605.27 -248.62Q605.27 -255.2 601.86 -260.13Q598.44 -265.06 592.58 -265.06L557.42 -265.06Q551.56 -265.06 548.14 -260.13Q544.73 -255.2 544.73 -248.62Q544.73 -242.05 548.14 -237.12Q551.56 -232.19 557.42 -232.19ZM632.42 -2.69L667.58 -2.69Q673.44 -2.69 676.86 -7.62Q680.27 -12.55 680.27 -19.12Q680.27 -25.7 676.86 -30.63Q673.44 -35.56 667.58 -35.56L632.42 -35.56Q626.56 -35.56 623.14 -30.63Q619.73 -25.7 619.73 -19.12Q619.73 -12.55 623.14 -7.62Q626.56 -2.69 632.42 -2.69ZM732.42 -2.69L767.58 -2.69Q773.44 -2.69 776.86 -7.62Q780.27 -12.55 780.27 -19.12Q780.27 -25.7 776.86 -30.63Q773.44 -35.56 767.58 -35.56L732.42 -35.56Q726.56 -35.56 723.14 -30.63Q719.73 -25.7 719.73 -19.12Q719.73 -12.55 723.14 -7.62Q726.56 -2.69 732.42 -2.69ZM632.42 -40.94L667.58 -40.94Q673.44 -40.94 676.86 -45.87Q680.27 -50.8 680.27 -57.37Q680.27 -63.95 676.86 -68.88Q673.44 -73.81 667.58 -73.81L632.42 -73.81Q626.56 -73.81 623.14 -68.88Q619.73 -63.95 619.73 -57.37Q619.73 -50.8 623.14 -45.87Q626.56 -40.94 632.42 -40.94ZM707.42 -40.94L742.58 -40.94Q748.44 -40.94 751.86 -45.87Q755.27 -50.8 755.27 -57.37Q755.27 -63.95 751.86 -68.88Q748.44 -73.81 742.58 -73.81L707.42 -73.81Q701.56 -73.81 698.14 -68.88Q694.73 -63.95 694.73 -57.37Q694.73 -50.8 698.14 -45.87Q701.56 -40.94 707.42 -40.94ZM632.42 -79.19L717.58 -79.19Q723.44 -79.19 726.86 -84.12Q730.27 -89.05 730.27 -95.62Q730.27 -102.2 726.86 -107.13Q723.44 -112.06 717.58 -112.06L632.42 -112.06Q626.56 -112.06 623.14 -107.13Q619.73 -102.2 619.73 -95.62Q619.73 -89.05 623.14 -84.12Q626.56 -79.19 632.42 -79.19ZM632.42 -117.44L742.58 -117.44Q748.44 -117.44 751.86 -122.37Q755.27 -127.3 755.27 -133.87Q755.27 -140.45 751.86 -145.38Q748.44 -150.31 742.58 -150.31L632.42 -150.31Q626.56 -150.31 623.14 -145.38Q619.73 -140.45 619.73 -133.87Q619.73 -127.3 623.14 -122.37Q626.56 -117.44 632.42 -117.44ZM632.42 -155.69L667.58 -155.69Q673.44 -155.69 676.86 -160.62Q680.27 -165.55 680.27 -172.12Q680.27 -178.7 676.86 -183.63Q673.44 -188.56 667.58 -188.56L632.42 -188.56Q626.56 -188.56 623.14 -183.63Q619.73 -178.7 619.73 -172.12Q619.73 -165.55 623.14 -160.62Q626.56 -155.69 632.42 -155.69ZM732.42 -155.69L767.58 -155.69Q773.44 -155.69 776.86 -160.62Q780.27 -165.55 780.27 -172.12Q780.27 -178.7 776.86 -183.63Q773.44 -188.56 767.58 -188.56L732.42 -188.56Q726.56 -188.56 723.14 -183.63Q719.73 -178.7 719.73 -172.12Q719.73 -165.55 723.14 -160.62Q726.56 -155.69 732.42 -155.69ZM632.42 -193.94L667.58 -193.94Q673.44 -193.94 676.86 -198.87Q680.27 -203.8 680.27 -210.37Q680.27 -216.95 676.86 -221.88Q673.44 -226.81 667.58 -226.81L632.42 -226.81Q626.56 -226.81 623.14 -221.88Q619.73 -216.95 619.73 -210.37Q619.73 -203.8 623.14 -198.87Q626.56 -193.94 632.42 -193.94ZM732.42 -193.94L767.58 -193.94Q773.44 -193.94 776.86 -198.87Q780.27 -203.8 780.27 -210.37Q780.27 -216.95 776.86 -221.88Q773.44 -226.81 767.58 -226.81L732.42 -226.81Q726.56 -226.81 723.14 -221.88Q719.73 -216.95 719.73 -210.37Q719.73 -203.8 723.14 -198.87Q726.56 -193.94 732.42 -193.94ZM632.42 -232.19L742.58 -232.19Q748.44 -232.19 751.86 -237.12Q755.27 -242.05 755.27 -248.62Q755.27 -255.2 751.86 -260.13Q748.44 -265.06 742.58 -265.06L632.42 -265.06Q626.56 -265.06 623.14 -260.13Q619.73 -255.2 619.73 -248.62Q619.73 -242.05 623.14 -237.12Q626.56 -232.19 632.42 -232.19ZM832.42 -2.69L867.58 -2.69Q873.44 -2.69 876.86 -7.62Q880.27 -12.55 880.27 -19.12Q880.27 -25.7 876.86 -30.63Q873.44 -35.56 867.58 -35.56L832.42 -35.56Q826.56 -35.56 823.14 -30.63Q819.73 -25.7 819.73 -19.12Q819.73 -12.55 823.14 -7.62Q826.56 -2.69 832.42 -2.69ZM932.42 -2.69L967.58 -2.69Q973.44 -2.69 976.86 -7.62Q980.27 -12.55 980.27 -19.12Q980.27 -25.7 976.86 -30.63Q973.44 -35.56 967.58 -35.56L932.42 -35.56Q926.56 -35.56 923.14 -30.63Q919.73 -25.7 919.73 -19.12Q919.73 -12.55 923.14 -7.62Q926.56 -2.69 932.42 -2.69ZM832.42 -40.94L867.58 -40.94Q873.44 -40.94 876.86 -45.87Q880.27 -50.8 880.27 -57.37Q880.27 -63.95 876.86 -68.88Q873.44 -73.81 867.58 -73.81L832.42 -73.81Q826.56 -73.81 823.14 -68.88Q819.73 -63.95 819.73 -57.37Q819.73 -50.8 823.14 -45.87Q826.56 -40.94 832.42 -40.94ZM932.42 -40.94L967.58 -40.94Q973.44 -40.94 976.86 -45.87Q980.27 -50.8 980.27 -57.37Q980.27 -63.95 976.86 -68.88Q973.44 -73.81 967.58 -73.81L932.42 -73.81Q926.56 -73.81 923.14 -68.88Q919.73 -63.95 919.73 -57.37Q919.73 -50.8 923.14 -45.87Q926.56 -40.94 932.42 -40.94ZM832.42 -79.19L867.58 -79.19Q873.44 -79.19 876.86 -84.12Q880.27 -89.05 880.27 -95.62Q880.27 -102.2 876.86 -107.13Q873.44 -112.06 867.58 -112.06L832.42 -112.06Q826.56 -112.06 823.14 -107.13Q819.73 -102.2 819.73 -95.62Q819.73 -89.05 823.14 -84.12Q826.56 -79.19 832.42 -79.19ZM932.42 -79.19L967.58 -79.19Q973.44 -79.19 976.86 -84.12Q980.27 -89.05 980.27 -95.62Q980.27 -102.2 976.86 -107.13Q973.44 -112.06 967.58 -112.06L932.42 -112.06Q926.56 -112.06 923.14 -107.13Q919.73 -102.2 919.73 -95.62Q919.73 -89.05 923.14 -84.12Q926.56 -79.19 932.42 -79.19ZM832.42 -117.44L967.58 -117.44Q973.44 -117.44 976.86 -122.37Q980.27 -127.3 980.27 -133.87Q980.27 -140.45 976.86 -145.38Q973.44 -150.31 967.58 -150.31L832.42 -150.31Q826.56 -150.31 823.14 -145.38Q819.73 -140.45 819.73 -133.87Q819.73 -127.3 823.14 -122.37Q826.56 -117.44 832.42 -117.44ZM832.42 -155.69L867.58 -155.69Q873.44 -155.69 876.86 -160.62Q880.27 -165.55 880.27 -172.12Q880.27 -178.7 876.86 -183.63Q873.44 -188.56 867.58 -188.56L832.42 -188.56Q826.56 -188.56 823.14 -183.63Q819.73 -178.7 819.73 -172.12Q819.73 -165.55 823.14 -160.62Q826.56 -155.69 832.42 -155.69ZM932.42 -155.69L967.58 -155.69Q973.44 -155.69 976.86 -160.62Q980.27 -165.55 980.27 -172.12Q980.27 -178.7 976.86 -183.63Q973.44 -188.56 967.58 -188.56L932.42 -188.56Q926.56 -188.56 923.14 -183.63Q919.73 -178.7 919.73 -172.12Q919.73 -165.55 923.14 -160.62Q926.56 -155.69 932.42 -155.69ZM857.42 -193.94L942.58 -193.94Q948.44 -193.94 951.86 -198.87Q955.27 -203.8 955.27 -210.37Q955.27 -216.95 951.86 -221.88Q948.44 -226.81 942.58 -226.81L857.42 -226.81Q851.56 -226.81 848.14 -221.88Q844.73 -216.95 844.73 -210.37Q844.73 -203.8 848.14 -198.87Q851.56 -193.94 857.42 -193.94ZM882.42 -232.19L917.58 -232.19Q923.44 -232.19 926.86 -237.12Q930.27 -242.05 930.27 -248.62Q930.27 -255.2 926.86 -260.13Q923.44 -265.06 917.58 -265.06L882.42 -265.06Q876.56 -265.06 873.14 -260.13Q869.73 -255.2 869.73 -248.62Q869.73 -242.05 873.14 -237.12Q876.56 -232.19 882.42 -232.19ZM1032.42 -2.69L1117.58 -2.69Q1123.44 -2.69 1126.86 -7.62Q1130.27 -12.55 1130.27 -19.12Q1130.27 -25.7 1126.86 -30.63Q1123.44 -35.56 1117.58 -35.56L1032.42 -35.56Q1026.56 -35.56 1023.14 -30.63Q1019.73 -25.7 1019.73 -19.12Q1019.73 -12.55 1023.14 -7.62Q1026.56 -2.69 1032.42 -2.69ZM1032.42 -40.94L1067.58 -40.94Q1073.44 -40.94 1076.86 -45.87Q1080.27 -50.8 1080.27 -57.37Q1080.27 -63.95 1076.86 -68.88Q1073.44 -73.81 1067.58 -73.81L1032.42 -73.81Q1026.56 -73.81 1023.14 -68.88Q1019.73 -63.95 1019.73 -57.37Q1019.73 -50.8 1023.14 -45.87Q1026.56 -40.94 1032.42 -40.94ZM1107.42 -40.94L1142.58 -40.94Q1148.44 -40.94 1151.86 -45.87Q1155.27 -50.8 1155.27 -57.37Q1155.27 -63.95 1151.86 -68.88Q1148.44 -73.81 1142.58 -73.81L1107.42 -73.81Q1101.56 -73.81 1098.14 -68.88Q1094.73 -63.95 1094.73 -57.37Q1094.73 -50.8 1098.14 -45.87Q1101.56 -40.94 1107.42 -40.94ZM1032.42 -79.19L1067.58 -79.19Q1073.44 -79.19 1076.86 -84.12Q1080.27 -89.05 1080.27 -95.62Q1080.27 -102.2 1076.86 -107.13Q1073.44 -112.06 1067.58 -112.06L1032.42 -112.06Q1026.56 -112.06 1023.14 -107.13Q1019.73 -102.2 1019.73 -95.62Q1019.73 -89.05 1023.14 -84.12Q1026.56 -79.19 1032.42 -79.19ZM1132.42 -79.19L1167.58 -79.19Q1173.44 -79.19 1176.86 -84.12Q1180.27 -89.05 1180.27 -95.62Q1180.27 -102.2 1176.86 -107.13Q1173.44 -112.06 1167.58 -112.06L1132.42 -112.06Q1126.56 -112.06 1123.14 -107.13Q1119.73 -102.2 1119.73 -95.62Q1119.73 -89.05 1123.14 -84.12Q1126.56 -79.19 1132.42 -79.19ZM1032.42 -117.44L1067.58 -117.44Q1073.44 -117.44 1076.86 -122.37Q1080.27 -127.3 1080.27 -133.87Q1080.27 -140.45 1076.86 -145.38Q1073.44 -150.31 1067.58 -150.31L1032.42 -150.31Q1026.56 -150.31 1023.14 -145.38Q1019.73 -140.45 1019.73 -133.87Q1019.73 -127.3 1023.14 -122.37Q1026.56 -117.44 1032.42 -117.44ZM1132.42 -117.44L1167.58 -117.44Q1173.44 -117.44 1176.86 -122.37Q1180.27 -127.3 1180.27 -133.87Q1180.27 -140.45 1176.86 -145.38Q1173.44 -150.31 1167.58 -150.31L1132.42 -150.31Q1126.56 -150.31 1123.14 -145.38Q1119.73 -140.45 1119.73 -133.87Q1119.73 -127.3 1123.14 -122.37Q1126.56 -117.44 1132.42 -117.44ZM1032.42 -155.69L1067.58 -155.69Q1073.44 -155.69 1076.86 -160.62Q1080.27 -165.55 1080.27 -172.12Q1080.27 -178.7 1076.86 -183.63Q1073.44 -188.56 1067.58 -188.56L1032.42 -188.56Q1026.56 -188.56 1023.14 -183.63Q1019.73 -178.7 1019.73 -172.12Q1019.73 -165.55 1023.14 -160.62Q1026.56 -155.69 1032.42 -155.69ZM1132.42 -155.69L1167.58 -155.69Q1173.44 -155.69 1176.86 -160.62Q1180.27 -165.55 1180.27 -172.12Q1180.27 -178.7 1176.86 -183.63Q1173.44 -188.56 1167.58 -188.56L1132.42 -188.56Q1126.56 -188.56 1123.14 -183.63Q1119.73 -178.7 1119.73 -172.12Q1119.73 -165.55 1123.14 -160.62Q1126.56 -155.69 1132.42 -155.69ZM1032.42 -193.94L1067.58 -193.94Q1073.44 -193.94 1076.86 -198.87Q1080.27 -203.8 1080.27 -210.37Q1080.27 -216.95 1076.86 -221.88Q1073.44 -226.81 1067.58 -226.81L1032.42 -226.81Q1026.56 -226.81 1023.14 -221.88Q1019.73 -216.95 1019.73 -210.37Q1019.73 -203.8 1023.14 -198.87Q1026.56 -193.94 1032.42 -193.94ZM1107.42 -193.94L1142.58 -193.94Q1148.44 -193.94 1151.86 -198.87Q1155.27 -203.8 1155.27 -210.37Q1155.27 -216.95 1151.86 -221.88Q1148.44 -226.81 1142.58 -226.81L1107.42 -226.81Q1101.56 -226.81 1098.14 -221.88Q1094.73 -216.95 1094.73 -210.37Q1094.73 -203.8 1098.14 -198.87Q1101.56 -193.94 1107.42 -193.94ZM1032.42 -232.19L1117.58 -232.19Q1123.44 -232.19 1126.86 -237.12Q1130.27 -242.05 1130.27 -248.62Q1130.27 -255.2 1126.86 -260.13Q1123.44 -265.06 1117.58 -265.06L1032.42 -265.06Q1026.56 -265.06 1023.14 -260.13Q1019.73 -255.2 1019.73 -248.62Q1019.73 -242.05 1023.14 -237.12Q1026.56 -232.19 1032.42 -232.19ZM1232.42 -2.69L1367.58 -2.69Q1373.44 -2.69 1376.86 -7.62Q1380.27 -12.55 1380.27 -19.12Q1380.27 -25.7 1376.86 -30.63Q1373.44 -35.56 1367.58 -35.56L1232.42 -35.56Q1226.56 -35.56 1223.14 -30.63Q1219.73 -25.7 1219.73 -19.12Q1219.73 -12.55 1223.14 -7.62Q1226.56 -2.69 1232.42 -2.69ZM1232.42 -40.94L1267.58 -40.94Q1273.44 -40.94 1276.86 -45.87Q1280.27 -50.8 1280.27 -57.37Q1280.27 -63.95 1276.86 -68.88Q1273.44 -73.81 1267.58 -73.81L1232.42 -73.81Q1226.56 -73.81 1223.14 -68.88Q1219.73 -63.95 1219.73 -57.37Q1219.73 -50.8 1223.14 -45.87Q1226.56 -40.94 1232.42 -40.94ZM1232.42 -79.19L1267.58 -79.19Q1273.44 -79.19 1276.86 -84.12Q1280.27 -89.05 1280.27 -95.62Q1280.27 -102.2 1276.86 -107.13Q1273.44 -112.06 1267.58 -112.06L1232.42 -112.06Q1226.56 -112.06 1223.14 -107.13Q1219.73 -102.2 1219.73 -95.62Q1219.73 -89.05 1223.14 -84.12Q1226.56 -79.19 1232.42 -79.19ZM1232.42 -117.44L1317.58 -117.44Q1323.44 -117.44 1326.86 -122.37Q1330.27 -127.3 1330.27 -133.87Q1330.27 -140.45 1326.86 -145.38Q1323.44 -150.31 1317.58 -150.31L1232.42 -150.31Q1226.56 -150.31 1223.14 -145.38Q1219.73 -140.45 1219.73 -133.87Q1219.73 -127.3 1223.14 -122.37Q1226.56 -117.44 1232.42 -117.44ZM1232.42 -155.69L1267.58 -155.69Q1273.44 -155.69 1276.86 -160.62Q1280.27 -165.55 1280.27 -172.12Q1280.27 -178.7 1276.86 -183.63Q1273.44 -188.56 1267.58 -188.56L1232.42 -188.56Q1226.56 -188.56 1223.14 -183.63Q1219.73 -178.7 1219.73 -172.12Q1219.73 -165.55 1223.14 -160.62Q1226.56 -155.69 1232.42 -155.69ZM1232.42 -193.94L1267.58 -193.94Q1273.44 -193.94 1276.86 -198.87Q1280.27 -203.8 1280.27 -210.37Q1280.27 -216.95 1276.86 -221.88Q1273.44 -226.81 1267.58 -226.81L1232.42 -226.81Q1226.56 -226.81 1223.14 -221.88Q1219.73 -216.95 1219.73 -210.37Q1219.73 -203.8 1223.14 -198.87Q1226.56 -193.94 1232.42 -193.94ZM1232.42 -232.19L1367.58 -232.19Q1373.44 -232.19 1376.86 -237.12Q1380.27 -242.05 1380.27 -248.62Q1380.27 -255.2 1376.86 -260.13Q1373.44 -265.06 1367.58 -265.06L1232.42 -265.06Q1226.56 -265.06 1223.14 -260.13Q1219.73 -255.2 1219.73 -248.62Q1219.73 -242.05 1223.14 -237.12Q1226.56 -232.19 1232.42 -232.19Z" fill="#333333" transform="translate(10.27,295.06)"/>
</svg>
